<svg width="42" height="57" viewBox="0 0 42 57" fill="none" xmlns="http://www.w3.org/2000/svg">
<path d="M38.0288 51.0847L40.2326 53.9641L40.302 52.7326L39.0758 51.1021L40.4697 49.3964L40.2673 48.3672L38.0288 51.0847Z" fill="#00A79D"/>
<path d="M3.36965 51.073L1.17166 53.9524L1.10223 52.7209L2.3285 51.0903L0.928711 49.3847L1.13116 48.3555L3.36965 51.073Z" fill="#00A79D"/>
<path d="M17.7846 43.2899V44.4232H2.71094V24.3135L3.84466 25.2675V43.2899H17.7846Z" fill="#00A79D"/>
<path d="M17.7846 2.46973V3.60299H3.84466V15.7509L2.71094 14.8027V2.46973H17.7846Z" fill="#00A79D"/>
<path d="M5.16896 49.0373L3.104 46.3545L4.08731 46.3082L5.21524 47.7768L6.55718 46.2793L7.43638 46.5106L5.16896 49.0373Z" fill="#00A79D"/>
<path d="M6.34313 56.1846L5.12266 54.7448L3.98896 56.1267L3.36426 55.6121L5.1111 53.4844L6.95627 55.6584L6.34313 56.1846Z" fill="#00A79D"/>
<path d="M13.0646 49.0375L10.8955 46.2217L11.9829 46.3084L13.1109 47.777L14.4528 46.2795L15.4535 46.3836L13.0646 49.0375Z" fill="#00A79D"/>
<path d="M14.2387 56.1846L13.0182 54.7448L11.8903 56.1267L11.2598 55.6121L13.0066 53.4844L14.8575 55.6584L14.2387 56.1846Z" fill="#00A79D"/>
<path d="M20.7865 49.0373L18.7446 46.3834L19.7048 46.3082L20.8327 47.7768L22.1747 46.2793L23.0597 46.5106L20.7865 49.0373Z" fill="#00A79D"/>
<path d="M21.9608 56.1846L20.7403 54.7448L19.6066 56.1267L18.9819 55.6121L20.7288 53.4844L22.5739 55.6584L21.9608 56.1846Z" fill="#00A79D"/>
<path d="M28.4392 49.0373L26.5015 46.5164L27.3575 46.3082L28.4855 47.7768L29.8274 46.2793L30.7587 46.4585L28.4392 49.0373Z" fill="#00A79D"/>
<path d="M29.6132 56.1846L28.3928 54.7448L27.2648 56.1267L26.6401 55.6121L28.387 53.4844L30.2321 55.6584L29.6132 56.1846Z" fill="#00A79D"/>
<path d="M36.3344 49.0373L34.3389 46.4354L35.2586 46.3082L36.3865 47.7768L37.7284 46.2793L38.5382 46.5915L36.3344 49.0373Z" fill="#00A79D"/>
<path d="M37.5087 56.1846L36.2941 54.7448L35.1603 56.1267L34.5356 55.6121L36.2825 53.4844L38.1276 55.6584L37.5087 56.1846Z" fill="#00A79D"/>
<path d="M9.0848 53.7786L11.1613 51.0784L9.0848 48.5459L6.96777 51.0784L9.0848 53.7786ZM10.3284 51.09L9.07322 52.7205L7.78912 51.09L9.07322 49.5577L10.3284 51.09Z" fill="#00A79D"/>
<path d="M16.969 53.7786L19.0455 51.0784L16.969 48.5459L14.8462 51.0784L16.969 53.7786ZM18.2184 51.09L16.9632 52.7205L15.6849 51.09L16.9632 49.5577L18.2184 51.09Z" fill="#00A79D"/>
<path d="M24.6907 53.7786L26.7673 51.0784L24.6907 48.5459L22.5737 51.0784L24.6907 53.7786ZM25.9401 51.09L24.685 52.7205L23.4066 51.09L24.685 49.5577L25.9401 51.09Z" fill="#00A79D"/>
<path d="M32.4705 53.7786L34.5471 51.0784L32.4705 48.5459L30.3535 51.0784L32.4705 53.7786ZM33.7199 51.09L32.4648 52.7205L31.1864 51.09L32.4648 49.5577L33.7199 51.09Z" fill="#00A79D"/>
<path d="M0.315918 0.347656V56.6525H41.1004V0.347656H0.315918ZM1.44962 19.2258L19.5079 34.4381L12.3587 40.5092L13.0932 41.3707L19.8492 35.6408V45.6089H1.44962V19.2258ZM23.8924 46.7422L20.8036 50.4253L17.9462 46.7422H23.8924ZM16.1647 46.7422L13.0932 50.4253L10.2185 46.7422H16.1647ZM8.25765 46.7422L5.18622 50.4253L2.32883 46.7422H8.25765ZM1.44962 46.9214L4.66564 51.0497L1.44962 54.8948V46.9214ZM1.9702 55.525L5.16887 51.6973L8.13617 55.525H1.97599H1.9702ZM5.70681 51.0671L9.2641 46.8116L12.5495 51.0497L8.99224 55.3053L5.70681 51.0671ZM9.85987 55.525L13.0585 51.6973L16.0432 55.525H9.85987ZM13.5965 51.0671L17.067 46.9156L20.283 51.044L16.8125 55.1954L13.5965 51.0671ZM17.5818 55.525L20.7805 51.6973L23.7651 55.525H17.5818ZM21.3184 51.0671L24.7484 46.9735L27.9298 51.0497L24.4997 55.1607L21.3184 51.0671ZM25.5987 46.7422H31.5449L28.4561 50.4253L25.5987 46.7422ZM25.2401 55.525L28.4388 51.6973L31.4234 55.525H25.2401ZM28.9767 51.0671L32.534 46.8116L35.8194 51.0497L32.2621 55.3053L28.9767 51.0671ZM33.5058 46.7422H39.4346L36.3632 50.4253L33.5058 46.7422ZM33.1413 55.525L36.34 51.6973L39.3073 55.525H33.1471H33.1413ZM39.9552 55.0567L36.8664 51.0671L39.9552 47.3666V55.0567ZM39.9552 45.6089H20.9829V35.6755L27.7562 41.3707L28.4908 40.5092L21.2663 34.4381L37.4217 20.7349V43.2961H23.4759V44.4294H38.5496V2.46386H23.4759V3.59712H37.4217V19.2431L20.9829 33.1835V14.0567L26.0672 18.6534L26.8423 17.8266L21.8853 13.3571H28.1206V12.2238H21.8853L26.8423 7.73123L26.0672 6.90441L20.9829 11.5011V5.95039H19.8492V11.5011L14.7649 6.90441L14.0129 7.73123L18.9527 12.2238H12.7173V13.3571H18.9527L14.0129 17.8266L14.7649 18.6534L19.8492 14.0567V33.2413L1.44962 17.7572V1.4867H39.9552V45.6147V45.6089Z" fill="white"/>
</svg>
