<svg width="206" height="57" viewBox="0 0 206 57" fill="none" xmlns="http://www.w3.org/2000/svg">
<path d="M202.029 51.0847L204.233 53.9641L204.302 52.7326L203.076 51.1021L204.47 49.3964L204.267 48.3672L202.029 51.0847Z" fill="#00A79D"/>
<path d="M167.37 51.073L165.172 53.9524L165.102 52.7209L166.329 51.0903L164.929 49.3847L165.131 48.3555L167.37 51.073Z" fill="#00A79D"/>
<path d="M181.784 43.2899V44.4232H166.71V24.3135L167.844 25.2675V43.2899H181.784Z" fill="#00A79D"/>
<path d="M181.784 2.46973V3.60299H167.844V15.7509L166.71 14.8027V2.46973H181.784Z" fill="#00A79D"/>
<path d="M169.169 49.0373L167.104 46.3545L168.087 46.3082L169.215 47.7768L170.557 46.2793L171.436 46.5106L169.169 49.0373Z" fill="#00A79D"/>
<path d="M170.343 56.1846L169.123 54.7448L167.989 56.1267L167.364 55.6121L169.111 53.4844L170.956 55.6584L170.343 56.1846Z" fill="#00A79D"/>
<path d="M177.064 49.0375L174.895 46.2217L175.983 46.3084L177.11 47.777L178.452 46.2795L179.453 46.3836L177.064 49.0375Z" fill="#00A79D"/>
<path d="M178.238 56.1846L177.018 54.7448L175.89 56.1267L175.26 55.6121L177.006 53.4844L178.857 55.6584L178.238 56.1846Z" fill="#00A79D"/>
<path d="M184.786 49.0373L182.744 46.3834L183.704 46.3082L184.832 47.7768L186.174 46.2793L187.059 46.5106L184.786 49.0373Z" fill="#00A79D"/>
<path d="M185.96 56.1846L184.74 54.7448L183.606 56.1267L182.981 55.6121L184.728 53.4844L186.573 55.6584L185.96 56.1846Z" fill="#00A79D"/>
<path d="M192.439 49.0373L190.501 46.5164L191.357 46.3082L192.485 47.7768L193.827 46.2793L194.758 46.4585L192.439 49.0373Z" fill="#00A79D"/>
<path d="M193.613 56.1846L192.392 54.7448L191.264 56.1267L190.64 55.6121L192.387 53.4844L194.232 55.6584L193.613 56.1846Z" fill="#00A79D"/>
<path d="M200.334 49.0373L198.339 46.4354L199.258 46.3082L200.386 47.7768L201.728 46.2793L202.538 46.5915L200.334 49.0373Z" fill="#00A79D"/>
<path d="M201.508 56.1846L200.294 54.7448L199.16 56.1267L198.535 55.6121L200.282 53.4844L202.127 55.6584L201.508 56.1846Z" fill="#00A79D"/>
<path d="M173.085 53.7786L175.161 51.0784L173.085 48.5459L170.968 51.0784L173.085 53.7786ZM174.328 51.09L173.073 52.7205L171.789 51.09L173.073 49.5577L174.328 51.09Z" fill="#00A79D"/>
<path d="M180.969 53.7786L183.045 51.0784L180.969 48.5459L178.846 51.0784L180.969 53.7786ZM182.218 51.09L180.963 52.7205L179.685 51.09L180.963 49.5577L182.218 51.09Z" fill="#00A79D"/>
<path d="M188.69 53.7786L190.767 51.0784L188.69 48.5459L186.573 51.0784L188.69 53.7786ZM189.94 51.09L188.685 52.7205L187.406 51.09L188.685 49.5577L189.94 51.09Z" fill="#00A79D"/>
<path d="M196.47 53.7786L198.547 51.0784L196.47 48.5459L194.353 51.0784L196.47 53.7786ZM197.72 51.09L196.465 52.7205L195.186 51.09L196.465 49.5577L197.72 51.09Z" fill="#00A79D"/>
<path d="M164.316 0.347656V56.6525H205.1V0.347656H164.316ZM165.449 19.2258L183.508 34.4381L176.358 40.5092L177.093 41.3707L183.849 35.6408V45.6089H165.449V19.2258ZM187.892 46.7422L184.803 50.4253L181.946 46.7422H187.892ZM180.164 46.7422L177.093 50.4253L174.218 46.7422H180.164ZM172.257 46.7422L169.186 50.4253L166.329 46.7422H172.257ZM165.449 46.9214L168.665 51.0497L165.449 54.8948V46.9214ZM165.97 55.525L169.169 51.6973L172.136 55.525H165.976H165.97ZM169.707 51.0671L173.264 46.8116L176.549 51.0497L172.992 55.3053L169.707 51.0671ZM173.86 55.525L177.058 51.6973L180.043 55.525H173.86ZM177.596 51.0671L181.067 46.9156L184.283 51.044L180.812 55.1954L177.596 51.0671ZM181.582 55.525L184.78 51.6973L187.765 55.525H181.582ZM185.318 51.0671L188.748 46.9735L191.93 51.0497L188.499 55.1607L185.318 51.0671ZM189.598 46.7422H195.545L192.456 50.4253L189.598 46.7422ZM189.24 55.525L192.439 51.6973L195.423 55.525H189.24ZM192.976 51.0671L196.534 46.8116L199.819 51.0497L196.262 55.3053L192.976 51.0671ZM197.506 46.7422H203.434L200.363 50.4253L197.506 46.7422ZM197.141 55.525L200.34 51.6973L203.307 55.525H197.147H197.141ZM203.955 55.0567L200.866 51.0671L203.955 47.3666V55.0567ZM203.955 45.6089H184.983V35.6755L191.756 41.3707L192.491 40.5092L185.266 34.4381L201.421 20.7349V43.2961H187.476V44.4294H202.549V2.46386H187.476V3.59712H201.421V19.2431L184.983 33.1835V14.0567L190.067 18.6534L190.842 17.8266L185.885 13.3571H192.12V12.2238H185.885L190.842 7.73123L190.067 6.90441L184.983 11.5011V5.95039H183.849V11.5011L178.765 6.90441L178.013 7.73123L182.952 12.2238H176.717V13.3571H182.952L178.013 17.8266L178.765 18.6534L183.849 14.0567V33.2413L165.449 17.7572V1.4867H203.955V45.6147V45.6089Z" fill="white"/>
<path d="M53.0678 20.8738C51.6217 20.8738 50.5516 20.5732 49.8575 19.9718C49.1692 19.3705 48.8279 18.4627 48.8395 17.2601C48.8395 16.8207 48.9147 16.1731 49.0709 15.3173H50.4707C50.3261 15.9996 50.2566 16.5431 50.2566 16.9479C50.2566 17.6822 50.4938 18.2372 50.9623 18.6073C51.4366 18.9773 52.1481 19.1681 53.1025 19.1681C53.9123 19.1681 54.5312 19.0698 54.9534 18.879C55.3757 18.6882 55.5897 18.4107 55.5897 18.0464C55.5897 17.873 55.5319 17.6301 55.422 17.3237L56.7697 17.0751C56.8796 17.5029 56.9374 17.8903 56.9374 18.243C56.9374 19.0756 56.6019 19.7232 55.9252 20.1858C55.2484 20.6483 54.2998 20.8738 53.0678 20.8738ZM51.801 23.389C51.535 23.389 51.3267 23.308 51.1648 23.1519C51.0086 22.99 50.9218 22.7934 50.9103 22.5506C50.9103 22.2962 50.9912 22.0938 51.159 21.9319C51.3209 21.77 51.535 21.6949 51.801 21.6949C52.0671 21.6949 52.2638 21.7758 52.4373 21.9319C52.605 22.088 52.6918 22.2962 52.6918 22.5506C52.6918 22.805 52.605 22.99 52.4373 23.1519C52.2696 23.308 52.0555 23.389 51.801 23.389ZM54.1668 23.389C53.9007 23.389 53.6925 23.308 53.5363 23.1519C53.3801 22.9958 53.2934 22.7934 53.2818 22.5506C53.2702 22.2962 53.3512 22.0938 53.5189 21.9319C53.6867 21.77 53.9065 21.6949 54.1668 21.6949C54.4271 21.6949 54.6295 21.7758 54.803 21.9319C54.9708 22.088 55.0575 22.2962 55.0575 22.5506C55.0575 22.805 54.9708 22.99 54.803 23.1519C54.6353 23.308 54.4213 23.389 54.1668 23.389ZM56.0756 17.8441L54.1841 17.3989V15.803L56.1739 16.1789H57.2613C57.3597 16.1789 57.4117 16.2251 57.4117 16.3118V17.6937C57.4117 17.792 57.3597 17.8441 57.2613 17.8441H56.0756ZM61.8887 16.1384L60.9979 15.4792C60.0898 14.8085 59.3899 14.3575 58.9098 14.1205C58.4298 13.8834 57.9497 13.7678 57.4754 13.7678C57.082 13.7678 56.6424 13.8487 56.1565 14.0164V12.6865C56.4515 12.5247 56.7581 12.3974 57.0762 12.3107C57.3944 12.224 57.6778 12.1777 57.9323 12.1777C58.2967 12.1777 58.6611 12.2529 59.0255 12.3974C59.3899 12.542 59.8237 12.7848 60.3154 13.1144C60.8071 13.444 61.4607 13.9181 62.2762 14.5483L61.8829 16.1442L61.8887 16.1384ZM57.2613 17.8441C57.163 17.8441 57.1109 17.792 57.1109 17.6937V16.3118C57.1109 16.2251 57.163 16.1789 57.2613 16.1789C57.8976 16.1789 58.5165 16.0806 59.1181 15.884C59.7196 15.6874 60.3617 15.3752 61.0442 14.9473L61.8829 16.1326C61.1483 16.5605 60.5526 16.89 60.0898 17.1271C59.6271 17.3642 59.1701 17.5434 58.7132 17.659C58.2562 17.7805 57.7703 17.8383 57.2555 17.8383L57.2613 17.8441ZM59.9799 20.7755C59.7254 20.7755 59.5172 20.6946 59.3552 20.5385C59.1875 20.3766 59.1007 20.18 59.0891 19.9371C59.0891 19.6827 59.1759 19.4804 59.3437 19.3185C59.5114 19.1566 59.7254 19.0814 59.9799 19.0814C60.2344 19.0814 60.4426 19.1624 60.6104 19.3185C60.7781 19.4746 60.8649 19.6827 60.8649 19.9371C60.8649 20.1915 60.7781 20.3766 60.6104 20.5385C60.4426 20.6946 60.2286 20.7755 59.9799 20.7755ZM63.1381 17.8441C62.5655 17.8441 62.0333 17.7631 61.5359 17.607C61.0384 17.4509 60.541 17.1907 60.0435 16.8438L60.4542 15.9707C60.836 16.0459 61.2582 16.1037 61.721 16.1326C62.1837 16.1673 62.6522 16.1846 63.1381 16.1846C63.2364 16.1846 63.2885 16.2309 63.2885 16.3176V17.6995C63.2885 17.7978 63.2364 17.8498 63.1381 17.8498V17.8441Z" fill="white"/>
<path d="M63.1381 17.8439C63.0397 17.8439 62.9877 17.7919 62.9877 17.6936V16.3117C62.9877 16.225 63.034 16.1787 63.1381 16.1787H64.7808C64.8791 16.1787 64.9312 16.225 64.9312 16.3117V17.6936C64.9312 17.7919 64.8791 17.8439 64.7808 17.8439H63.1381Z" fill="white"/>
<path d="M64.7808 17.8439C64.6824 17.8439 64.6304 17.7919 64.6304 17.6936V16.3117C64.6304 16.225 64.6766 16.1787 64.7808 16.1787H66.4235C66.5218 16.1787 66.5739 16.225 66.5739 16.3117V17.6936C66.5739 17.7919 66.5218 17.8439 66.4235 17.8439H64.7808Z" fill="white"/>
<path d="M66.4293 17.8437C66.331 17.8437 66.2789 17.7917 66.2789 17.6934V16.3115C66.2789 16.2247 66.3252 16.1785 66.4293 16.1785H66.921C67.4011 16.1785 67.7423 16.0918 67.939 15.9125C68.1357 15.7391 68.234 15.4153 68.234 14.9412V12.8539L69.7495 12.5879V14.9412C69.7495 15.8431 69.5123 16.5485 69.0322 17.0631C68.5521 17.5777 67.8522 17.8379 66.9152 17.8379H66.4235L66.4293 17.8437ZM67.8291 20.7752C67.563 20.7752 67.3548 20.6942 67.1986 20.5381C67.0367 20.3762 66.9557 20.1796 66.9441 19.9368C66.9441 19.6824 67.0251 19.48 67.1928 19.3181C67.3606 19.1562 67.5688 19.081 67.8349 19.081C68.101 19.081 68.2976 19.162 68.4712 19.3181C68.6389 19.4742 68.7257 19.6824 68.7257 19.9368C68.7257 20.1912 68.6389 20.3762 68.4712 20.5381C68.3034 20.6942 68.0894 20.7752 67.8349 20.7752H67.8291ZM71.1377 17.8437C70.3048 17.8437 69.6974 17.6124 69.3099 17.1556C68.9281 16.6931 68.7314 15.9588 68.7314 14.9527H69.7495C69.7495 15.2823 69.7957 15.5367 69.8825 15.7102C69.9693 15.8836 70.1139 16.0108 70.3105 16.0802C70.5072 16.1496 70.7848 16.1901 71.1319 16.1901H71.3806C71.4789 16.1901 71.531 16.2363 71.531 16.323V17.7049C71.531 17.8032 71.4789 17.8553 71.3806 17.8553H71.1319L71.1377 17.8437ZM70.2006 20.7752C69.9346 20.7752 69.7263 20.6942 69.5644 20.5381C69.4024 20.3762 69.3214 20.1796 69.3099 19.9368C69.2983 19.6824 69.3793 19.48 69.547 19.3181C69.7148 19.1562 69.9346 19.081 70.1948 19.081C70.4551 19.081 70.6576 19.162 70.8253 19.3181C70.9931 19.4742 71.0798 19.6824 71.0798 19.9368C71.0798 20.1912 70.9931 20.3762 70.8253 20.5381C70.6576 20.6942 70.4436 20.7752 70.1948 20.7752H70.2006Z" fill="white"/>
<path d="M71.3806 17.8434C71.2823 17.8434 71.2302 17.7914 71.2302 17.6931V16.3112C71.2302 16.2245 71.2765 16.1782 71.3806 16.1782H71.612C72.0632 16.1782 72.3755 16.0857 72.5606 15.9065C72.7399 15.7272 72.8325 15.4034 72.8325 14.9467V12.2985L74.3479 12.0499V14.9467C74.3479 15.9238 74.1339 16.6466 73.7117 17.1265C73.2894 17.6064 72.63 17.8434 71.7277 17.8434H71.3806ZM72.4044 10.9051C72.1383 10.9051 71.9301 10.8299 71.7739 10.6738C71.612 10.5177 71.531 10.3153 71.5194 10.0667C71.5194 9.82383 71.6004 9.62146 71.7682 9.45956C71.9359 9.29767 72.1441 9.21094 72.4102 9.21094C72.6763 9.21094 72.8729 9.29189 73.0465 9.45956C73.22 9.62724 73.301 9.82961 73.301 10.0667C73.301 10.3037 73.2142 10.5234 73.0465 10.6738C72.8787 10.8241 72.6647 10.9051 72.4102 10.9051H72.4044ZM74.7702 10.9051C74.5041 10.9051 74.2959 10.8299 74.1339 10.6738C73.9719 10.5177 73.891 10.3153 73.8794 10.0667C73.8678 9.82383 73.9488 9.62146 74.1166 9.45956C74.2843 9.29767 74.5041 9.21094 74.7644 9.21094C75.0247 9.21094 75.2271 9.29189 75.3949 9.45956C75.5626 9.62724 75.6494 9.82961 75.6494 10.0667C75.6494 10.3037 75.5626 10.5234 75.3949 10.6738C75.2271 10.8241 75.0131 10.9051 74.7644 10.9051H74.7702Z" fill="white"/>
<path d="M77.078 17.8441V8.05527L78.5761 7.80664V17.8441H77.078Z" fill="white"/>
<path d="M79.0505 20.8733L78.8018 19.2139H79.3628C80.0107 19.2139 80.4907 19.0578 80.8089 18.7514C81.127 18.4449 81.289 17.9766 81.289 17.3521V13.669L82.0814 13.0446L82.8044 13.6343V17.3521C82.8044 18.549 82.5152 19.4336 81.9426 20.006C81.3642 20.5842 80.485 20.8676 79.2992 20.8676H79.0505V20.8733ZM82.0814 14.6866V13.0446H86.3097V14.6866H82.0814ZM85.1239 10.7722C84.8578 10.7722 84.6496 10.6971 84.4934 10.541C84.3315 10.3848 84.2505 10.1825 84.2389 9.93386C84.2389 9.69101 84.3199 9.48865 84.4876 9.32675C84.6554 9.16485 84.8636 9.07812 85.1297 9.07812C85.3958 9.07812 85.5924 9.15907 85.766 9.32675C85.9395 9.49443 86.0205 9.6968 86.0205 9.93386C86.0205 10.1709 85.9337 10.3906 85.766 10.541C85.5982 10.6913 85.3842 10.7722 85.1297 10.7722H85.1239ZM88.1838 17.8436C87.2872 17.8436 86.622 17.6065 86.1998 17.1266C85.7775 16.6525 85.5635 15.924 85.5635 14.9468V12.0847L87.079 11.8361V14.9468C87.079 15.4094 87.1715 15.7274 87.3508 15.9066C87.5301 16.0859 87.8483 16.1784 88.2994 16.1784H88.4498C88.5482 16.1784 88.6002 16.2246 88.6002 16.3114V17.6933C88.6002 17.7916 88.5482 17.8436 88.4498 17.8436H88.1838ZM87.4954 10.7722C87.2294 10.7722 87.0211 10.6971 86.8592 10.541C86.6972 10.3848 86.6162 10.1825 86.6047 9.93386C86.5931 9.69101 86.6741 9.48865 86.8418 9.32675C87.0096 9.16485 87.2294 9.07812 87.4896 9.07812C87.7499 9.07812 87.9524 9.15907 88.1201 9.32675C88.2879 9.49443 88.3746 9.6968 88.3746 9.93386C88.3746 10.1709 88.2879 10.3906 88.1201 10.541C87.9524 10.6913 87.7384 10.7722 87.4896 10.7722H87.4954Z" fill="white"/>
<path d="M88.4498 17.8439C88.3515 17.8439 88.2994 17.7919 88.2994 17.6936V16.3117C88.2994 16.225 88.3457 16.1787 88.4498 16.1787H90.0925C90.1909 16.1787 90.2429 16.225 90.2429 16.3117V17.6936C90.2429 17.7919 90.1909 17.8439 90.0925 17.8439H88.4498Z" fill="white"/>
<path d="M90.0925 17.8439C89.9942 17.8439 89.9421 17.7919 89.9421 17.6936V16.3117C89.9421 16.225 89.9884 16.1787 90.0925 16.1787C90.4569 16.1787 90.7346 16.144 90.937 16.0688C91.1395 15.9995 91.2841 15.8723 91.3708 15.693C91.4576 15.5138 91.5039 15.2652 91.5039 14.9471V13.2877L93.0193 13.0391V14.9471C93.0193 15.8491 92.7764 16.5545 92.2847 17.0691C91.7989 17.5837 91.0643 17.8439 90.0867 17.8439H90.0925ZM94.6216 17.8439C93.7655 17.8439 93.1177 17.5953 92.6781 17.1038C92.2385 16.6124 92.0187 15.8896 92.0187 14.9471H93.0251C93.0251 15.3403 93.135 15.6468 93.3606 15.8607C93.5862 16.0746 93.9159 16.1787 94.3555 16.1787C94.7951 16.1787 95.1364 16.0746 95.3504 15.8723C95.5644 15.6699 95.6685 15.3577 95.6685 14.9414V12.8541L97.1666 12.5881V14.9414C97.1666 15.5427 97.0567 16.0631 96.8369 16.5025C96.6171 16.9419 96.3106 17.2715 95.923 17.497C95.5355 17.7225 95.0959 17.8323 94.6158 17.8323L94.6216 17.8439ZM98.6821 17.8439C97.8897 17.8439 97.2765 17.5837 96.8311 17.0691C96.3858 16.5545 96.166 15.8491 96.166 14.9471H97.1724C97.1724 15.3288 97.2939 15.6352 97.5426 15.8491C97.7913 16.0631 98.1095 16.1787 98.5086 16.1787C99.2779 16.1787 99.6596 15.7682 99.6596 14.9471V12.4146L101.175 12.166V14.9471C101.175 15.8896 100.961 16.6066 100.545 17.1038C100.122 17.5953 99.5035 17.8439 98.6937 17.8439H98.6821Z" fill="white"/>
<path d="M102.176 17.8441L102.407 16.1847H106.815C106.913 16.1847 106.965 16.231 106.965 16.3177V17.6996C106.965 17.7979 106.913 17.8499 106.815 17.8499H102.176V17.8441ZM105.253 16.9768L104.102 9.9055L105.536 9.34464L106.178 13.5886C106.242 14.0049 106.306 14.4964 106.369 15.063C106.433 15.6296 106.479 16.1385 106.525 16.601L105.259 16.9768H105.253ZM106.751 17.8441C106.653 17.8441 106.601 17.7921 106.601 17.6938V16.3119C106.601 16.2252 106.647 16.1789 106.751 16.1789H106.948C107.399 16.1789 107.717 16.0864 107.902 15.9072C108.087 15.7279 108.18 15.4041 108.18 14.9474V8.07261L109.678 7.80664V14.9474C109.678 15.9245 109.458 16.6473 109.03 17.1272C108.596 17.6071 107.925 17.8441 107.011 17.8441H106.745H106.751Z" fill="white"/>
<path d="M111.621 17.8441V8.05527L113.12 7.80664V17.8441H111.621Z" fill="white"/>
<path d="M120.587 17.8437C119.523 17.8437 118.73 17.6009 118.21 17.121C117.689 16.6411 117.429 15.9935 117.429 15.1782C117.429 14.8718 117.452 14.5364 117.504 14.1722C117.556 13.8079 117.62 13.4321 117.712 13.0389H119.112C118.979 13.6633 118.915 14.1953 118.915 14.6347C118.915 15.1609 119.083 15.5483 119.418 15.8027C119.754 16.0571 120.275 16.1785 120.992 16.1785H123.41C123.508 16.1785 123.56 16.2247 123.56 16.3115V17.6934C123.56 17.7917 123.514 17.8437 123.41 17.8437H120.593H120.587ZM122.594 20.7752C122.34 20.7752 122.131 20.6942 121.969 20.5381C121.807 20.3762 121.715 20.1796 121.703 19.9368C121.703 19.6824 121.79 19.48 121.958 19.3181C122.125 19.1562 122.34 19.081 122.588 19.081C122.837 19.081 123.051 19.162 123.224 19.3181C123.392 19.4742 123.479 19.6824 123.479 19.9368C123.479 20.1912 123.392 20.3762 123.224 20.5381C123.057 20.6942 122.843 20.7752 122.588 20.7752H122.594ZM123.404 17.8437C123.305 17.8437 123.253 17.7917 123.253 17.6934V16.3115C123.253 16.2247 123.3 16.1785 123.404 16.1785H123.895C124.376 16.1785 124.717 16.0918 124.913 15.9125C125.11 15.7391 125.208 15.4153 125.208 14.9412V12.8539L126.724 12.5879V14.9412C126.724 15.8431 126.487 16.5485 126.007 17.0631C125.527 17.5777 124.827 17.8379 123.89 17.8379H123.398L123.404 17.8437ZM128.106 17.8437C127.273 17.8437 126.666 17.6124 126.279 17.1556C125.897 16.6931 125.7 15.9588 125.7 14.9527H126.718C126.718 15.2823 126.764 15.5367 126.851 15.7102C126.938 15.8836 127.083 16.0108 127.279 16.0802C127.476 16.1496 127.748 16.1901 128.101 16.1901H128.349C128.448 16.1901 128.5 16.2363 128.5 16.323V17.7049C128.5 17.8032 128.453 17.8553 128.349 17.8553H128.101L128.106 17.8437Z" fill="white"/>
<path d="M128.355 17.8441C128.257 17.8441 128.205 17.7921 128.205 17.6938V16.3119C128.205 16.2251 128.251 16.1789 128.355 16.1789H128.847C129.327 16.1789 129.668 16.0922 129.865 15.9129C130.062 15.7395 130.16 15.4157 130.16 14.9415V12.8542L131.675 12.5883V14.9415C131.675 15.8435 131.438 16.5489 130.958 17.0635C130.478 17.5781 129.778 17.8383 128.841 17.8383H128.349L128.355 17.8441ZM129.691 11.4666C129.425 11.4666 129.217 11.3914 129.055 11.2353C128.893 11.0792 128.812 10.8768 128.801 10.6282C128.801 10.3853 128.882 10.183 129.049 10.0211C129.211 9.85919 129.425 9.77246 129.691 9.77246C129.957 9.77246 130.154 9.85341 130.328 10.0211C130.495 10.183 130.582 10.3911 130.582 10.6282C130.582 10.8653 130.495 11.085 130.328 11.2353C130.16 11.3914 129.946 11.4666 129.691 11.4666ZM133.064 17.8441C132.231 17.8441 131.623 17.6128 131.236 17.156C130.854 16.6935 130.657 15.9592 130.657 14.9531H131.675C131.675 15.2827 131.722 15.5371 131.808 15.7105C131.895 15.884 132.04 16.0112 132.236 16.0806C132.433 16.15 132.711 16.1904 133.058 16.1904H133.307C133.405 16.1904 133.457 16.2367 133.457 16.3234V17.7053C133.457 17.8036 133.405 17.8557 133.307 17.8557H133.058L133.064 17.8441ZM132.057 11.4666C131.791 11.4666 131.583 11.3914 131.427 11.2353C131.265 11.0792 131.184 10.8768 131.172 10.6282C131.161 10.3853 131.242 10.183 131.409 10.0211C131.577 9.85919 131.797 9.77246 132.057 9.77246C132.317 9.77246 132.52 9.85341 132.693 10.0211C132.861 10.183 132.948 10.3911 132.948 10.6282C132.948 10.8653 132.861 11.085 132.693 11.2353C132.526 11.3914 132.312 11.4666 132.057 11.4666Z" fill="white"/>
<path d="M133.312 17.8437C133.214 17.8437 133.162 17.7916 133.162 17.6934V16.3115C133.162 16.2247 133.208 16.1785 133.312 16.1785H134.955C135.053 16.1785 135.105 16.2247 135.105 16.3115V17.6934C135.105 17.7916 135.053 17.8437 134.955 17.8437H133.312ZM134.92 17.8437C134.822 17.8437 134.77 17.7916 134.77 17.6934V16.3288C134.77 16.2421 134.816 16.1958 134.92 16.1958H135.331C136.042 16.1958 136.598 16.0744 136.985 15.8316C137.373 15.5887 137.569 15.2534 137.569 14.8139C137.569 14.334 137.274 13.9062 136.69 13.5303C136.106 13.1603 135.181 12.8249 133.92 12.5243V10.4832L139.287 7.04297V9.11291L134.562 11.5298L134.411 11.2522C135.389 11.4257 136.222 11.6859 136.91 12.0328C137.598 12.3797 138.131 12.7902 138.489 13.2644C138.854 13.7385 139.033 14.2589 139.033 14.8197C139.033 15.7622 138.703 16.5023 138.038 17.0342C137.373 17.5662 136.47 17.8321 135.331 17.8321H134.92V17.8437ZM140.438 17.8437C139.947 17.8437 139.484 17.7859 139.056 17.6644C138.628 17.543 138.2 17.3522 137.772 17.0862L138.119 15.687C138.582 15.872 138.975 16.005 139.305 16.0744C139.634 16.1438 140.01 16.1843 140.438 16.1843C140.537 16.1843 140.589 16.2305 140.589 16.3172V17.6991C140.589 17.7974 140.543 17.8495 140.438 17.8495V17.8437Z" fill="white"/>
<path d="M140.438 17.844C140.34 17.844 140.288 17.792 140.288 17.6937V16.3118C140.288 16.225 140.334 16.1788 140.438 16.1788C140.976 16.1788 141.456 16.0747 141.884 15.8666L142.492 17.0981C142.26 17.3178 141.96 17.4913 141.595 17.6243C141.225 17.7573 140.843 17.8266 140.433 17.8382L140.438 17.844ZM144.025 17.844C143.192 17.844 142.515 17.6011 142 17.1212C141.485 16.6413 141.225 16.0053 141.225 15.2132C141.225 14.6408 141.341 14.1262 141.578 13.6694C141.815 13.2068 142.127 12.8426 142.515 12.5766C142.902 12.3106 143.319 12.1719 143.758 12.1719C144.372 12.1719 144.869 12.3453 145.239 12.698C145.609 13.0507 145.922 13.6 146.159 14.3575L146.425 15.2479C146.535 15.6006 146.662 15.8434 146.813 15.9822C146.963 16.121 147.16 16.1903 147.414 16.1903C147.512 16.1903 147.565 16.2366 147.565 16.3233V17.7052C147.565 17.8035 147.518 17.8556 147.414 17.8556C146.975 17.8556 146.57 17.7283 146.205 17.4797C145.835 17.2253 145.575 16.8495 145.424 16.3465L144.996 14.9472C144.886 14.5656 144.724 14.2649 144.505 14.0568C144.285 13.8486 144.025 13.7446 143.73 13.7446C143.4 13.7446 143.116 13.8833 142.879 14.1551C142.642 14.4268 142.526 14.7564 142.526 15.1438C142.526 15.5312 142.642 15.803 142.879 16.0053C143.116 16.2077 143.452 16.3118 143.892 16.3118C144.175 16.3118 144.482 16.2771 144.805 16.2135C145.129 16.1499 145.419 16.0574 145.667 15.9475L146.147 17.2774C145.852 17.4508 145.517 17.5954 145.141 17.6994C144.771 17.8035 144.395 17.8556 144.025 17.8556V17.844Z" fill="white"/>
<path d="M147.414 17.8441C147.316 17.8441 147.264 17.7921 147.264 17.6938V16.3119C147.264 16.2252 147.31 16.1789 147.414 16.1789H147.611C148.073 16.1789 148.392 16.0864 148.571 15.9072C148.75 15.7279 148.843 15.4041 148.843 14.9474V8.07261L150.341 7.80664V14.9474C150.341 15.9245 150.121 16.6473 149.693 17.1272C149.259 17.6071 148.588 17.8441 147.674 17.8441H147.408H147.414Z" fill="white"/>
<path d="M152.284 17.8441V8.05527L153.783 7.80664V17.8441H152.284Z" fill="white"/>
<path d="M3.41604 37.1724C2.92438 37.1724 2.48478 37.0799 2.1088 36.8949C1.73283 36.7099 1.43205 36.4439 1.21803 36.1028C1.00402 35.7616 0.899902 35.3627 0.899902 34.9001C0.899902 34.1889 1.20647 33.5414 1.81381 32.9574C2.42115 32.3734 3.29457 31.8473 4.42249 31.3789L4.71749 32.6972C3.04006 33.3332 2.20135 34.0213 2.20135 34.7556C2.20135 35.0273 2.31125 35.2413 2.53105 35.3916C2.75085 35.5419 3.04585 35.6113 3.42182 35.6113C3.67633 35.6113 3.90769 35.594 4.1275 35.5535C4.3473 35.513 4.59023 35.4494 4.85052 35.3627L5.29591 36.4786C5.02405 36.6983 4.72327 36.866 4.39935 36.9874C4.07544 37.1088 3.75152 37.1667 3.42182 37.1667L3.41604 37.1724ZM2.80869 29.2801C2.54262 29.2801 2.33439 29.2049 2.17821 29.0488C2.01626 28.8927 1.93528 28.6903 1.92371 28.4417C1.92371 28.1988 2.00469 27.9965 2.17243 27.8346C2.34017 27.6727 2.5484 27.5859 2.81448 27.5859C3.08055 27.5859 3.27722 27.6669 3.45074 27.8346C3.62427 28.0022 3.70525 28.2046 3.70525 28.4417C3.70525 28.6787 3.61849 28.8984 3.45074 29.0488C3.283 29.1991 3.06898 29.2801 2.81448 29.2801H2.80869ZM5.17444 29.2801C4.90837 29.2801 4.70013 29.2049 4.53817 29.0488C4.37622 28.8927 4.29524 28.6903 4.28367 28.4417C4.2721 28.1988 4.35308 27.9965 4.52082 27.8346C4.68856 27.6727 4.90836 27.5859 5.16865 27.5859C5.42894 27.5859 5.63139 27.6669 5.79913 27.8346C5.96688 28.0022 6.05364 28.2046 6.05364 28.4417C6.05364 28.6787 5.96688 28.8984 5.79913 29.0488C5.63139 29.1991 5.41738 29.2801 5.16865 29.2801H5.17444ZM6.90392 37.5887C6.00158 37.5887 5.34218 37.3517 4.91993 36.8718C4.49768 36.3977 4.28367 35.6691 4.28367 34.692V30.6793L5.79913 30.4307V34.692C5.79913 35.1545 5.89168 35.4725 6.07099 35.6518C6.2503 35.831 6.56843 35.9235 7.0196 35.9235H7.18156C7.27989 35.9235 7.33195 35.9698 7.33195 36.0565V37.4384C7.33195 37.5367 7.28568 37.5887 7.18156 37.5887H6.90392Z" fill="white"/>
<path d="M7.18738 37.589C7.08905 37.589 7.03699 37.537 7.03699 37.4387V36.0568C7.03699 35.9701 7.08326 35.9238 7.18738 35.9238H8.8301C8.92843 35.9238 8.98048 35.9701 8.98048 36.0568V37.4387C8.98048 37.537 8.92843 37.589 8.8301 37.589H7.18738Z" fill="white"/>
<path d="M8.83008 37.589C8.73175 37.589 8.67969 37.537 8.67969 37.4387V36.0568C8.67969 35.9701 8.72596 35.9238 8.83008 35.9238H10.4728C10.5711 35.9238 10.6232 35.9701 10.6232 36.0568V37.4387C10.6232 37.537 10.5711 37.589 10.4728 37.589H8.83008Z" fill="white"/>
<path d="M10.4728 37.589C10.3744 37.589 10.3224 37.537 10.3224 37.4387V36.0568C10.3224 35.9701 10.3687 35.9238 10.4728 35.9238H12.1155C12.2138 35.9238 12.2659 35.9701 12.2659 36.0568V37.4387C12.2659 37.537 12.2138 37.589 12.1155 37.589H10.4728Z" fill="white"/>
<path d="M12.1213 37.589C12.023 37.589 11.9709 37.537 11.9709 37.4387V36.0568C11.9709 35.9701 12.0172 35.9238 12.1213 35.9238H13.7641C13.8624 35.9238 13.9144 35.9701 13.9144 36.0568V37.4387C13.9144 37.537 13.8624 37.589 13.7641 37.589H12.1213Z" fill="white"/>
<path d="M13.764 37.589C13.6657 37.589 13.6136 37.537 13.6136 37.4387V36.0568C13.6136 35.9701 13.6599 35.9238 13.764 35.9238H15.4068C15.5051 35.9238 15.5571 35.9701 15.5571 36.0568V37.4387C15.5571 37.537 15.5051 37.589 15.4068 37.589H13.764Z" fill="white"/>
<path d="M15.4125 37.589C15.3141 37.589 15.2621 37.537 15.2621 37.4387V36.0568C15.2621 35.9701 15.3084 35.9238 15.4125 35.9238H17.0552C17.1535 35.9238 17.2056 35.9701 17.2056 36.0568V37.4387C17.2056 37.537 17.1535 37.589 17.0552 37.589H15.4125Z" fill="white"/>
<path d="M17.061 37.589C16.9627 37.589 16.9106 37.537 16.9106 37.4387V36.0568C16.9106 35.9701 16.9569 35.9238 17.061 35.9238H18.7038C18.8021 35.9238 18.8541 35.9701 18.8541 36.0568V37.4387C18.8541 37.537 18.8021 37.589 18.7038 37.589H17.061Z" fill="white"/>
<path d="M18.7037 37.589C18.6054 37.589 18.5533 37.537 18.5533 37.4387V36.0568C18.5533 35.9701 18.5996 35.9238 18.7037 35.9238H20.3465C20.4448 35.9238 20.4968 35.9701 20.4968 36.0568V37.4387C20.4968 37.537 20.4448 37.589 20.3465 37.589H18.7037Z" fill="white"/>
<path d="M20.3523 37.589C20.254 37.589 20.2019 37.537 20.2019 37.4387V36.0568C20.2019 35.9701 20.2482 35.9238 20.3523 35.9238H21.995C22.0933 35.9238 22.1454 35.9701 22.1454 36.0568V37.4387C22.1454 37.537 22.0933 37.589 21.995 37.589H20.3523Z" fill="white"/>
<path d="M21.995 37.589C21.8967 37.589 21.8446 37.537 21.8446 37.4387V36.0568C21.8446 35.9701 21.8909 35.9238 21.995 35.9238H23.6377C23.736 35.9238 23.7881 35.9701 23.7881 36.0568V37.4387C23.7881 37.537 23.736 37.589 23.6377 37.589H21.995Z" fill="white"/>
<path d="M23.6434 37.589C23.5451 37.589 23.493 37.537 23.493 37.4387V36.0568C23.493 35.9701 23.5393 35.9238 23.6434 35.9238H25.2861C25.3845 35.9238 25.4365 35.9701 25.4365 36.0568V37.4387C25.4365 37.537 25.3845 37.589 25.2861 37.589H23.6434Z" fill="white"/>
<path d="M25.2861 37.589C25.1878 37.589 25.1357 37.537 25.1357 37.4387V36.0568C25.1357 35.9701 25.182 35.9238 25.2861 35.9238H26.9288C27.0272 35.9238 27.0792 35.9701 27.0792 36.0568V37.4387C27.0792 37.537 27.0272 37.589 26.9288 37.589H25.2861Z" fill="white"/>
<path d="M26.9347 37.5891C26.8364 37.5891 26.7843 37.5371 26.7843 37.4388V36.0569C26.7843 35.9702 26.8306 35.9239 26.9347 35.9239H28.5774C28.6757 35.9239 28.7278 35.9702 28.7278 36.0569V37.4388C28.7278 37.5371 28.6757 37.5891 28.5774 37.5891H26.9347ZM33.2048 35.8776L32.3314 35.2185C31.4117 34.5478 30.706 34.0968 30.2259 33.8597C29.7458 33.6227 29.2657 33.507 28.7914 33.507C28.3981 33.507 27.9585 33.588 27.4726 33.7557V32.4258C27.7676 32.2639 28.0742 32.1367 28.3923 32.05C28.7104 31.9632 28.9939 31.917 29.2484 31.917C29.6128 31.917 29.9772 31.9922 30.3416 32.1367C30.706 32.2813 31.1398 32.5241 31.6315 32.8537C32.1231 33.1832 32.7768 33.6574 33.5923 34.2876L33.199 35.8834L33.2048 35.8776ZM28.5774 37.5891C28.4791 37.5891 28.427 37.5371 28.427 37.4388V36.0569C28.427 35.9702 28.4791 35.9239 28.5774 35.9239C29.2137 35.9239 29.8326 35.8256 30.4399 35.629C31.0415 35.4324 31.6835 35.1202 32.3661 34.6923L33.2048 35.8776C32.4702 36.3055 31.8744 36.6351 31.4117 36.8721C30.9489 37.1092 30.492 37.2884 30.035 37.4041C29.5781 37.5255 29.0922 37.5833 28.5774 37.5833V37.5891Z" fill="white"/>
<path d="M37.6934 37.5893C36.7968 37.5893 36.1316 37.3522 35.7094 36.8723C35.2871 36.3982 35.0731 35.6696 35.0731 34.6925V27.8177L36.5712 27.5518V34.6925C36.5712 35.155 36.6638 35.4731 36.8489 35.6523C37.034 35.8315 37.3521 35.924 37.8033 35.924H37.971C38.0693 35.924 38.1214 35.9703 38.1214 36.057V37.4389C38.1214 37.5372 38.0693 37.5893 37.971 37.5893H37.6934Z" fill="white"/>
<path d="M37.9767 37.589C37.8783 37.589 37.8263 37.537 37.8263 37.4387V36.0568C37.8263 35.9701 37.8726 35.9238 37.9767 35.9238H39.6194C39.7177 35.9238 39.7698 35.9701 39.7698 36.0568V37.4387C39.7698 37.537 39.7177 37.589 39.6194 37.589H37.9767Z" fill="white"/>
<path d="M39.6194 37.589C39.5211 37.589 39.469 37.537 39.469 37.4387V36.0568C39.469 35.9701 39.5153 35.9238 39.6194 35.9238H41.2621C41.3604 35.9238 41.4125 35.9701 41.4125 36.0568V37.4387C41.4125 37.537 41.3604 37.589 41.2621 37.589H39.6194Z" fill="white"/>
<path d="M41.2679 37.5889C41.1696 37.5889 41.1176 37.5369 41.1176 37.4386V36.0567C41.1176 35.9699 41.1638 35.9237 41.2679 35.9237H41.4993C41.9505 35.9237 42.2628 35.8312 42.4479 35.6519C42.6272 35.4727 42.7198 35.1489 42.7198 34.6921V32.6048L44.2352 32.3389V34.6921C44.2352 35.3166 44.1196 35.8485 43.8882 36.288C43.6568 36.7274 43.3445 37.0512 42.9396 37.2651C42.5405 37.479 42.0835 37.5831 41.5629 37.5831H41.2679V37.5889ZM43.4544 40.5146C43.1999 40.5146 42.9916 40.4336 42.8297 40.2775C42.6619 40.1156 42.5752 39.919 42.5636 39.6762C42.5636 39.4218 42.6504 39.2194 42.8181 39.0575C42.9859 38.8956 43.1999 38.8205 43.4544 38.8205C43.7089 38.8205 43.9171 38.9014 44.0906 39.0575C44.2584 39.2136 44.3451 39.4218 44.3451 39.6762C44.3451 39.9306 44.2584 40.1156 44.0906 40.2775C43.9229 40.4336 43.7089 40.5146 43.4544 40.5146ZM45.6292 37.5889C44.75 37.5889 44.1138 37.3576 43.7089 36.9008C43.3098 36.4383 43.1073 35.704 43.1073 34.6979H44.2237C44.2237 35.0275 44.27 35.2819 44.3567 35.4553C44.4435 35.6288 44.5881 35.756 44.7847 35.8254C44.9814 35.8948 45.2648 35.9353 45.6235 35.9353C45.7218 35.9353 45.7738 35.9815 45.7738 36.0682V37.4501C45.7738 37.5484 45.7218 37.6005 45.6235 37.6005L45.6292 37.5889Z" fill="white"/>
<path d="M45.6293 37.589C45.5309 37.589 45.4789 37.537 45.4789 37.4387V36.0568C45.4789 35.9701 45.5252 35.9238 45.6293 35.9238H47.272C47.3703 35.9238 47.4224 35.9701 47.4224 36.0568V37.4387C47.4224 37.537 47.3703 37.589 47.272 37.589H45.6293Z" fill="white"/>
<path d="M47.272 37.5893C47.1736 37.5893 47.1216 37.5372 47.1216 37.4389V36.057C47.1216 35.9703 47.1679 35.924 47.272 35.924H47.4686C47.9314 35.924 48.2495 35.8315 48.4288 35.6523C48.6081 35.4731 48.7007 35.1493 48.7007 34.6925V27.8177L50.1988 27.5518V34.6925C50.1988 35.6696 49.979 36.3924 49.551 36.8723C49.1171 37.3522 48.4462 37.5893 47.5323 37.5893H47.2662H47.272Z" fill="white"/>
<path d="M52.1423 37.5893V27.8004L53.6404 27.5518V37.5893H52.1423Z" fill="white"/>
<path d="M60.5525 37.1724C60.0609 37.1724 59.6213 37.0799 59.2453 36.8949C58.8693 36.7099 58.5685 36.4439 58.3545 36.1028C58.1405 35.7616 58.0364 35.3627 58.0364 34.9001C58.0364 34.1889 58.3429 33.5414 58.9503 32.9574C59.5576 32.3734 60.431 31.8473 61.559 31.3789L61.854 32.6972C60.1765 33.3332 59.3378 34.0213 59.3378 34.7556C59.3378 35.0273 59.4477 35.2413 59.6675 35.3916C59.8873 35.5419 60.1823 35.6113 60.5583 35.6113C60.8128 35.6113 61.0442 35.594 61.264 35.5535C61.4838 35.513 61.7267 35.4494 61.987 35.3627L62.4324 36.4786C62.1605 36.6983 61.8597 36.866 61.5358 36.9874C61.2119 37.1088 60.888 37.1667 60.5583 37.1667L60.5525 37.1724ZM59.9452 29.2801C59.6791 29.2801 59.4709 29.2049 59.3147 29.0488C59.1527 28.8927 59.0718 28.6903 59.0602 28.4417C59.0602 28.1988 59.1412 27.9965 59.3089 27.8346C59.4766 27.6727 59.6849 27.5859 59.951 27.5859C60.217 27.5859 60.4137 27.6669 60.5872 27.8346C60.7607 28.0022 60.8417 28.2046 60.8417 28.4417C60.8417 28.6787 60.755 28.8984 60.5872 29.0488C60.4195 29.1991 60.2055 29.2801 59.951 29.2801H59.9452ZM62.3167 29.2801C62.0506 29.2801 61.8424 29.2049 61.6804 29.0488C61.5185 28.8927 61.4375 28.6903 61.4259 28.4417C61.4144 28.1988 61.4953 27.9965 61.6631 27.8346C61.8308 27.6727 62.0506 27.5859 62.3109 27.5859C62.5712 27.5859 62.7736 27.6669 62.9414 27.8346C63.1091 28.0022 63.1959 28.2046 63.1959 28.4417C63.1959 28.6787 63.1091 28.8984 62.9414 29.0488C62.7736 29.1991 62.5596 29.2801 62.3109 29.2801H62.3167ZM64.0404 37.5887C63.1381 37.5887 62.4787 37.3517 62.0564 36.8718C61.6342 36.3977 61.4201 35.6691 61.4201 34.692V30.6793L62.9356 30.4307V34.692C62.9356 35.1545 63.0282 35.4725 63.2075 35.6518C63.3868 35.831 63.7049 35.9235 64.1561 35.9235H64.318C64.4164 35.9235 64.4684 35.9698 64.4684 36.0565V37.4384C64.4684 37.5367 64.4222 37.5887 64.318 37.5887H64.0404Z" fill="white"/>
<path d="M64.3239 37.589C64.2255 37.589 64.1735 37.537 64.1735 37.4387V36.0568C64.1735 35.9701 64.2197 35.9238 64.3239 35.9238H65.9666C66.0649 35.9238 66.117 35.9701 66.117 36.0568V37.4387C66.117 37.537 66.0649 37.589 65.9666 37.589H64.3239Z" fill="white"/>
<path d="M65.9666 37.589C65.8682 37.589 65.8162 37.537 65.8162 37.4387V36.0568C65.8162 35.9701 65.8624 35.9238 65.9666 35.9238H67.6093C67.7076 35.9238 67.7597 35.9701 67.7597 36.0568V37.4387C67.7597 37.537 67.7076 37.589 67.6093 37.589H65.9666Z" fill="white"/>
<path d="M67.6151 37.589C67.5168 37.589 67.4647 37.537 67.4647 37.4387V36.0568C67.4647 35.9701 67.511 35.9238 67.6151 35.9238H69.2578C69.3562 35.9238 69.4082 35.9701 69.4082 36.0568V37.4387C69.4082 37.537 69.3562 37.589 69.2578 37.589H67.6151Z" fill="white"/>
<path d="M69.2577 37.589C69.1594 37.589 69.1073 37.537 69.1073 37.4387V36.0568C69.1073 35.9701 69.1536 35.9238 69.2577 35.9238H70.9004C70.9987 35.9238 71.0508 35.9701 71.0508 36.0568V37.4387C71.0508 37.537 70.9987 37.589 70.9004 37.589H69.2577Z" fill="white"/>
<path d="M70.9062 37.589C70.8079 37.589 70.7559 37.537 70.7559 37.4387V36.0568C70.7559 35.9701 70.8021 35.9238 70.9062 35.9238H72.549C72.6473 35.9238 72.6994 35.9701 72.6994 36.0568V37.4387C72.6994 37.537 72.6473 37.589 72.549 37.589H70.9062Z" fill="white"/>
<path d="M72.5316 37.5891C72.4448 37.5891 72.3986 37.5371 72.3986 37.4388V36.0742C72.3986 35.9875 72.4448 35.9412 72.5316 35.9412C73.0059 35.9412 73.5033 35.9297 74.0355 35.9065C74.5676 35.8834 74.9494 35.8545 75.1808 35.8082L75.3948 35.9875C75.9212 35.8429 76.3318 35.6348 76.621 35.3515C76.9103 35.0739 77.0549 34.7559 77.0549 34.4032C77.0549 34.0216 76.9334 33.7152 76.6904 33.4839C76.4475 33.2526 76.1583 33.137 75.817 33.137C75.4758 33.137 75.1981 33.2468 74.9783 33.4723C74.7585 33.6978 74.6486 33.9985 74.6486 34.3685C74.6486 34.6981 74.7932 34.9988 75.0767 35.2705C75.3601 35.5423 75.7303 35.7273 76.1814 35.814C76.7309 35.8603 77.2457 35.8892 77.7374 35.9065C78.2233 35.9239 78.7091 35.9297 79.195 35.9297C79.2818 35.9297 79.328 35.9759 79.328 36.0627V37.4272C79.328 37.5255 79.2818 37.5775 79.195 37.5775C78.3968 37.5775 77.6622 37.5081 77.0086 37.3694C76.3492 37.2306 75.7708 37.034 75.2617 36.7681C74.5908 36.3864 74.0991 35.9701 73.781 35.5249C73.4629 35.0797 73.3009 34.5998 73.3009 34.0852C73.3009 33.6342 73.4224 33.2179 73.6653 32.8363C73.9082 32.4547 74.2264 32.1425 74.6255 31.917C75.0246 31.6857 75.4642 31.5701 75.9327 31.5701C76.4012 31.5701 76.8293 31.6857 77.2168 31.917C77.5986 32.1483 77.8993 32.4547 78.1076 32.8479C78.3158 33.2411 78.4199 33.6574 78.4199 34.1083C78.4199 34.6114 78.2869 35.0682 78.015 35.4671C77.7432 35.8661 77.3325 36.265 76.7714 36.6582H76.4764C76.0021 36.9415 75.4642 37.167 74.8569 37.3347C74.2495 37.5024 73.4744 37.5833 72.5258 37.5833L72.5316 37.5891ZM74.7701 30.5467C74.504 30.5467 74.2958 30.4715 74.1338 30.3154C73.9777 30.1593 73.8909 29.9569 73.8793 29.7083C73.8793 29.4654 73.9603 29.2631 74.128 29.1012C74.29 28.9393 74.504 28.8525 74.7701 28.8525C75.0362 28.8525 75.2328 28.9335 75.4064 29.1012C75.5741 29.2631 75.6609 29.4712 75.6609 29.7083C75.6609 29.9453 75.5741 30.165 75.4064 30.3154C75.2386 30.4715 75.0246 30.5467 74.7701 30.5467ZM77.1416 30.5467C76.8755 30.5467 76.6673 30.4715 76.5111 30.3154C76.3492 30.1593 76.2682 29.9569 76.2566 29.7083C76.2451 29.4654 76.326 29.2631 76.4938 29.1012C76.6615 28.9393 76.8813 28.8525 77.1416 28.8525C77.4019 28.8525 77.6044 28.9335 77.7779 29.1012C77.9456 29.2631 78.0324 29.4712 78.0324 29.7083C78.0324 29.9453 77.9456 30.165 77.7779 30.3154C77.6101 30.4715 77.3961 30.5467 77.1416 30.5467Z" fill="white"/>
<path d="M79.2181 37.5893C79.1198 37.5893 79.0677 37.5372 79.0677 37.4389V36.0744C79.0677 35.9876 79.114 35.9414 79.2181 35.9414H80.6179V27.8004L82.116 27.5518V37.5893H79.2181ZM81.0749 37.5893L81.3236 35.9414H85.5866C86.1881 35.9414 86.6509 35.82 86.9748 35.5714C87.2987 35.3227 87.4607 34.9758 87.4607 34.5248C87.4607 34.0738 87.316 33.7616 87.0326 33.513C86.7492 33.2643 86.3848 33.1429 85.9452 33.1429C85.6386 33.1429 85.3378 33.1776 85.0371 33.2412C84.7421 33.3048 84.3256 33.4378 83.7935 33.6286C83.2613 33.8194 82.4804 34.1316 81.4508 34.5595L81.1385 33.4089C82.0582 32.929 82.8044 32.5589 83.377 32.2988C83.9496 32.0386 84.4471 31.8535 84.8751 31.7379C85.3031 31.6223 85.708 31.5644 86.0956 31.5644C86.5872 31.5644 87.05 31.6743 87.478 31.894C87.906 32.1137 88.2531 32.4491 88.5134 32.9059C88.7737 33.3626 88.9067 33.9004 88.9067 34.5248C88.9067 35.1493 88.7679 35.6639 88.496 36.1264C88.2242 36.5948 87.8251 36.9532 87.3103 37.2019C86.7955 37.4563 86.1939 37.5777 85.4998 37.5777H81.0749V37.5893ZM90.2891 37.5893C89.7975 37.5893 89.3347 37.5314 88.9067 37.41C88.4787 37.2886 88.0506 37.0978 87.6226 36.8318L87.9697 35.4326C88.4324 35.6176 88.8257 35.7506 89.1554 35.82C89.4851 35.8894 89.8611 35.9298 90.2891 35.9298C90.3875 35.9298 90.4395 35.9761 90.4395 36.0628V37.4447C90.4395 37.543 90.3875 37.595 90.2891 37.595V37.5893Z" fill="white"/>
<path d="M90.2892 37.5891C90.1909 37.5891 90.1388 37.5371 90.1388 37.4388V36.0569C90.1388 35.9702 90.1851 35.9239 90.2892 35.9239H90.5206C90.9717 35.9239 91.2841 35.8314 91.4692 35.6522C91.6485 35.4729 91.741 35.1491 91.741 34.6924V32.6051L93.2565 32.3391V34.6924C93.2565 35.3168 93.1408 35.8488 92.9094 36.2882C92.6781 36.7276 92.3657 37.0514 91.9608 37.2653C91.5617 37.4793 91.1048 37.5833 90.5842 37.5833H90.2892V37.5891ZM92.4814 31.2058C92.2269 31.2058 92.0187 31.1249 91.8567 30.9688C91.689 30.8127 91.6022 30.6103 91.5906 30.3675C91.5906 30.113 91.6774 29.9107 91.8451 29.7488C92.0129 29.5927 92.2269 29.5117 92.4814 29.5117C92.7359 29.5117 92.9441 29.5927 93.1177 29.7488C93.2854 29.9107 93.3722 30.113 93.3722 30.3675C93.3722 30.6219 93.2854 30.8069 93.1177 30.9688C92.9499 31.1307 92.7359 31.2058 92.4814 31.2058ZM94.6505 37.5891C93.7713 37.5891 93.135 37.3579 92.7301 36.9011C92.331 36.4385 92.1286 35.7042 92.1286 34.6981H93.2449C93.2449 35.0277 93.2912 35.2821 93.378 35.4556C93.4647 35.629 93.6093 35.7562 93.806 35.8256C94.0026 35.895 94.2861 35.9355 94.6447 35.9355C94.743 35.9355 94.7951 35.9817 94.7951 36.0685V37.4504C94.7951 37.5487 94.743 37.6007 94.6447 37.6007L94.6505 37.5891Z" fill="white"/>
<path d="M94.6505 37.589C94.5522 37.589 94.5001 37.537 94.5001 37.4387V36.0568C94.5001 35.9701 94.5464 35.9238 94.6505 35.9238H96.2932C96.3916 35.9238 96.4436 35.9701 96.4436 36.0568V37.4387C96.4436 37.537 96.3916 37.589 96.2932 37.589H94.6505Z" fill="white"/>
<path d="M101.464 37.589C100.082 37.589 98.7573 37.3751 97.4963 36.9472L97.8723 35.5017C98.9887 35.8429 100.059 36.0105 101.083 36.0105C101.146 35.6174 101.181 35.282 101.181 35.0045C101.181 34.5304 101.077 34.1603 100.869 33.8886C100.66 33.6168 100.383 33.478 100.03 33.478C99.7233 33.478 99.4745 33.5821 99.2894 33.7903C99.1043 33.9984 98.9597 34.3222 98.8614 34.7616L98.6127 35.8776C98.4796 36.4384 98.2136 36.8605 97.8145 37.1554C97.4153 37.4445 96.9063 37.589 96.2932 37.589C96.1949 37.589 96.1428 37.537 96.1428 37.4387V36.0568C96.1428 35.9701 96.1891 35.9238 96.2932 35.9238C96.6345 35.9238 96.9006 35.8602 97.0914 35.7272C97.2823 35.5942 97.4038 35.3919 97.4616 35.1201L97.693 34.2008C97.8781 33.4434 98.1789 32.8767 98.5895 32.4893C99.0002 32.1077 99.5035 31.9111 100.093 31.9111C100.805 31.9111 101.372 32.1829 101.788 32.7322C102.205 33.2815 102.436 34.0389 102.477 35.0045C102.477 35.3861 102.436 35.8197 102.361 36.3054L101.453 37.589H101.464Z" fill="white"/>
<path d="M104.923 40.613L104.675 38.9536H105.236C105.97 38.9536 106.508 38.7917 106.849 38.4679C107.191 38.1441 107.358 37.6237 107.358 36.8952V32.1598L108.874 31.9111V36.8952C108.874 38.1557 108.573 39.0923 107.977 39.6994C107.382 40.3066 106.456 40.613 105.207 40.613H104.929H104.923ZM108.411 37.589C108.313 37.589 108.261 37.537 108.261 37.4387V36.0568C108.261 35.9701 108.313 35.9238 108.411 35.9238H110.256C110.355 35.9238 110.407 35.9701 110.407 36.0568V37.4387C110.407 37.537 110.355 37.589 110.256 37.589H108.411Z" fill="white"/>
<path d="M110.256 37.589C110.158 37.589 110.106 37.537 110.106 37.4387V36.0568C110.106 35.9701 110.152 35.9238 110.256 35.9238H111.899C111.997 35.9238 112.049 35.9701 112.049 36.0568V37.4387C112.049 37.537 111.997 37.589 111.899 37.589H110.256Z" fill="white"/>
<path d="M111.899 37.589C111.801 37.589 111.749 37.537 111.749 37.4387V36.0568C111.749 35.9701 111.795 35.9238 111.899 35.9238H113.542C113.64 35.9238 113.692 35.9701 113.692 36.0568V37.4387C113.692 37.537 113.64 37.589 113.542 37.589H111.899Z" fill="white"/>
<path d="M113.547 37.589C113.449 37.589 113.397 37.537 113.397 37.4387V36.0568C113.397 35.9701 113.443 35.9238 113.547 35.9238H115.19C115.289 35.9238 115.341 35.9701 115.341 36.0568V37.4387C115.341 37.537 115.289 37.589 115.19 37.589H113.547Z" fill="white"/>
<path d="M115.19 37.589C115.092 37.589 115.04 37.537 115.04 37.4387V36.0568C115.04 35.9701 115.086 35.9238 115.19 35.9238H116.833C116.931 35.9238 116.983 35.9701 116.983 36.0568V37.4387C116.983 37.537 116.931 37.589 116.833 37.589H115.19Z" fill="white"/>
<path d="M116.839 37.589C116.74 37.589 116.688 37.537 116.688 37.4387V36.0568C116.688 35.9701 116.735 35.9238 116.839 35.9238H118.481C118.58 35.9238 118.632 35.9701 118.632 36.0568V37.4387C118.632 37.537 118.58 37.589 118.481 37.589H116.839Z" fill="white"/>
<path d="M118.481 37.589C118.383 37.589 118.331 37.537 118.331 37.4387V36.0568C118.331 35.9701 118.377 35.9238 118.481 35.9238H120.124C120.222 35.9238 120.275 35.9701 120.275 36.0568V37.4387C120.275 37.537 120.222 37.589 120.124 37.589H118.481Z" fill="white"/>
<path d="M120.13 37.589C120.032 37.589 119.979 37.537 119.979 37.4387V36.0568C119.979 35.9701 120.026 35.9238 120.13 35.9238H121.773C121.871 35.9238 121.923 35.9701 121.923 36.0568V37.4387C121.923 37.537 121.871 37.589 121.773 37.589H120.13Z" fill="white"/>
<path d="M121.773 37.589C121.674 37.589 121.622 37.537 121.622 37.4387V36.0568C121.622 35.9701 121.669 35.9238 121.773 35.9238H123.415C123.514 35.9238 123.566 35.9701 123.566 36.0568V37.4387C123.566 37.537 123.514 37.589 123.415 37.589H121.773Z" fill="white"/>
<path d="M123.421 37.5894C123.323 37.5894 123.271 37.5374 123.271 37.4391V36.0572C123.271 35.9705 123.317 35.9242 123.421 35.9242H124.769C125.22 35.9242 125.532 35.8317 125.717 35.6525C125.897 35.4732 125.989 35.1494 125.989 34.6927V32.0445L127.505 31.7959V34.6927C127.505 35.6698 127.291 36.3926 126.874 36.8725C126.452 37.3524 125.793 37.5894 124.89 37.5894H123.427H123.421ZM124.491 40.5151C124.225 40.5151 124.017 40.4342 123.855 40.2781C123.693 40.1162 123.612 39.9196 123.6 39.6767C123.6 39.4223 123.681 39.22 123.849 39.0581C124.017 38.8962 124.231 38.821 124.491 38.821C124.752 38.821 124.954 38.9019 125.122 39.0581C125.289 39.2142 125.376 39.4223 125.376 39.6767C125.376 39.9311 125.289 40.1162 125.122 40.2781C124.954 40.4342 124.74 40.5151 124.491 40.5151ZM126.857 40.5151C126.591 40.5151 126.383 40.4342 126.221 40.2781C126.065 40.1162 125.978 39.9196 125.966 39.6767C125.955 39.4223 126.036 39.22 126.203 39.0581C126.371 38.8962 126.591 38.821 126.851 38.821C127.111 38.821 127.314 38.9019 127.487 39.0581C127.655 39.2142 127.742 39.4223 127.742 39.6767C127.742 39.9311 127.655 40.1162 127.487 40.2781C127.32 40.4342 127.106 40.5151 126.851 40.5151H126.857Z" fill="white"/>
<path d="M131.681 37.5891C130.773 37.5891 130.056 37.3405 129.535 36.849C129.014 36.3575 128.754 35.6868 128.754 34.8427C128.754 34.3049 128.87 33.8135 129.107 33.3625C129.344 32.9115 129.662 32.5588 130.067 32.3044C130.472 32.0442 130.912 31.917 131.386 31.917C132.219 31.917 132.878 32.2061 133.358 32.7901C133.838 33.374 134.081 34.1546 134.081 35.1433V36.6871H132.635V35.1433C132.635 34.6403 132.52 34.2356 132.288 33.9349C132.057 33.6342 131.739 33.4839 131.334 33.4839C131.016 33.4839 130.738 33.5995 130.501 33.8366C130.264 34.0737 130.148 34.3743 130.148 34.7502C130.148 35.1665 130.281 35.4845 130.553 35.7042C130.819 35.9239 131.218 36.0338 131.745 36.0338H133.815V37.5949H131.675L131.681 37.5891ZM129.703 40.6304L129.454 39.0693H130.229C131.097 39.0693 131.716 38.9421 132.086 38.6819C132.456 38.4217 132.647 38.0343 132.647 37.5082V36.6871H134.093V37.2133C134.093 37.9129 133.948 38.52 133.659 39.0288C133.37 39.5376 132.953 39.9308 132.416 40.2141C131.878 40.4917 131.241 40.6362 130.507 40.6362H129.703V40.6304ZM133.341 37.5891C133.243 37.5891 133.191 37.5371 133.191 37.4388V36.0742C133.191 35.9875 133.237 35.9412 133.341 35.9412H135.169C135.267 35.9412 135.319 35.9875 135.319 36.0742V37.4388C135.319 37.5371 135.273 37.5891 135.169 37.5891H133.341Z" fill="white"/>
<path d="M135.134 37.5893C135.036 37.5893 134.984 37.5372 134.984 37.4389V36.0744C134.984 35.9876 135.03 35.9414 135.134 35.9414H136.534V27.8004L138.032 27.5518V37.5893H135.134ZM136.997 37.5893L137.245 35.9414H141.508C142.11 35.9414 142.573 35.82 142.897 35.5714C143.22 35.3227 143.382 34.9758 143.382 34.5248C143.382 34.0738 143.238 33.7616 142.954 33.513C142.671 33.2643 142.307 33.1429 141.867 33.1429C141.56 33.1429 141.26 33.1776 140.959 33.2412C140.664 33.3048 140.247 33.4378 139.715 33.6286C139.183 33.8194 138.402 34.1316 137.373 34.5595L137.06 33.4089C137.98 32.929 138.726 32.5589 139.299 32.2988C139.871 32.0386 140.369 31.8535 140.797 31.7379C141.225 31.6223 141.63 31.5644 142.017 31.5644C142.509 31.5644 142.972 31.6743 143.4 31.894C143.828 32.1137 144.175 32.4491 144.435 32.9059C144.695 33.3626 144.828 33.9004 144.828 34.5248C144.828 35.1493 144.69 35.6639 144.418 36.1264C144.146 36.5948 143.747 36.9532 143.232 37.2019C142.717 37.4563 142.116 37.5777 141.422 37.5777H136.997V37.5893ZM146.211 37.5893C145.719 37.5893 145.257 37.5314 144.828 37.41C144.4 37.2886 143.972 37.0978 143.544 36.8318L143.891 35.4326C144.354 35.6176 144.748 35.7506 145.077 35.82C145.407 35.8894 145.783 35.9298 146.211 35.9298C146.309 35.9298 146.361 35.9761 146.361 36.0628V37.4447C146.361 37.543 146.309 37.595 146.211 37.595V37.5893Z" fill="white"/>
<path d="M146.211 37.5891C146.113 37.5891 146.061 37.5371 146.061 37.4388V36.0569C146.061 35.9702 146.107 35.9239 146.211 35.9239H146.703C147.183 35.9239 147.524 35.8372 147.721 35.658C147.917 35.4845 148.016 35.1607 148.016 34.6866V32.5993L149.531 32.3333V34.6866C149.531 35.5886 149.294 36.294 148.814 36.8086C148.334 37.3232 147.634 37.5833 146.697 37.5833H146.205L146.211 37.5891ZM147.547 31.2058C147.281 31.2058 147.073 31.1307 146.911 30.9746C146.749 30.8184 146.668 30.6161 146.656 30.3675C146.656 30.1246 146.737 29.9222 146.905 29.7603C147.067 29.5984 147.281 29.5117 147.547 29.5117C147.813 29.5117 148.01 29.5927 148.183 29.7603C148.351 29.9222 148.438 30.1304 148.438 30.3675C148.438 30.6045 148.351 30.8242 148.183 30.9746C148.016 31.1307 147.802 31.2058 147.547 31.2058ZM150.919 37.5891C150.086 37.5891 149.479 37.3579 149.091 36.9011C148.71 36.4385 148.513 35.7042 148.513 34.6981H149.531C149.531 35.0277 149.577 35.2821 149.664 35.4556C149.751 35.629 149.895 35.7562 150.092 35.8256C150.289 35.895 150.566 35.9355 150.913 35.9355H151.162C151.261 35.9355 151.313 35.9817 151.313 36.0685V37.4504C151.313 37.5487 151.261 37.6007 151.162 37.6007H150.913L150.919 37.5891ZM149.913 31.2058C149.647 31.2058 149.439 31.1307 149.282 30.9746C149.12 30.8184 149.039 30.6161 149.028 30.3675C149.016 30.1246 149.097 29.9222 149.265 29.7603C149.433 29.5984 149.653 29.5117 149.913 29.5117C150.173 29.5117 150.376 29.5927 150.549 29.7603C150.717 29.9222 150.804 30.1304 150.804 30.3675C150.804 30.6045 150.717 30.8242 150.549 30.9746C150.381 31.1307 150.167 31.2058 149.913 31.2058Z" fill="white"/>
<path d="M151.168 37.5893C151.07 37.5893 151.018 37.5372 151.018 37.4389V36.057C151.018 35.9703 151.064 35.924 151.168 35.924H151.365C151.827 35.924 152.146 35.8315 152.325 35.6523C152.504 35.4731 152.597 35.1493 152.597 34.6925V27.8177L154.095 27.5518V34.6925C154.095 35.6696 153.875 36.3924 153.447 36.8723C153.013 37.3522 152.342 37.5893 151.428 37.5893H151.162H151.168Z" fill="white"/>
<path d="M2.635 53.6919C2.27638 53.6919 1.95825 53.6572 1.68639 53.5878C1.41453 53.5184 1.15424 53.4086 0.905518 53.2524L1.09061 52.5297C1.29884 52.6858 1.536 52.8072 1.80207 52.894C2.06814 52.9807 2.35736 53.0269 2.67549 53.0269C3.03989 53.0269 3.31754 52.9576 3.50841 52.8188C3.69929 52.68 3.79184 52.4892 3.79184 52.2464C3.79184 52.0382 3.72822 51.859 3.60096 51.7202C3.47371 51.5815 3.25391 51.4485 2.93578 51.3155L2.36314 51.09C1.89462 50.9107 1.55335 50.7026 1.33933 50.4655C1.12532 50.2227 1.0212 49.9105 1.0212 49.5231C1.0212 49.0605 1.18894 48.6963 1.52443 48.4361C1.85991 48.1701 2.31687 48.0371 2.89529 48.0371C3.43322 48.0371 3.8786 48.1238 4.23723 48.2915V49.0316C3.80919 48.8061 3.36381 48.6963 2.89529 48.6963C2.55402 48.6963 2.28794 48.7599 2.09128 48.8871C1.89462 49.0143 1.79629 49.1935 1.79629 49.4248C1.79629 49.6214 1.8657 49.7948 1.99873 49.9394C2.13177 50.0839 2.38628 50.2285 2.75068 50.373L3.28861 50.587C3.72821 50.7546 4.05213 50.9628 4.24879 51.2056C4.45124 51.4485 4.54957 51.7607 4.54957 52.1423C4.54957 52.6164 4.38183 52.9923 4.04056 53.264C3.69929 53.5415 3.23077 53.6745 2.62343 53.6745L2.635 53.6919Z" fill="white"/>
<path d="M4.55542 50.4141V49.8012H7.33184V50.4141H4.55542ZM6.36588 53.6925C5.9899 53.6925 5.71226 53.5999 5.53295 53.4149C5.34786 53.2299 5.25531 52.9466 5.25531 52.5592V48.8472L6.04196 48.7373V52.4725C6.04196 52.6748 6.08824 52.8252 6.18657 52.9177C6.27912 53.0102 6.42372 53.0564 6.6146 53.0564C6.84597 53.0564 7.07734 52.9986 7.31449 52.883L7.21038 53.5248C7.10048 53.5768 6.97322 53.6231 6.82283 53.652C6.67244 53.6809 6.52205 53.6982 6.36588 53.6982V53.6925Z" fill="white"/>
<path d="M7.85815 53.5817V49.8581L8.55804 49.754L8.6101 50.5288L8.65059 50.5404V53.5817H7.85815ZM8.65059 50.7601L8.5002 50.6271L8.92823 49.887C9.03813 49.835 9.17696 49.7887 9.35627 49.754C9.52979 49.7193 9.69754 49.702 9.84214 49.6904V50.3727C9.58185 50.3958 9.36205 50.4305 9.17117 50.4826C8.98029 50.5346 8.80677 50.6271 8.65059 50.7601Z" fill="white"/>
<path d="M11.4039 53.6925C11.0164 53.6925 10.7156 53.5999 10.4958 53.4091C10.276 53.2183 10.1719 52.9524 10.1719 52.617C10.1719 52.299 10.2876 52.033 10.5247 51.8133C10.7561 51.5936 11.1378 51.4895 11.6584 51.4895H12.6244V52.0157H11.6758C11.4097 52.0157 11.2188 52.0677 11.1031 52.166C10.9874 52.2643 10.9296 52.3857 10.9296 52.5361C10.9296 52.7037 10.9874 52.8425 11.1089 52.9408C11.2304 53.0391 11.4097 53.0911 11.6526 53.0911C12.0344 53.0911 12.3525 52.9813 12.607 52.7673L12.7285 52.8888L12.312 53.4901C12.0286 53.6346 11.722 53.704 11.3981 53.704L11.4039 53.6925ZM13.2954 53.652C13.064 53.652 12.8905 53.5884 12.7806 53.4612C12.6707 53.334 12.6128 53.1836 12.6128 52.9986V52.8656H12.5492V51.1079C12.5492 50.8304 12.474 50.628 12.3236 50.5008C12.1732 50.3736 11.9476 50.31 11.6526 50.31C11.4444 50.31 11.2304 50.3331 11.0222 50.3852C10.8139 50.4372 10.623 50.5008 10.4495 50.5818L10.5594 49.94C10.7098 49.8706 10.8949 49.8127 11.1205 49.7607C11.3461 49.7087 11.5832 49.6855 11.8435 49.6855C12.3294 49.6855 12.6996 49.7896 12.9483 50.0036C13.197 50.2175 13.3185 50.5471 13.3185 50.9981V52.75C13.3185 52.9697 13.4168 53.0738 13.6135 53.0738C13.6945 53.0738 13.7639 53.0622 13.8275 53.0449L13.7465 53.5768C13.6193 53.6231 13.4631 53.6462 13.2896 53.6462L13.2954 53.652Z" fill="white"/>
<path d="M13.8159 50.4141V49.8012H16.5923V50.4141H13.8159ZM15.6264 53.6925C15.2504 53.6925 14.9728 53.5999 14.7934 53.4149C14.6084 53.2299 14.5158 52.9466 14.5158 52.5592V48.8472L15.3025 48.7373V52.4725C15.3025 52.6748 15.3487 52.8252 15.4471 52.9177C15.5396 53.0102 15.6842 53.0564 15.8751 53.0564C16.1065 53.0564 16.3378 52.9986 16.575 52.883L16.4709 53.5248C16.361 53.5768 16.2337 53.6231 16.0833 53.652C15.9329 53.6809 15.7826 53.6982 15.6264 53.6982V53.6925Z" fill="white"/>
<path d="M18.8192 53.6916C18.1887 53.6916 17.7087 53.5239 17.3732 53.1944C17.0435 52.8648 16.8757 52.3965 16.8757 51.8009C16.8757 51.3962 16.9509 51.0319 17.1071 50.7139C17.2575 50.3959 17.4773 50.1473 17.7665 49.968C18.0557 49.7888 18.3912 49.6963 18.7672 49.6963C19.2357 49.6963 19.6059 49.8351 19.8835 50.1184C20.1612 50.4017 20.2942 50.7775 20.2942 51.2401C20.2942 51.4656 20.2826 51.6564 20.2537 51.8183H17.5756V51.2921H19.6926L19.548 51.5176C19.5596 51.4367 19.5712 51.3557 19.5712 51.2863C19.5712 50.9683 19.496 50.7255 19.3398 50.552C19.1894 50.3843 18.9696 50.2976 18.692 50.2976C18.3738 50.2976 18.1193 50.4248 17.94 50.6734C17.7549 50.9221 17.6624 51.269 17.6624 51.7026C17.6624 52.1363 17.7665 52.4716 17.9805 52.7087C18.1945 52.9458 18.5242 53.0672 18.9754 53.0672C19.2068 53.0672 19.4208 53.044 19.6232 52.992C19.8257 52.94 19.9934 52.8764 20.138 52.7954L20.0339 53.4257C19.9067 53.5008 19.7331 53.5644 19.5191 53.6165C19.3051 53.6685 19.0679 53.6974 18.8134 53.6974L18.8192 53.6916Z" fill="white"/>
<path d="M22.4286 55.6169C21.8502 55.6169 21.4048 55.5187 21.0925 55.3163C20.7743 55.1139 20.6182 54.8422 20.6182 54.4952C20.6182 54.2466 20.7223 54.0385 20.9363 53.8766C21.1503 53.7147 21.4511 53.5933 21.8502 53.5181L21.9601 53.6916C21.6073 53.8766 21.428 54.0963 21.428 54.3507C21.428 54.5357 21.5263 54.6861 21.7172 54.8133C21.908 54.9405 22.1857 55.0041 22.5443 55.0041C22.9318 55.0041 23.2326 54.9405 23.4582 54.8133C23.678 54.6861 23.7879 54.5126 23.7879 54.2929C23.7879 54.1252 23.7185 53.9922 23.5855 53.9055C23.4524 53.8188 23.2616 53.7725 23.0128 53.7725H22.0469C21.7634 53.7725 21.5321 53.7031 21.3585 53.5643C21.185 53.4256 21.0983 53.2406 21.0983 53.0093C21.0983 52.8243 21.1561 52.6566 21.2718 52.5062C21.3875 52.3559 21.5436 52.2171 21.7403 52.1015L21.9948 52.2114C21.8097 52.3964 21.7172 52.5583 21.7172 52.7086C21.7172 52.8358 21.7577 52.9283 21.8444 52.9862C21.9312 53.044 22.0642 53.0729 22.2551 53.0729H23.2211C23.6664 53.0729 24.0019 53.1654 24.2159 53.3562C24.4357 53.547 24.5399 53.8072 24.5399 54.1425C24.5399 54.6051 24.3548 54.9636 23.9788 55.2238C23.6028 55.484 23.0822 55.6112 22.4113 55.6112L22.4286 55.6169ZM22.498 52.4195C22.0179 52.4195 21.6304 52.3039 21.347 52.0668C21.0635 51.8355 20.9189 51.5175 20.9189 51.1244C20.9189 50.841 20.9884 50.5866 21.1214 50.3727C21.2544 50.153 21.4453 49.9853 21.6882 49.8697C21.9312 49.7482 22.1973 49.6904 22.498 49.6904C22.7294 49.6904 22.9376 49.7193 23.1285 49.7772C23.3194 49.835 23.4756 49.9159 23.6086 50.0258L23.6722 50.1761C23.7937 50.2686 23.892 50.39 23.9557 50.5346C24.0251 50.6791 24.0598 50.841 24.0598 51.0203C24.0598 51.292 23.9961 51.5349 23.8631 51.7488C23.7301 51.9627 23.545 52.1246 23.3136 52.2403C23.0822 52.3559 22.8104 52.4137 22.5038 52.4137L22.498 52.4195ZM22.498 51.8298C22.741 51.8298 22.9376 51.7604 23.088 51.6158C23.2384 51.4713 23.3136 51.2863 23.3136 51.0434C23.3136 50.8121 23.2384 50.6271 23.088 50.4883C22.9376 50.3496 22.741 50.2802 22.498 50.2802C22.2551 50.2802 22.0642 50.3554 21.908 50.4999C21.7519 50.6445 21.6767 50.8353 21.6767 51.0665C21.6767 51.2978 21.7519 51.4828 21.908 51.6216C22.0584 51.7604 22.2609 51.8298 22.5038 51.8298H22.498ZM23.1112 50.4016V49.8408L24.5283 49.6904V50.2628L23.1112 50.4074V50.4016Z" fill="white"/>
<path d="M25.4595 48.9795C25.3149 48.9795 25.1992 48.9332 25.1067 48.8465C25.0141 48.7598 24.9679 48.6441 24.9563 48.4996C24.9563 48.3666 25.0026 48.251 25.1009 48.1642C25.1992 48.0775 25.3149 48.0312 25.4595 48.0312C25.6041 48.0312 25.7198 48.0775 25.8181 48.1642C25.9107 48.251 25.9628 48.3666 25.9628 48.4996C25.9628 48.6441 25.9165 48.7598 25.8181 48.8465C25.7256 48.9332 25.6041 48.9795 25.4595 48.9795ZM25.0604 53.5819V49.8584L25.8528 49.7485V53.5819H25.0604Z" fill="white"/>
<path d="M28.3343 53.6916C27.7501 53.6916 27.299 53.5239 26.9693 53.1827C26.6454 52.8416 26.4834 52.3848 26.4834 51.8066C26.4834 51.3845 26.5644 51.0145 26.7321 50.6965C26.8999 50.3785 27.1312 50.1299 27.432 49.9564C27.7328 49.7772 28.0798 49.6904 28.479 49.6904C28.8781 49.6904 29.1904 49.7656 29.4565 49.9159V50.6155C29.1788 50.419 28.8607 50.3207 28.5079 50.3207C28.1319 50.3207 27.8369 50.4479 27.6229 50.7081C27.4031 50.9682 27.299 51.3036 27.299 51.7257C27.299 52.1304 27.4089 52.4542 27.6287 52.6855C27.8485 52.9168 28.155 53.0382 28.5484 53.0382C28.7219 53.0382 28.9012 53.0151 29.0747 52.9688C29.2483 52.9225 29.3986 52.8647 29.5259 52.7953L29.416 53.4371C29.3003 53.5065 29.1499 53.5643 28.959 53.6164C28.7682 53.6684 28.5599 53.6916 28.3401 53.6916H28.3343Z" fill="white"/>
<path d="M34.5523 53.692C34.0144 53.692 33.5459 53.5821 33.1468 53.3624C32.7476 53.1427 32.4411 52.8247 32.2271 52.4084C32.0131 51.9921 31.9089 51.5006 31.9089 50.9397C31.9089 50.3673 32.0188 49.8643 32.2386 49.4306C32.4584 48.9912 32.7708 48.6501 33.1815 48.4072C33.5864 48.1644 34.0607 48.043 34.5986 48.043C35.1423 48.043 35.6108 48.1528 36.0099 48.3668C36.4091 48.5865 36.7098 48.8987 36.9238 49.315C37.1379 49.7313 37.242 50.2228 37.242 50.7894C37.242 51.3618 37.1321 51.8648 36.9123 52.3043C36.6925 52.7437 36.3801 53.0906 35.9695 53.3335C35.5646 53.5763 35.0903 53.6977 34.5523 53.6977V53.692ZM34.5697 53.0328C34.9341 53.0328 35.258 52.9403 35.5356 52.7553C35.8133 52.5702 36.0273 52.3158 36.1835 51.9921C36.3339 51.6683 36.4148 51.2867 36.4148 50.853C36.4148 50.1881 36.2529 49.6619 35.9232 49.2745C35.5935 48.8871 35.1423 48.6963 34.5755 48.6963C34.2111 48.6963 33.8871 48.7888 33.6095 48.9681C33.3319 49.1473 33.1178 49.4017 32.9617 49.7313C32.8113 50.0609 32.7303 50.4367 32.7303 50.8646C32.7303 51.5295 32.8923 52.0557 33.2162 52.4488C33.5401 52.8362 33.9913 53.0328 34.5697 53.0328Z" fill="white"/>
<path d="M37.6643 50.4136V49.8007H41.0654V50.4136H37.6643ZM38.3468 49.1242C38.3468 48.6385 38.4857 48.2511 38.7575 47.962C39.0352 47.6787 39.4054 47.5342 39.8797 47.5342C40.0879 47.5342 40.2672 47.5631 40.4176 47.6267V48.2974C40.2383 48.2165 40.059 48.176 39.8797 48.176C39.6541 48.176 39.4748 48.2569 39.3359 48.413C39.1971 48.5749 39.1277 48.8062 39.1277 49.1184V53.5763H38.3411V49.1184L38.3468 49.1242ZM40.0069 50.4136V49.8007H43.5989V50.4136H40.0069ZM40.6894 49.1242C40.6894 48.6385 40.8225 48.2511 41.0943 47.962C41.3662 47.6787 41.7306 47.5342 42.1933 47.5342C42.3958 47.5342 42.5693 47.5631 42.7139 47.6267V48.2974C42.5462 48.2165 42.3727 48.176 42.2049 48.176C41.9793 48.176 41.8 48.2511 41.6728 48.4015C41.5397 48.5518 41.4761 48.7773 41.4761 49.0837V53.5821H40.6952V49.1242H40.6894ZM43.4196 48.9797C43.275 48.9797 43.1593 48.9334 43.0668 48.8467C42.9742 48.76 42.9279 48.6443 42.9164 48.4998C42.9164 48.3668 42.9626 48.2511 43.061 48.1644C43.1535 48.0777 43.275 48.0314 43.4196 48.0314C43.5642 48.0314 43.6799 48.0777 43.7782 48.1644C43.8766 48.2511 43.9228 48.3668 43.9228 48.4998C43.9228 48.6443 43.8766 48.76 43.7782 48.8467C43.6857 48.9334 43.5642 48.9797 43.4196 48.9797ZM43.0205 53.5821V49.8585L43.8129 49.7487V53.5821H43.0205Z" fill="white"/>
<path d="M46.3116 53.6916C45.7274 53.6916 45.2763 53.5239 44.9466 53.1827C44.6226 52.8416 44.4607 52.3848 44.4607 51.8066C44.4607 51.3845 44.5417 51.0145 44.7094 50.6965C44.8772 50.3785 45.1085 50.1299 45.4093 49.9564C45.7101 49.7772 46.0571 49.6904 46.4562 49.6904C46.8438 49.6904 47.1677 49.7656 47.4338 49.9159V50.6155C47.1561 50.419 46.838 50.3207 46.4852 50.3207C46.1092 50.3207 45.8142 50.4479 45.6002 50.7081C45.3804 50.9682 45.2763 51.3036 45.2763 51.7257C45.2763 52.1304 45.3862 52.4542 45.606 52.6855C45.8258 52.9168 46.1323 53.0382 46.5257 53.0382C46.6992 53.0382 46.8785 53.0151 47.052 52.9688C47.2255 52.9225 47.3759 52.8647 47.5032 52.7953L47.3933 53.4371C47.2776 53.5065 47.1272 53.5643 46.9363 53.6164C46.7455 53.6684 46.5372 53.6916 46.3174 53.6916H46.3116Z" fill="white"/>
<path d="M49.8112 53.6916C49.1807 53.6916 48.7006 53.5239 48.3651 53.1944C48.0354 52.8648 47.8677 52.3965 47.8677 51.8009C47.8677 51.3962 47.9429 51.0319 48.099 50.7139C48.2494 50.3959 48.4692 50.1473 48.7584 49.968C49.0477 49.7888 49.3831 49.6963 49.7591 49.6963C50.2276 49.6963 50.5978 49.8351 50.8755 50.1184C51.1531 50.4017 51.2861 50.7775 51.2861 51.2401C51.2861 51.4656 51.2746 51.6564 51.2457 51.8183H48.5676V51.2921H50.6846L50.54 51.5176C50.5515 51.4367 50.5631 51.3557 50.5631 51.2863C50.5631 50.9683 50.4879 50.7255 50.3317 50.552C50.1814 50.3843 49.9616 50.2976 49.6839 50.2976C49.3658 50.2976 49.1113 50.4248 48.932 50.6734C48.7469 50.9221 48.6543 51.269 48.6543 51.7026C48.6543 52.1363 48.7584 52.4716 48.9725 52.7087C49.1865 52.9458 49.5162 53.0672 49.9673 53.0672C50.1987 53.0672 50.4127 53.044 50.6152 52.992C50.8176 52.94 50.9854 52.8764 51.13 52.7954L51.0259 53.4257C50.8986 53.5008 50.7251 53.5644 50.5111 53.6165C50.297 53.6685 50.0599 53.6974 49.8054 53.6974L49.8112 53.6916Z" fill="white"/>
<path d="M53.646 50.4136V49.8007H56.2026V50.4136H53.646ZM54.3285 49.1242C54.3285 48.6385 54.4674 48.2511 54.745 47.962C55.0226 47.6787 55.4044 47.5342 55.8961 47.5342C56.139 47.5342 56.3414 47.5689 56.4976 47.6383V48.3205C56.301 48.228 56.0985 48.176 55.8845 48.176C55.6473 48.176 55.4565 48.2569 55.3176 48.4188C55.1788 48.5807 55.1094 48.8178 55.1094 49.1184V53.5763H54.3227V49.1184L54.3285 49.1242Z" fill="white"/>
<path d="M58.2849 53.6916C57.7007 53.6916 57.238 53.5181 56.8909 53.1712C56.5439 52.8243 56.3704 52.3559 56.3704 51.7546C56.3704 51.3383 56.4513 50.9798 56.6075 50.6676C56.7695 50.3554 56.9893 50.1125 57.2785 49.9448C57.5677 49.7772 57.9032 49.6904 58.2792 49.6904C58.8634 49.6904 59.3261 49.8639 59.6674 50.205C60.0086 50.5462 60.1822 51.0145 60.1822 51.6158C60.1822 52.0321 60.107 52.3964 59.9508 52.7086C59.7946 53.0266 59.5748 53.2695 59.2856 53.4371C58.9964 53.6048 58.6609 53.6916 58.2849 53.6916ZM58.2849 53.0613C58.6262 53.0613 58.8923 52.9399 59.0889 52.6913C59.2856 52.4426 59.3839 52.1073 59.3839 51.691C59.3839 51.2747 59.2856 50.9451 59.0889 50.6965C58.8923 50.4479 58.6262 50.3264 58.2849 50.3264C57.9437 50.3264 57.6776 50.4479 57.4751 50.6965C57.2727 50.9451 57.1744 51.2747 57.1744 51.691C57.1744 52.1131 57.2727 52.4484 57.4751 52.6913C57.6776 52.9399 57.9437 53.0613 58.2849 53.0613Z" fill="white"/>
<path d="M60.8879 53.5817V49.8581L61.5878 49.754L61.6399 50.5288L61.6804 50.5404V53.5817H60.8879ZM61.6804 50.7601L61.53 50.6271L61.958 49.887C62.0679 49.835 62.2067 49.7887 62.386 49.754C62.5596 49.7193 62.7273 49.702 62.8719 49.6904V50.3727C62.6116 50.3958 62.3918 50.4305 62.201 50.4826C62.0101 50.5346 61.8365 50.6271 61.6804 50.7601Z" fill="white"/>
<path d="M67.3836 48.2275C68.2454 48.2275 68.9106 48.4588 69.3849 48.9156C69.8592 49.3724 70.0906 50.0199 70.0906 50.8526C70.0906 51.4134 69.9749 51.9107 69.7493 52.3385C69.5237 52.7664 69.1998 53.096 68.7891 53.3272C68.3727 53.5585 67.8926 53.6742 67.3431 53.6742H65.5442V48.2275H67.3894H67.3836ZM67.3431 53.0092C67.9273 53.0092 68.39 52.8184 68.7371 52.4426C69.0841 52.0668 69.2577 51.558 69.2577 50.9219C69.2577 50.2859 69.0899 49.7887 68.7602 49.4244C68.4305 49.0659 67.9678 48.8867 67.3836 48.8867H66.3482V53.0092H67.3431Z" fill="white"/>
<path d="M72.5604 53.7844C71.93 53.7844 71.4499 53.6167 71.1144 53.2872C70.7847 52.9576 70.6169 52.4892 70.6169 51.8937C70.6169 51.489 70.6921 51.1247 70.8483 50.8067C70.9987 50.4887 71.2185 50.2401 71.5077 50.0608C71.7969 49.8816 72.1324 49.7891 72.5084 49.7891C72.9769 49.7891 73.3471 49.9278 73.6247 50.2111C73.9024 50.4945 74.0354 50.8703 74.0354 51.3328C74.0354 51.5583 74.0238 51.7491 73.9949 51.911H71.3168V51.3791H73.4339L73.2893 51.6046C73.3008 51.5237 73.3124 51.4427 73.3124 51.3733C73.3124 51.0553 73.2372 50.8125 73.081 50.639C72.9306 50.4713 72.7108 50.3846 72.4332 50.3846C72.1151 50.3846 71.8605 50.5118 71.6812 50.7604C71.4961 51.0091 71.4036 51.356 71.4036 51.7896C71.4036 52.2233 71.5077 52.5586 71.7217 52.7957C71.9357 53.0327 72.2654 53.1542 72.7166 53.1542C72.948 53.1542 73.162 53.131 73.3644 53.079C73.5669 53.027 73.7346 52.9634 73.8792 52.8824L73.7751 53.5127C73.6479 53.5878 73.4744 53.6514 73.2603 53.7035C73.0463 53.7555 72.8092 53.7844 72.5547 53.7844H72.5604Z" fill="white"/>
<path d="M78.0959 49.8986L76.673 53.6743H75.7591L74.3535 49.9622L75.146 49.8408L76.43 53.3331H76.1119L77.315 49.9044H78.1017L78.0959 49.8986Z" fill="white"/>
<path d="M80.2245 53.7844C79.594 53.7844 79.1139 53.6167 78.7784 53.2872C78.4487 52.9576 78.281 52.4892 78.281 51.8937C78.281 51.489 78.3562 51.1247 78.5124 50.8067C78.6628 50.4887 78.8826 50.2401 79.1718 50.0608C79.461 49.8816 79.7965 49.7891 80.1724 49.7891C80.641 49.7891 81.0112 49.9278 81.2888 50.2111C81.5664 50.4945 81.6995 50.8703 81.6995 51.3328C81.6995 51.5583 81.6879 51.7491 81.659 51.911H78.9809V51.3791H81.0979L80.9533 51.6046C80.9649 51.5237 80.9765 51.4427 80.9765 51.3733C80.9765 51.0553 80.9013 50.8125 80.7451 50.639C80.5947 50.4713 80.3749 50.3846 80.0972 50.3846C79.7791 50.3846 79.5246 50.5118 79.3453 50.7604C79.1602 51.0091 79.0677 51.356 79.0677 51.7896C79.0677 52.2233 79.1718 52.5586 79.3858 52.7957C79.5998 53.0327 79.9295 53.1542 80.3807 53.1542C80.612 53.1542 80.8261 53.131 81.0285 53.079C81.231 53.027 81.3987 52.9634 81.5433 52.8824L81.4392 53.5127C81.3119 53.5878 81.1384 53.6514 80.9244 53.7035C80.7104 53.7555 80.4732 53.7844 80.2187 53.7844H80.2245Z" fill="white"/>
<path d="M82.4167 53.6688V47.7886L83.2092 47.6787V53.6746H82.4167V53.6688Z" fill="white"/>
<path d="M85.8467 53.7843C85.2625 53.7843 84.7998 53.6109 84.4527 53.264C84.1057 52.917 83.9321 52.4487 83.9321 51.8474C83.9321 51.4311 84.0131 51.0726 84.1693 50.7604C84.3312 50.4481 84.551 50.2053 84.8402 50.0376C85.1295 49.8699 85.4649 49.7832 85.8409 49.7832C86.4251 49.7832 86.8879 49.9567 87.2291 50.2978C87.5704 50.6389 87.7439 51.1131 87.7439 51.7086C87.7439 52.1249 87.6687 52.4892 87.5126 52.8014C87.3564 53.1194 87.1366 53.3622 86.8474 53.5299C86.5582 53.6976 86.2227 53.7843 85.8467 53.7843ZM85.8467 53.1541C86.188 53.1541 86.454 53.0327 86.6507 52.784C86.8474 52.5354 86.9457 52.2001 86.9457 51.7838C86.9457 51.3675 86.8474 51.0379 86.6507 50.7893C86.454 50.5406 86.188 50.4192 85.8467 50.4192C85.5054 50.4192 85.2394 50.5406 85.0369 50.7893C84.8345 51.0379 84.7361 51.3675 84.7361 51.7838C84.7361 52.2058 84.8345 52.5412 85.0369 52.784C85.2394 53.0327 85.5054 53.1541 85.8467 53.1541Z" fill="white"/>
<path d="M88.4497 55.6057V49.951L89.1496 49.8469L89.2017 50.5812L89.2421 50.6043V55.6115H88.4497V55.6057ZM90.0924 53.7844C89.7685 53.7844 89.4851 53.7208 89.2479 53.5994V52.9402C89.4504 53.079 89.6991 53.1426 89.9883 53.1426C90.3411 53.1426 90.6188 53.0154 90.827 52.761C91.0353 52.5066 91.1394 52.1597 91.1394 51.726C91.1394 51.3271 91.0468 51.0091 90.8559 50.772C90.6651 50.5349 90.4106 50.4135 90.0809 50.4135C89.7743 50.4135 89.4967 50.5176 89.2479 50.7315L89.1554 50.5407L89.4793 49.9914C89.7396 49.8584 90.0172 49.7891 90.3238 49.7891C90.8328 49.7891 91.2319 49.9567 91.5153 50.2979C91.7988 50.639 91.9434 51.0958 91.9434 51.6798C91.9434 52.0961 91.8624 52.4603 91.712 52.7726C91.5558 53.0906 91.336 53.3334 91.0526 53.5127C90.7692 53.6919 90.451 53.7844 90.0924 53.7844Z" fill="white"/>
<path d="M92.9844 49.0723C92.8398 49.0723 92.7241 49.026 92.6316 48.9393C92.539 48.8525 92.4928 48.7369 92.4812 48.5924C92.4812 48.4594 92.5275 48.3437 92.6258 48.257C92.7184 48.1703 92.8398 48.124 92.9844 48.124C93.129 48.124 93.2447 48.1703 93.3431 48.257C93.4356 48.3437 93.4877 48.4594 93.4877 48.5924C93.4877 48.7369 93.4414 48.8525 93.3431 48.9393C93.2505 49.026 93.129 49.0723 92.9844 49.0723ZM92.5911 53.6689V49.9453L93.3835 49.8355V53.6689H92.5911Z" fill="white"/>
<path d="M94.2339 53.6688V49.9452L94.9338 49.8411L94.9858 50.5754L95.0263 50.5985V53.6688H94.2339ZM96.8079 51.3097C96.8079 51.0206 96.7327 50.7951 96.5823 50.6448C96.4319 50.4945 96.2179 50.4135 95.9287 50.4135C95.5758 50.4135 95.275 50.5176 95.0205 50.7315L94.928 50.5407L95.2519 49.9914C95.3329 49.951 95.4544 49.9047 95.6221 49.8584C95.7898 49.8122 95.9923 49.7891 96.2294 49.7891C96.6575 49.7891 96.9872 49.8989 97.2243 50.1244C97.4615 50.3499 97.583 50.6795 97.583 51.1189V53.4722H96.8021V51.3155L96.8079 51.3097ZM96.8079 53.3045H97.5887V53.6688H96.8079V53.3045Z" fill="white"/>
<path d="M99.8099 55.7039C99.2314 55.7039 98.786 55.6056 98.4737 55.4033C98.1556 55.2009 97.9994 54.9292 97.9994 54.5822C97.9994 54.3336 98.1035 54.1255 98.3175 53.9636C98.5315 53.8017 98.8323 53.6803 99.2314 53.6051L99.3413 53.7785C98.9885 53.9636 98.8092 54.1833 98.8092 54.4377C98.8092 54.6227 98.9075 54.773 99.0984 54.9002C99.2893 55.0275 99.5669 55.0911 99.9255 55.0911C100.313 55.0911 100.614 55.0275 100.839 54.9002C101.059 54.773 101.169 54.5996 101.169 54.3799C101.169 54.2122 101.1 54.0792 100.967 53.9925C100.834 53.9057 100.643 53.8595 100.394 53.8595H99.4281C99.1447 53.8595 98.9133 53.7901 98.7398 53.6513C98.5663 53.5126 98.4795 53.3276 98.4795 53.0963C98.4795 52.9113 98.5373 52.7436 98.653 52.5932C98.7687 52.4429 98.9249 52.3041 99.1215 52.1885L99.376 52.2984C99.1909 52.4834 99.0984 52.6453 99.0984 52.7956C99.0984 52.9228 99.1389 53.0153 99.2256 53.0731C99.3124 53.131 99.4454 53.1599 99.6363 53.1599H100.602C101.048 53.1599 101.383 53.2524 101.597 53.4432C101.817 53.634 101.921 53.8942 101.921 54.2238C101.921 54.6863 101.736 55.0448 101.36 55.305C100.984 55.5652 100.463 55.6924 99.7925 55.6924L99.8099 55.7039ZM99.8793 52.5123C99.3992 52.5123 99.0116 52.3967 98.7282 52.1596C98.4448 51.9283 98.3002 51.6103 98.3002 51.2171C98.3002 50.9338 98.3696 50.6794 98.5026 50.4655C98.6357 50.2458 98.8265 50.0781 99.0695 49.9624C99.3124 49.841 99.5785 49.7832 99.8793 49.7832C100.111 49.7832 100.319 49.8121 100.51 49.8699C100.701 49.9278 100.857 50.0087 100.99 50.1186L101.053 50.2689C101.175 50.3614 101.273 50.4828 101.337 50.6274C101.406 50.7719 101.441 50.9338 101.441 51.1131C101.441 51.3848 101.377 51.6277 101.244 51.8416C101.111 52.0555 100.926 52.2174 100.695 52.3331C100.463 52.4487 100.192 52.5065 99.885 52.5065L99.8793 52.5123ZM99.8793 51.9225C100.122 51.9225 100.319 51.8531 100.469 51.7086C100.62 51.5641 100.695 51.379 100.695 51.1362C100.695 50.9049 100.62 50.7199 100.469 50.5811C100.319 50.4424 100.122 50.373 99.8793 50.373C99.6421 50.373 99.4454 50.4481 99.2893 50.5927C99.1331 50.7372 99.0579 50.928 99.0579 51.1593C99.0579 51.3906 99.1331 51.5756 99.2893 51.7144C99.4397 51.8532 99.6421 51.9225 99.885 51.9225H99.8793ZM100.487 50.4944V49.9335L101.904 49.7832V50.3556L100.487 50.5002V50.4944Z" fill="white"/>
<path d="M103.969 53.6693L105.901 48.2227H106.89L108.816 53.6693H107.96L106.207 48.6332H106.485L104.744 53.6693H103.969ZM104.958 52.2353V51.6167H107.827V52.2353H104.958Z" fill="white"/>
<path d="M109.319 53.6688V47.7886L110.112 47.6787V53.6746H109.319V53.6688Z" fill="white"/>
<path d="M115.936 50.7899C116.312 50.8766 116.59 51.0327 116.781 51.2524C116.972 51.4721 117.064 51.7439 117.064 52.0734C117.064 52.5765 116.873 52.9697 116.492 53.2472C116.11 53.5305 115.578 53.6693 114.895 53.6693H113.224V48.2227H114.872C115.502 48.2227 115.977 48.3383 116.289 48.5696C116.601 48.8009 116.758 49.1246 116.758 49.5467C116.758 49.83 116.688 50.0787 116.544 50.2926C116.399 50.5065 116.197 50.6684 115.931 50.7841L115.936 50.7899ZM114.878 48.8702H114.022V50.5875H114.837C115.167 50.5875 115.439 50.5065 115.636 50.3446C115.838 50.1827 115.936 49.9688 115.936 49.7028C115.936 49.4369 115.844 49.2345 115.659 49.09C115.474 48.9454 115.213 48.8702 114.872 48.8702H114.878ZM114.901 53.0333C115.335 53.0333 115.67 52.9523 115.896 52.7904C116.127 52.6285 116.243 52.403 116.243 52.1081C116.243 51.5126 115.809 51.2119 114.941 51.2119H114.028V53.0333H114.901Z" fill="white"/>
<path d="M118.875 53.7842C118.487 53.7842 118.186 53.6917 117.966 53.5009C117.747 53.3101 117.643 53.0442 117.643 52.7088C117.643 52.3908 117.758 52.1248 117.995 51.9051C118.227 51.6854 118.609 51.5813 119.129 51.5813H120.095V52.1133H119.146C118.88 52.1133 118.69 52.1653 118.574 52.2636C118.458 52.3619 118.4 52.4833 118.4 52.6336C118.4 52.8013 118.458 52.9401 118.58 53.0384C118.701 53.1367 118.88 53.1887 119.123 53.1887C119.505 53.1887 119.823 53.0788 120.078 52.8649L120.199 52.9863L119.783 53.5877C119.499 53.7322 119.193 53.8016 118.869 53.8016L118.875 53.7842ZM120.772 53.7438C120.54 53.7438 120.367 53.6802 120.257 53.553C120.147 53.4258 120.089 53.2754 120.089 53.0904V52.9574H120.026V51.1997C120.026 50.9222 119.95 50.7198 119.8 50.5926C119.65 50.4654 119.424 50.4018 119.129 50.4018C118.921 50.4018 118.707 50.4249 118.499 50.477C118.29 50.529 118.1 50.5926 117.926 50.6735L118.036 50.0317C118.186 49.9624 118.371 49.9045 118.597 49.8525C118.823 49.8005 119.06 49.7773 119.32 49.7773C119.806 49.7773 120.176 49.8814 120.425 50.0953C120.674 50.3093 120.795 50.6389 120.795 51.0898V52.8418C120.795 53.0615 120.893 53.1656 121.09 53.1656C121.171 53.1656 121.24 53.154 121.304 53.1367L121.223 53.6686C121.096 53.7149 120.94 53.738 120.766 53.738L120.772 53.7438Z" fill="white"/>
<path d="M121.865 53.6688V47.7886L122.658 47.6787V49.8354L122.629 50.5292H122.658V53.6746H121.865V53.6688ZM124.445 51.3098C124.445 51.0207 124.37 50.7952 124.225 50.6449C124.08 50.4945 123.866 50.4136 123.589 50.4136C123.236 50.4136 122.929 50.5234 122.663 50.7374L122.611 50.5119L122.935 49.9742C123.01 49.9337 123.126 49.8932 123.288 49.8469C123.45 49.8007 123.641 49.7833 123.872 49.7833C124.3 49.7833 124.63 49.8932 124.867 50.1187C125.104 50.3442 125.226 50.6738 125.226 51.1132V53.4665H124.445V51.3098ZM124.445 53.6688V53.3046H125.226V53.6688H124.445Z" fill="white"/>
<path d="M127.111 53.7842C126.724 53.7842 126.423 53.6917 126.203 53.5009C125.983 53.3101 125.879 53.0442 125.879 52.7088C125.879 52.3908 125.995 52.1248 126.232 51.9051C126.463 51.6854 126.845 51.5813 127.366 51.5813H128.332V52.1133H127.383C127.117 52.1133 126.926 52.1653 126.811 52.2636C126.695 52.3619 126.637 52.4833 126.637 52.6336C126.637 52.8013 126.695 52.9401 126.816 53.0384C126.938 53.1367 127.117 53.1887 127.36 53.1887C127.742 53.1887 128.06 53.0788 128.314 52.8649L128.436 52.9863L128.019 53.5877C127.736 53.7322 127.429 53.8016 127.106 53.8016L127.111 53.7842ZM129.003 53.7438C128.771 53.7438 128.598 53.6802 128.488 53.553C128.378 53.4258 128.32 53.2754 128.32 53.0904V52.9574H128.257V51.1997C128.257 50.9222 128.181 50.7198 128.031 50.5926C127.881 50.4654 127.655 50.4018 127.36 50.4018C127.152 50.4018 126.938 50.4249 126.73 50.477C126.521 50.529 126.33 50.5926 126.157 50.6735L126.267 50.0317C126.417 49.9624 126.602 49.9045 126.828 49.8525C127.053 49.8005 127.291 49.7773 127.551 49.7773C128.037 49.7773 128.407 49.8814 128.656 50.0953C128.904 50.3093 129.026 50.6389 129.026 51.0898V52.8418C129.026 53.0615 129.124 53.1656 129.321 53.1656C129.402 53.1656 129.471 53.154 129.535 53.1367L129.454 53.6686C129.327 53.7149 129.17 53.738 128.997 53.738L129.003 53.7438Z" fill="white"/>
<path d="M132.23 53.6693V48.2227H133.89C134.59 48.2227 135.117 48.3556 135.481 48.6274C135.84 48.8934 136.019 49.2865 136.019 49.8011C136.019 50.2059 135.903 50.547 135.672 50.8245C135.441 51.1021 135.117 51.2813 134.694 51.3796L136.233 53.6693H135.296L133.862 51.5415H133.046V53.6693H132.23ZM133.85 50.9055C134.278 50.9055 134.608 50.8188 134.839 50.6395C135.07 50.4603 135.186 50.2059 135.186 49.8763C135.186 49.5583 135.076 49.3154 134.856 49.142C134.637 48.9743 134.313 48.8876 133.896 48.8876H133.052V50.8997H133.856L133.85 50.9055Z" fill="white"/>
<path d="M138.391 53.7844C137.76 53.7844 137.28 53.6167 136.945 53.2872C136.615 52.9576 136.447 52.4892 136.447 51.8937C136.447 51.489 136.522 51.1247 136.679 50.8067C136.829 50.4887 137.049 50.2401 137.338 50.0608C137.627 49.8816 137.963 49.7891 138.339 49.7891C138.807 49.7891 139.177 49.9278 139.455 50.2111C139.733 50.4945 139.866 50.8703 139.866 51.3328C139.866 51.5583 139.854 51.7491 139.825 51.911H137.147V51.3791H139.264L139.119 51.6046C139.131 51.5237 139.143 51.4427 139.143 51.3733C139.143 51.0553 139.067 50.8125 138.911 50.639C138.761 50.4713 138.541 50.3846 138.263 50.3846C137.945 50.3846 137.691 50.5118 137.511 50.7604C137.326 51.0091 137.234 51.356 137.234 51.7896C137.234 52.2233 137.338 52.5586 137.552 52.7957C137.766 53.0327 138.096 53.1542 138.547 53.1542C138.778 53.1542 138.992 53.131 139.195 53.079C139.397 53.027 139.565 52.9634 139.709 52.8824L139.605 53.5127C139.478 53.5878 139.305 53.6514 139.091 53.7035C138.877 53.7555 138.639 53.7844 138.385 53.7844H138.391Z" fill="white"/>
<path d="M142 55.7039C141.421 55.7039 140.976 55.6056 140.664 55.4033C140.346 55.2009 140.189 54.9292 140.189 54.5822C140.189 54.3336 140.294 54.1255 140.508 53.9636C140.722 53.8017 141.022 53.6803 141.421 53.6051L141.531 53.7785C141.179 53.9636 140.999 54.1833 140.999 54.4377C140.999 54.6227 141.098 54.773 141.288 54.9002C141.479 55.0275 141.757 55.0911 142.116 55.0911C142.503 55.0911 142.804 55.0275 143.03 54.9002C143.249 54.773 143.359 54.5996 143.359 54.3799C143.359 54.2122 143.29 54.0792 143.157 53.9925C143.024 53.9057 142.833 53.8595 142.584 53.8595H141.618C141.335 53.8595 141.103 53.7901 140.93 53.6513C140.756 53.5126 140.67 53.3276 140.67 53.0963C140.67 52.9113 140.727 52.7436 140.843 52.5932C140.959 52.4429 141.115 52.3041 141.312 52.1885L141.566 52.2984C141.381 52.4834 141.288 52.6453 141.288 52.7956C141.288 52.9228 141.329 53.0153 141.416 53.0731C141.502 53.131 141.635 53.1599 141.826 53.1599H142.792C143.238 53.1599 143.573 53.2524 143.787 53.4432C144.007 53.634 144.111 53.8942 144.111 54.2238C144.111 54.6863 143.926 55.0448 143.55 55.305C143.174 55.5652 142.654 55.6924 141.983 55.6924L142 55.7039ZM142.069 52.5123C141.589 52.5123 141.202 52.3967 140.918 52.1596C140.635 51.9283 140.49 51.6103 140.49 51.2171C140.49 50.9338 140.56 50.6794 140.693 50.4655C140.826 50.2458 141.017 50.0781 141.26 49.9624C141.502 49.841 141.769 49.7832 142.069 49.7832C142.301 49.7832 142.509 49.8121 142.7 49.8699C142.891 49.9278 143.047 50.0087 143.18 50.1186L143.244 50.2689C143.365 50.3614 143.463 50.4828 143.527 50.6274C143.596 50.7719 143.631 50.9338 143.631 51.1131C143.631 51.3848 143.567 51.6277 143.434 51.8416C143.301 52.0555 143.116 52.2174 142.885 52.3331C142.654 52.4487 142.382 52.5065 142.075 52.5065L142.069 52.5123ZM142.069 51.9225C142.312 51.9225 142.509 51.8531 142.659 51.7086C142.81 51.5641 142.885 51.379 142.885 51.1362C142.885 50.8933 142.81 50.7199 142.659 50.5811C142.509 50.4424 142.312 50.373 142.069 50.373C141.826 50.373 141.635 50.4481 141.479 50.5927C141.323 50.7372 141.248 50.928 141.248 51.1593C141.248 51.3906 141.323 51.5756 141.479 51.7144C141.63 51.8532 141.832 51.9225 142.075 51.9225H142.069ZM142.682 50.4944V49.9335L144.1 49.7832V50.3556L142.682 50.5002V50.4944Z" fill="white"/>
<path d="M145.031 49.0723C144.886 49.0723 144.771 49.026 144.678 48.9393C144.585 48.8525 144.539 48.7369 144.528 48.5924C144.528 48.4594 144.574 48.3437 144.672 48.257C144.765 48.1703 144.886 48.124 145.031 48.124C145.175 48.124 145.291 48.1703 145.389 48.257C145.482 48.3437 145.534 48.4594 145.534 48.5924C145.534 48.7369 145.488 48.8525 145.389 48.9393C145.297 49.026 145.175 49.0723 145.031 49.0723ZM144.632 53.6689V49.9453L145.424 49.8355V53.6689H144.632Z" fill="white"/>
<path d="M148.044 53.7843C147.46 53.7843 146.998 53.6109 146.65 53.264C146.303 52.917 146.13 52.4487 146.13 51.8474C146.13 51.4311 146.211 51.0726 146.367 50.7604C146.529 50.4481 146.749 50.2053 147.038 50.0376C147.327 49.8699 147.663 49.7832 148.039 49.7832C148.623 49.7832 149.086 49.9567 149.427 50.2978C149.768 50.6389 149.942 51.1131 149.942 51.7086C149.942 52.1249 149.866 52.4892 149.71 52.8014C149.554 53.1194 149.334 53.3622 149.045 53.5299C148.756 53.6976 148.42 53.7843 148.044 53.7843ZM148.044 53.1541C148.386 53.1541 148.652 53.0327 148.848 52.784C149.045 52.5354 149.143 52.2001 149.143 51.7838C149.143 51.3675 149.045 51.0379 148.848 50.7893C148.652 50.5406 148.386 50.4192 148.044 50.4192C147.703 50.4192 147.437 50.5406 147.235 50.7893C147.032 51.0379 146.934 51.3675 146.934 51.7838C146.934 52.2058 147.032 52.5412 147.235 52.784C147.437 53.0327 147.703 53.1541 148.044 53.1541Z" fill="white"/>
<path d="M150.647 53.6688V49.9452L151.347 49.8411L151.399 50.5754L151.44 50.5985V53.6688H150.647ZM153.227 51.3097C153.227 51.0206 153.152 50.7951 153.002 50.6448C152.851 50.4945 152.637 50.4135 152.348 50.4135C151.995 50.4135 151.694 50.5176 151.44 50.7315L151.347 50.5407L151.671 49.9914C151.752 49.951 151.874 49.9047 152.041 49.8584C152.209 49.8122 152.412 49.7891 152.649 49.7891C153.077 49.7891 153.406 49.8989 153.644 50.1244C153.881 50.3499 154.002 50.6795 154.002 51.1189V53.4722H153.221V51.3155L153.227 51.3097ZM153.227 53.3045H154.008V53.6688H153.227V53.3045Z" fill="white"/>
</svg>
