<svg width="205" height="57" viewBox="0 0 205 57" fill="none" xmlns="http://www.w3.org/2000/svg">
<path d="M201.129 50.7366L203.333 53.616L203.402 52.3844L202.176 50.7539L203.57 49.0482L203.367 48.019L201.129 50.7366Z" fill="#00A79D"/>
<path d="M166.47 50.7253L164.272 53.6048L164.202 52.3732L165.429 50.7427L164.029 49.037L164.231 48.0078L166.47 50.7253Z" fill="#00A79D"/>
<path d="M180.884 42.9427V44.076H165.811V23.9663L166.944 24.9203V42.9427H180.884Z" fill="#00A79D"/>
<path d="M180.884 2.12207V3.25534H166.944V15.4033L165.811 14.455V2.12207H180.884Z" fill="#00A79D"/>
<path d="M168.269 48.6901L166.204 46.0073L167.187 45.961L168.315 47.4297L169.657 45.9321L170.536 46.1634L168.269 48.6901Z" fill="#00A79D"/>
<path d="M169.443 55.8364L168.223 54.3967L167.089 55.7786L166.464 55.264L168.211 53.1362L170.056 55.3103L169.443 55.8364Z" fill="#00A79D"/>
<path d="M176.164 48.6898L173.995 45.874L175.083 45.9608L176.211 47.4294L177.553 45.9318L178.553 46.0359L176.164 48.6898Z" fill="#00A79D"/>
<path d="M177.339 55.8364L176.118 54.3967L174.99 55.7786L174.36 55.264L176.106 53.1362L177.957 55.3103L177.339 55.8364Z" fill="#00A79D"/>
<path d="M183.886 48.6901L181.844 46.0362L182.805 45.961L183.932 47.4297L185.274 45.9321L186.159 46.1634L183.886 48.6901Z" fill="#00A79D"/>
<path d="M185.06 55.8364L183.84 54.3967L182.706 55.7786L182.082 55.264L183.828 53.1362L185.674 55.3103L185.06 55.8364Z" fill="#00A79D"/>
<path d="M191.539 48.6901L189.601 46.1692L190.457 45.961L191.585 47.4297L192.927 45.9321L193.858 46.1114L191.539 48.6901Z" fill="#00A79D"/>
<path d="M192.713 55.8364L191.492 54.3967L190.365 55.7786L189.74 55.264L191.487 53.1362L193.332 55.3103L192.713 55.8364Z" fill="#00A79D"/>
<path d="M199.434 48.6901L197.439 46.0882L198.358 45.961L199.486 47.4297L200.828 45.9321L201.638 46.2444L199.434 48.6901Z" fill="#00A79D"/>
<path d="M200.608 55.8364L199.394 54.3967L198.26 55.7786L197.635 55.264L199.382 53.1362L201.227 55.3103L200.608 55.8364Z" fill="#00A79D"/>
<path d="M172.185 53.4314L174.261 50.7312L172.185 48.1987L170.068 50.7312L172.185 53.4314ZM173.428 50.7428L172.173 52.3733L170.889 50.7428L172.173 49.2106L173.428 50.7428Z" fill="#00A79D"/>
<path d="M180.069 53.4314L182.145 50.7312L180.069 48.1987L177.946 50.7312L180.069 53.4314ZM181.318 50.7428L180.063 52.3733L178.785 50.7428L180.063 49.2106L181.318 50.7428Z" fill="#00A79D"/>
<path d="M187.791 53.4314L189.867 50.7312L187.791 48.1987L185.674 50.7312L187.791 53.4314ZM189.04 50.7428L187.785 52.3733L186.506 50.7428L187.785 49.2106L189.04 50.7428Z" fill="#00A79D"/>
<path d="M195.57 53.4314L197.647 50.7312L195.57 48.1987L193.453 50.7312L195.57 53.4314ZM196.82 50.7428L195.565 52.3733L194.286 50.7428L195.565 49.2106L196.82 50.7428Z" fill="#00A79D"/>
<path d="M163.416 0V56.3048H204.2V0H163.416ZM164.549 18.8781L182.608 34.0905L175.459 40.1616L176.193 41.0231L182.949 35.2931V45.2613H164.549V18.8781ZM186.992 46.3945L183.903 50.0776L181.046 46.3945H186.992ZM179.265 46.3945L176.193 50.0776L173.318 46.3945H179.265ZM171.358 46.3945L168.286 50.0776L165.429 46.3945H171.358ZM164.549 46.5738L167.765 50.7021L164.549 54.5471V46.5738ZM165.07 55.1773L168.269 51.3497L171.236 55.1773H165.076H165.07ZM168.807 50.7194L172.364 46.4639L175.649 50.7021L172.092 54.9576L168.807 50.7194ZM172.96 55.1773L176.158 51.3497L179.143 55.1773H172.96ZM176.696 50.7194L180.167 46.568L183.383 50.6963L179.912 54.8478L176.696 50.7194ZM180.682 55.1773L183.88 51.3497L186.865 55.1773H180.682ZM184.418 50.7194L187.848 46.6258L191.03 50.7021L187.6 54.8131L184.418 50.7194ZM188.699 46.3945H194.645L191.556 50.0776L188.699 46.3945ZM188.34 55.1773L191.539 51.3497L194.523 55.1773H188.34ZM192.077 50.7194L195.634 46.4639L198.919 50.7021L195.362 54.9576L192.077 50.7194ZM196.606 46.3945H202.534L199.463 50.0776L196.606 46.3945ZM196.241 55.1773L199.44 51.3497L202.407 55.1773H196.247H196.241ZM203.055 54.709L199.966 50.7194L203.055 47.019V54.709ZM203.055 45.2613H184.083V35.3278L190.856 41.0231L191.591 40.1616L184.366 34.0905L200.522 20.3872V42.9485H186.576V44.0817H201.649V2.1162H186.576V3.24947H200.522V18.8955L184.083 32.8358V13.7091L189.167 18.3057L189.942 17.4789L184.985 13.0094H191.221V11.8762H184.985L189.942 7.38358L189.167 6.55675L184.083 11.1534V5.60273H182.949V11.1534L177.865 6.55675L177.113 7.38358L182.053 11.8762H175.817V13.0094H182.053L177.113 17.4789L177.865 18.3057L182.949 13.7091V32.8936L164.549 17.4095V1.13905H203.055V45.267V45.2613Z" fill="white"/>
<path d="M52.1679 20.5257C50.7218 20.5257 49.6517 20.225 48.9576 19.6237C48.2693 19.0224 47.928 18.1146 47.9396 16.9119C47.9396 16.4725 48.0148 15.8249 48.171 14.9692H49.5708C49.4262 15.6515 49.3567 16.195 49.3567 16.5997C49.3567 17.334 49.5939 17.8891 50.0624 18.2591C50.5367 18.6292 51.2482 18.82 52.2026 18.82C53.0124 18.82 53.6313 18.7217 54.0535 18.5309C54.4758 18.3401 54.6898 18.0626 54.6898 17.6983C54.6898 17.5248 54.632 17.282 54.5221 16.9755L55.8698 16.7269C55.9797 17.1548 56.0375 17.5422 56.0375 17.8949C56.0375 18.7275 55.702 19.3751 55.0253 19.8376C54.3485 20.3002 53.3999 20.5257 52.1679 20.5257ZM50.9011 23.0408C50.6351 23.0408 50.4268 22.9599 50.2649 22.8038C50.1087 22.6419 50.0219 22.4453 50.0104 22.2024C50.0104 21.948 50.0913 21.7457 50.2591 21.5838C50.421 21.4219 50.6351 21.3467 50.9011 21.3467C51.1672 21.3467 51.3639 21.4277 51.5374 21.5838C51.7051 21.7399 51.7919 21.948 51.7919 22.2024C51.7919 22.4568 51.7051 22.6419 51.5374 22.8038C51.3697 22.9599 51.1556 23.0408 50.9011 23.0408ZM53.2669 23.0408C53.0008 23.0408 52.7926 22.9599 52.6364 22.8038C52.4802 22.6477 52.3935 22.4453 52.3819 22.2024C52.3703 21.948 52.4513 21.7457 52.619 21.5838C52.7868 21.4219 53.0066 21.3467 53.2669 21.3467C53.5272 21.3467 53.7296 21.4277 53.9031 21.5838C54.0709 21.7399 54.1576 21.948 54.1576 22.2024C54.1576 22.4568 54.0709 22.6419 53.9031 22.8038C53.7354 22.9599 53.5214 23.0408 53.2669 23.0408ZM55.1757 17.4959L53.2842 17.0507V15.4549L55.274 15.8307H56.3614C56.4598 15.8307 56.5118 15.877 56.5118 15.9637V17.3456C56.5118 17.4439 56.4598 17.4959 56.3614 17.4959H55.1757ZM60.9888 15.7902L60.098 15.1311C59.1899 14.4604 58.49 14.0094 58.0099 13.7723C57.5298 13.5353 57.0498 13.4196 56.5754 13.4196C56.1821 13.4196 55.7425 13.5006 55.2566 13.6683V12.3384C55.5516 12.1765 55.8582 12.0493 56.1763 11.9626C56.4945 11.8758 56.7779 11.8296 57.0324 11.8296C57.3968 11.8296 57.7612 11.9048 58.1256 12.0493C58.49 12.1939 58.9238 12.4367 59.4155 12.7663C59.9072 13.0958 60.5608 13.57 61.3763 14.2002L60.983 15.796L60.9888 15.7902ZM56.3614 17.4959C56.2631 17.4959 56.211 17.4439 56.211 17.3456V15.9637C56.211 15.877 56.2631 15.8307 56.3614 15.8307C56.9977 15.8307 57.6166 15.7324 58.2182 15.5358C58.8197 15.3392 59.4618 15.027 60.1443 14.5992L60.983 15.7845C60.2484 16.2123 59.6527 16.5419 59.1899 16.779C58.7272 17.016 58.2702 17.1953 57.8133 17.3109C57.3563 17.4323 56.8704 17.4901 56.3556 17.4901L56.3614 17.4959ZM59.08 20.4274C58.8255 20.4274 58.6173 20.3464 58.4553 20.1903C58.2876 20.0284 58.2008 19.8318 58.1892 19.589C58.1892 19.3346 58.276 19.1322 58.4438 18.9703C58.6115 18.8084 58.8255 18.7333 59.08 18.7333C59.3345 18.7333 59.5427 18.8142 59.7105 18.9703C59.8782 19.1264 59.965 19.3346 59.965 19.589C59.965 19.8434 59.8782 20.0284 59.7105 20.1903C59.5427 20.3464 59.3287 20.4274 59.08 20.4274ZM62.2382 17.4959C61.6656 17.4959 61.1334 17.415 60.636 17.2589C60.1385 17.1027 59.6411 16.8426 59.1436 16.4956L59.5543 15.6226C59.9361 15.6977 60.3583 15.7555 60.8211 15.7845C61.2838 15.8191 61.7523 15.8365 62.2382 15.8365C62.3365 15.8365 62.3886 15.8828 62.3886 15.9695V17.3514C62.3886 17.4497 62.3365 17.5017 62.2382 17.5017V17.4959Z" fill="white"/>
<path d="M62.2382 17.4958C62.1398 17.4958 62.0878 17.4437 62.0878 17.3454V15.9636C62.0878 15.8768 62.134 15.8306 62.2382 15.8306H63.8809C63.9792 15.8306 64.0313 15.8768 64.0313 15.9636V17.3454C64.0313 17.4437 63.9792 17.4958 63.8809 17.4958H62.2382Z" fill="white"/>
<path d="M63.8809 17.4958C63.7825 17.4958 63.7305 17.4437 63.7305 17.3454V15.9636C63.7305 15.8768 63.7767 15.8306 63.8809 15.8306H65.5236C65.6219 15.8306 65.674 15.8768 65.674 15.9636V17.3454C65.674 17.4437 65.6219 17.4958 65.5236 17.4958H63.8809Z" fill="white"/>
<path d="M65.5294 17.496C65.4311 17.496 65.379 17.444 65.379 17.3457V15.9638C65.379 15.8771 65.4253 15.8308 65.5294 15.8308H66.0211C66.5012 15.8308 66.8424 15.7441 67.0391 15.5649C67.2358 15.3914 67.3341 15.0676 67.3341 14.5935V12.5062L68.8496 12.2402V14.5935C68.8496 15.4955 68.6124 16.2009 68.1323 16.7155C67.6522 17.2301 66.9523 17.4903 66.0153 17.4903H65.5236L65.5294 17.496ZM66.9292 20.4275C66.6631 20.4275 66.4549 20.3466 66.2987 20.1904C66.1368 20.0285 66.0558 19.832 66.0442 19.5891C66.0442 19.3347 66.1252 19.1323 66.2929 18.9704C66.4607 18.8086 66.6689 18.7334 66.935 18.7334C67.2011 18.7334 67.3977 18.8143 67.5713 18.9704C67.739 19.1266 67.8257 19.3347 67.8257 19.5891C67.8257 19.8435 67.739 20.0285 67.5713 20.1904C67.4035 20.3466 67.1895 20.4275 66.935 20.4275H66.9292ZM70.2378 17.496C69.4048 17.496 68.7975 17.2648 68.41 16.808C68.0282 16.3454 67.8315 15.6111 67.8315 14.6051H68.8496C68.8496 14.9346 68.8958 15.189 68.9826 15.3625C69.0694 15.536 69.214 15.6632 69.4106 15.7325C69.6073 15.8019 69.8849 15.8424 70.232 15.8424H70.4807C70.579 15.8424 70.6311 15.8887 70.6311 15.9754V17.3573C70.6311 17.4556 70.579 17.5076 70.4807 17.5076H70.232L70.2378 17.496ZM69.3007 20.4275C69.0347 20.4275 68.8264 20.3466 68.6645 20.1904C68.5025 20.0285 68.4215 19.832 68.41 19.5891C68.3984 19.3347 68.4794 19.1323 68.6471 18.9704C68.8149 18.8086 69.0347 18.7334 69.2949 18.7334C69.5552 18.7334 69.7577 18.8143 69.9254 18.9704C70.0932 19.1266 70.1799 19.3347 70.1799 19.5891C70.1799 19.8435 70.0932 20.0285 69.9254 20.1904C69.7577 20.3466 69.5437 20.4275 69.2949 20.4275H69.3007Z" fill="white"/>
<path d="M70.4807 17.4958C70.3824 17.4958 70.3303 17.4437 70.3303 17.3454V15.9635C70.3303 15.8768 70.3766 15.8306 70.4807 15.8306H70.7121C71.1633 15.8306 71.4756 15.738 71.6607 15.5588C71.84 15.3796 71.9326 15.0558 71.9326 14.599V11.9509L73.448 11.7022V14.599C73.448 15.5761 73.234 16.2989 72.8118 16.7788C72.3895 17.2587 71.7301 17.4958 70.8278 17.4958H70.4807ZM71.5045 10.5574C71.2384 10.5574 71.0302 10.4822 70.874 10.3261C70.7121 10.17 70.6311 9.96764 70.6195 9.71901C70.6195 9.47617 70.7005 9.2738 70.8683 9.11191C71.036 8.95001 71.2442 8.86328 71.5103 8.86328C71.7764 8.86328 71.973 8.94423 72.1466 9.11191C72.3201 9.27958 72.4011 9.48195 72.4011 9.71901C72.4011 9.95607 72.3143 10.1758 72.1466 10.3261C71.9788 10.4764 71.7648 10.5574 71.5103 10.5574H71.5045ZM73.8703 10.5574C73.6042 10.5574 73.396 10.4822 73.234 10.3261C73.072 10.17 72.9911 9.96764 72.9795 9.71901C72.9679 9.47617 73.0489 9.2738 73.2166 9.11191C73.3844 8.95001 73.6042 8.86328 73.8645 8.86328C74.1248 8.86328 74.3272 8.94423 74.495 9.11191C74.6627 9.27958 74.7495 9.48195 74.7495 9.71901C74.7495 9.95607 74.6627 10.1758 74.495 10.3261C74.3272 10.4764 74.1132 10.5574 73.8645 10.5574H73.8703Z" fill="white"/>
<path d="M76.1781 17.496V7.70712L77.6762 7.4585V17.496H76.1781Z" fill="white"/>
<path d="M78.1506 20.5257L77.9019 18.8663H78.4629C79.1108 18.8663 79.5908 18.7101 79.909 18.4037C80.2271 18.0973 80.3891 17.6289 80.3891 17.0045V13.3214L81.1815 12.6969L81.9045 13.2867V17.0045C81.9045 18.2013 81.6153 19.086 81.0427 19.6584C80.4643 20.2366 79.5851 20.5199 78.3993 20.5199H78.1506V20.5257ZM81.1815 14.339V12.6969H85.4098V14.339H81.1815ZM84.224 10.4246C83.9579 10.4246 83.7497 10.3494 83.5935 10.1933C83.4316 10.0372 83.3506 9.83482 83.339 9.5862C83.339 9.34336 83.42 9.14099 83.5877 8.97909C83.7555 8.8172 83.9637 8.73047 84.2298 8.73047C84.4959 8.73047 84.6925 8.81142 84.866 8.97909C85.0396 9.14677 85.1206 9.34914 85.1206 9.5862C85.1206 9.82326 85.0338 10.043 84.866 10.1933C84.6983 10.3436 84.4843 10.4246 84.2298 10.4246H84.224ZM87.2839 17.4959C86.3873 17.4959 85.7221 17.2589 85.2999 16.779C84.8776 16.3048 84.6636 15.5763 84.6636 14.5992V11.7371L86.1791 11.4885V14.5992C86.1791 15.0617 86.2716 15.3797 86.4509 15.559C86.6302 15.7382 86.9484 15.8307 87.3995 15.8307H87.5499C87.6483 15.8307 87.7003 15.877 87.7003 15.9637V17.3456C87.7003 17.4439 87.6483 17.4959 87.5499 17.4959H87.2839ZM86.5955 10.4246C86.3295 10.4246 86.1212 10.3494 85.9593 10.1933C85.7973 10.0372 85.7163 9.83482 85.7048 9.5862C85.6932 9.34336 85.7742 9.14099 85.9419 8.97909C86.1097 8.8172 86.3295 8.73047 86.5897 8.73047C86.85 8.73047 87.0525 8.81142 87.2202 8.97909C87.388 9.14677 87.4747 9.34914 87.4747 9.5862C87.4747 9.82326 87.388 10.043 87.2202 10.1933C87.0525 10.3436 86.8385 10.4246 86.5897 10.4246H86.5955Z" fill="white"/>
<path d="M87.5499 17.4958C87.4516 17.4958 87.3995 17.4437 87.3995 17.3454V15.9636C87.3995 15.8768 87.4458 15.8306 87.5499 15.8306H89.1926C89.291 15.8306 89.343 15.8768 89.343 15.9636V17.3454C89.343 17.4437 89.291 17.4958 89.1926 17.4958H87.5499Z" fill="white"/>
<path d="M89.1926 17.4958C89.0943 17.4958 89.0422 17.4437 89.0422 17.3454V15.9635C89.0422 15.8768 89.0885 15.8306 89.1926 15.8306C89.557 15.8306 89.8347 15.7959 90.0371 15.7207C90.2396 15.6513 90.3842 15.5241 90.4709 15.3449C90.5577 15.1656 90.604 14.917 90.604 14.599V12.9396L92.1194 12.6909V14.599C92.1194 15.501 91.8765 16.2064 91.3848 16.721C90.899 17.2356 90.1644 17.4958 89.1868 17.4958H89.1926ZM93.7217 17.4958C92.8656 17.4958 92.2178 17.2471 91.7782 16.7557C91.3386 16.2642 91.1188 15.5415 91.1188 14.599H92.1252C92.1252 14.9922 92.2351 15.2986 92.4607 15.5125C92.6863 15.7265 93.016 15.8306 93.4556 15.8306C93.8952 15.8306 94.2365 15.7265 94.4505 15.5241C94.6645 15.3217 94.7686 15.0095 94.7686 14.5932V12.5059L96.2667 12.24V14.5932C96.2667 15.1945 96.1568 15.7149 95.937 16.1543C95.7172 16.5938 95.4107 16.9234 95.0231 17.1488C94.6356 17.3743 94.196 17.4842 93.7159 17.4842L93.7217 17.4958ZM97.7822 17.4958C96.9898 17.4958 96.3766 17.2356 95.9312 16.721C95.4859 16.2064 95.2661 15.501 95.2661 14.599H96.2725C96.2725 14.9806 96.394 15.2871 96.6427 15.501C96.8914 15.7149 97.2095 15.8306 97.6087 15.8306C98.378 15.8306 98.7597 15.42 98.7597 14.599V12.0665L100.275 11.8179V14.599C100.275 15.5415 100.061 16.2584 99.6447 16.7557C99.2225 17.2471 98.6035 17.4958 97.7938 17.4958H97.7822Z" fill="white"/>
<path d="M101.276 17.496L101.507 15.8366H105.915C106.013 15.8366 106.065 15.8828 106.065 15.9696V17.3514C106.065 17.4497 106.013 17.5018 105.915 17.5018H101.276V17.496ZM104.353 16.6287L103.202 9.55735L104.636 8.9965L105.278 13.2405C105.342 13.6568 105.406 14.1482 105.469 14.7149C105.533 15.2815 105.579 15.7903 105.625 16.2529L104.359 16.6287H104.353ZM105.851 17.496C105.753 17.496 105.701 17.444 105.701 17.3457V15.9638C105.701 15.877 105.747 15.8308 105.851 15.8308H106.048C106.499 15.8308 106.817 15.7383 107.002 15.559C107.187 15.3798 107.28 15.056 107.28 14.5992V7.72447L108.778 7.4585V14.5992C108.778 15.5764 108.558 16.2991 108.13 16.779C107.696 17.2589 107.025 17.496 106.111 17.496H105.845H105.851Z" fill="white"/>
<path d="M110.722 17.496V7.70712L112.22 7.4585V17.496H110.722Z" fill="white"/>
<path d="M119.687 17.496C118.623 17.496 117.83 17.2532 117.31 16.7733C116.789 16.2934 116.529 15.6458 116.529 14.8306C116.529 14.5241 116.552 14.1888 116.604 13.8245C116.656 13.4602 116.72 13.0844 116.812 12.6912H118.212C118.079 13.3157 118.015 13.8476 118.015 14.2871C118.015 14.8132 118.183 15.2006 118.519 15.455C118.854 15.7094 119.375 15.8308 120.092 15.8308H122.51C122.608 15.8308 122.66 15.8771 122.66 15.9638V17.3457C122.66 17.444 122.614 17.496 122.51 17.496H119.693H119.687ZM121.694 20.4275C121.44 20.4275 121.231 20.3466 121.069 20.1904C120.907 20.0285 120.815 19.832 120.803 19.5891C120.803 19.3347 120.89 19.1323 121.058 18.9704C121.226 18.8086 121.44 18.7334 121.688 18.7334C121.937 18.7334 122.151 18.8143 122.325 18.9704C122.492 19.1266 122.579 19.3347 122.579 19.5891C122.579 19.8435 122.492 20.0285 122.325 20.1904C122.157 20.3466 121.943 20.4275 121.688 20.4275H121.694ZM122.504 17.496C122.406 17.496 122.354 17.444 122.354 17.3457V15.9638C122.354 15.8771 122.4 15.8308 122.504 15.8308H122.996C123.476 15.8308 123.817 15.7441 124.014 15.5649C124.21 15.3914 124.309 15.0676 124.309 14.5935V12.5062L125.824 12.2402V14.5935C125.824 15.4955 125.587 16.2009 125.107 16.7155C124.627 17.2301 123.927 17.4903 122.99 17.4903H122.498L122.504 17.496ZM127.206 17.496C126.374 17.496 125.766 17.2648 125.379 16.808C124.997 16.3454 124.8 15.6111 124.8 14.6051H125.818C125.818 14.9346 125.865 15.189 125.951 15.3625C126.038 15.536 126.183 15.6632 126.379 15.7325C126.576 15.8019 126.848 15.8424 127.201 15.8424H127.449C127.548 15.8424 127.6 15.8887 127.6 15.9754V17.3573C127.6 17.4556 127.554 17.5076 127.449 17.5076H127.201L127.206 17.496Z" fill="white"/>
<path d="M127.455 17.4959C127.357 17.4959 127.305 17.4439 127.305 17.3456V15.9637C127.305 15.877 127.351 15.8307 127.455 15.8307H127.947C128.427 15.8307 128.768 15.744 128.965 15.5648C129.162 15.3913 129.26 15.0675 129.26 14.5934V12.5061L130.775 12.2401V14.5934C130.775 15.4954 130.538 16.2008 130.058 16.7154C129.578 17.23 128.878 17.4902 127.941 17.4902H127.45L127.455 17.4959ZM128.791 11.1184C128.525 11.1184 128.317 11.0433 128.155 10.8872C127.993 10.731 127.912 10.5287 127.901 10.28C127.901 10.0372 127.982 9.83484 128.149 9.67294C128.311 9.51105 128.525 9.42432 128.791 9.42432C129.058 9.42432 129.254 9.50526 129.428 9.67294C129.595 9.83484 129.682 10.043 129.682 10.28C129.682 10.5171 129.595 10.7368 129.428 10.8872C129.26 11.0433 129.046 11.1184 128.791 11.1184ZM132.164 17.4959C131.331 17.4959 130.723 17.2647 130.336 16.8079C129.954 16.3453 129.757 15.611 129.757 14.605H130.775C130.775 14.9345 130.822 15.1889 130.909 15.3624C130.995 15.5359 131.14 15.6631 131.337 15.7324C131.533 15.8018 131.811 15.8423 132.158 15.8423H132.407C132.505 15.8423 132.557 15.8886 132.557 15.9753V17.3572C132.557 17.4555 132.505 17.5075 132.407 17.5075H132.158L132.164 17.4959ZM131.157 11.1184C130.891 11.1184 130.683 11.0433 130.527 10.8872C130.365 10.731 130.284 10.5287 130.272 10.28C130.261 10.0372 130.342 9.83484 130.509 9.67294C130.677 9.51105 130.897 9.42432 131.157 9.42432C131.418 9.42432 131.62 9.50526 131.793 9.67294C131.961 9.83484 132.048 10.043 132.048 10.28C132.048 10.5171 131.961 10.7368 131.793 10.8872C131.626 11.0433 131.412 11.1184 131.157 11.1184Z" fill="white"/>
<path d="M132.412 17.496C132.314 17.496 132.262 17.444 132.262 17.3457V15.9638C132.262 15.8771 132.308 15.8308 132.412 15.8308H134.055C134.153 15.8308 134.205 15.8771 134.205 15.9638V17.3457C134.205 17.444 134.153 17.496 134.055 17.496H132.412ZM134.02 17.496C133.922 17.496 133.87 17.444 133.87 17.3457V15.9812C133.87 15.8944 133.916 15.8482 134.02 15.8482H134.431C135.143 15.8482 135.698 15.7267 136.085 15.4839C136.473 15.2411 136.67 14.9057 136.67 14.4663C136.67 13.9864 136.375 13.5585 135.79 13.1827C135.206 12.8126 134.281 12.4773 133.02 12.1766V10.1356L138.387 6.69531V8.76526L133.662 11.1821L133.511 10.9046C134.489 11.078 135.322 11.3382 136.01 11.6852C136.698 12.0321 137.231 12.4426 137.589 12.9167C137.954 13.3908 138.133 13.9112 138.133 14.4721C138.133 15.4145 137.803 16.1546 137.138 16.6866C136.473 17.2185 135.571 17.4845 134.431 17.4845H134.02V17.496ZM139.539 17.496C139.047 17.496 138.584 17.4382 138.156 17.3168C137.728 17.1954 137.3 17.0046 136.872 16.7386L137.219 15.3394C137.682 15.5244 138.075 15.6574 138.405 15.7267C138.735 15.7961 139.11 15.8366 139.539 15.8366C139.637 15.8366 139.689 15.8829 139.689 15.9696V17.3515C139.689 17.4498 139.643 17.5018 139.539 17.5018V17.496Z" fill="white"/>
<path d="M139.538 17.4958C139.44 17.4958 139.388 17.4438 139.388 17.3455V15.9636C139.388 15.8769 139.434 15.8306 139.538 15.8306C140.076 15.8306 140.556 15.7266 140.985 15.5184L141.592 16.75C141.36 16.9697 141.06 17.1431 140.695 17.2761C140.325 17.4091 139.943 17.4785 139.533 17.4901L139.538 17.4958ZM143.125 17.4958C142.292 17.4958 141.615 17.253 141.1 16.7731C140.585 16.2932 140.325 15.6572 140.325 14.865C140.325 14.2926 140.441 13.778 140.678 13.3213C140.915 12.8587 141.227 12.4944 141.615 12.2285C142.003 11.9625 142.419 11.8237 142.859 11.8237C143.472 11.8237 143.969 11.9972 144.339 12.3499C144.71 12.7026 145.022 13.2519 145.259 14.0093L145.525 14.8997C145.635 15.2524 145.762 15.4953 145.913 15.634C146.063 15.7728 146.26 15.8422 146.514 15.8422C146.613 15.8422 146.665 15.8885 146.665 15.9752V17.3571C146.665 17.4554 146.618 17.5074 146.514 17.5074C146.075 17.5074 145.67 17.3802 145.305 17.1316C144.935 16.8772 144.675 16.5013 144.524 15.9983L144.096 14.5991C143.987 14.2175 143.825 13.9168 143.605 13.7087C143.385 13.5005 143.125 13.3964 142.83 13.3964C142.5 13.3964 142.217 13.5352 141.979 13.8069C141.742 14.0787 141.627 14.4083 141.627 14.7957C141.627 15.1831 141.742 15.4548 141.979 15.6572C142.217 15.8595 142.552 15.9636 142.992 15.9636C143.275 15.9636 143.582 15.9289 143.906 15.8653C144.229 15.8017 144.519 15.7092 144.767 15.5994L145.247 16.9292C144.952 17.1027 144.617 17.2472 144.241 17.3513C143.871 17.4554 143.495 17.5074 143.125 17.5074V17.4958Z" fill="white"/>
<path d="M146.514 17.496C146.416 17.496 146.364 17.444 146.364 17.3457V15.9638C146.364 15.877 146.41 15.8308 146.514 15.8308H146.711C147.174 15.8308 147.492 15.7383 147.671 15.559C147.85 15.3798 147.943 15.056 147.943 14.5992V7.72447L149.441 7.4585V14.5992C149.441 15.5764 149.221 16.2991 148.793 16.779C148.359 17.2589 147.688 17.496 146.774 17.496H146.508H146.514Z" fill="white"/>
<path d="M151.385 17.496V7.70712L152.883 7.4585V17.496H151.385Z" fill="white"/>
<path d="M2.51613 36.8253C2.02448 36.8253 1.58488 36.7328 1.2089 36.5477C0.832927 36.3627 0.532147 36.0967 0.318131 35.7556C0.104115 35.4145 0 35.0155 0 34.553C0 33.8418 0.306563 33.1942 0.913906 32.6102C1.52125 32.0262 2.39466 31.5001 3.52259 31.0317L3.81758 32.35C2.14016 32.986 1.30145 33.6741 1.30145 34.4084C1.30145 34.6802 1.41135 34.8941 1.63115 35.0444C1.85095 35.1948 2.14594 35.2641 2.52192 35.2641C2.77642 35.2641 3.00779 35.2468 3.22759 35.2063C3.44739 35.1658 3.69033 35.1023 3.95062 35.0155L4.396 36.1314C4.12415 36.3512 3.82337 36.5188 3.49945 36.6403C3.17554 36.7617 2.85162 36.8195 2.52192 36.8195L2.51613 36.8253ZM1.90879 28.9329C1.64272 28.9329 1.43449 28.8577 1.27831 28.7016C1.11635 28.5455 1.03537 28.3431 1.02381 28.0945C1.02381 27.8517 1.10479 27.6493 1.27253 27.4874C1.44027 27.3255 1.6485 27.2388 1.91458 27.2388C2.18065 27.2388 2.37731 27.3197 2.55084 27.4874C2.72437 27.6551 2.80535 27.8574 2.80535 28.0945C2.80535 28.3316 2.71858 28.5513 2.55084 28.7016C2.3831 28.8519 2.16908 28.9329 1.91458 28.9329H1.90879ZM4.27454 28.9329C4.00846 28.9329 3.80023 28.8577 3.63827 28.7016C3.47631 28.5455 3.39534 28.3431 3.38377 28.0945C3.3722 27.8517 3.45318 27.6493 3.62092 27.4874C3.78866 27.3255 4.00846 27.2388 4.26875 27.2388C4.52904 27.2388 4.73149 27.3197 4.89923 27.4874C5.06697 27.6551 5.15374 27.8574 5.15374 28.0945C5.15374 28.3316 5.06697 28.5513 4.89923 28.7016C4.73149 28.8519 4.51747 28.9329 4.26875 28.9329H4.27454ZM6.00402 37.2416C5.10168 37.2416 4.44228 37.0045 4.02003 36.5246C3.59778 36.0505 3.38377 35.322 3.38377 34.3448V30.3321L4.89923 30.0835V34.3448C4.89923 34.8074 4.99178 35.1254 5.17109 35.3046C5.3504 35.4839 5.66853 35.5764 6.1197 35.5764H6.28166C6.37999 35.5764 6.43205 35.6226 6.43205 35.7094V37.0912C6.43205 37.1895 6.38577 37.2416 6.28166 37.2416H6.00402Z" fill="white"/>
<path d="M6.28748 37.2414C6.18914 37.2414 6.13708 37.1893 6.13708 37.091V35.7092C6.13708 35.6224 6.18336 35.5762 6.28748 35.5762H7.93019C8.02852 35.5762 8.08058 35.6224 8.08058 35.7092V37.091C8.08058 37.1893 8.02852 37.2414 7.93019 37.2414H6.28748Z" fill="white"/>
<path d="M7.93018 37.2414C7.83184 37.2414 7.77979 37.1893 7.77979 37.091V35.7092C7.77979 35.6224 7.82606 35.5762 7.93018 35.5762H9.57289C9.67123 35.5762 9.72328 35.6224 9.72328 35.7092V37.091C9.72328 37.1893 9.67123 37.2414 9.57289 37.2414H7.93018Z" fill="white"/>
<path d="M9.57288 37.2414C9.47454 37.2414 9.42249 37.1893 9.42249 37.091V35.7092C9.42249 35.6224 9.46876 35.5762 9.57288 35.5762H11.2156C11.3139 35.5762 11.366 35.6224 11.366 35.7092V37.091C11.366 37.1893 11.3139 37.2414 11.2156 37.2414H9.57288Z" fill="white"/>
<path d="M11.2214 37.2414C11.1231 37.2414 11.071 37.1893 11.071 37.091V35.7092C11.071 35.6224 11.1173 35.5762 11.2214 35.5762H12.8642C12.9625 35.5762 13.0145 35.6224 13.0145 35.7092V37.091C13.0145 37.1893 12.9625 37.2414 12.8642 37.2414H11.2214Z" fill="white"/>
<path d="M12.8641 37.2414C12.7658 37.2414 12.7137 37.1893 12.7137 37.091V35.7092C12.7137 35.6224 12.76 35.5762 12.8641 35.5762H14.5069C14.6052 35.5762 14.6572 35.6224 14.6572 35.7092V37.091C14.6572 37.1893 14.6052 37.2414 14.5069 37.2414H12.8641Z" fill="white"/>
<path d="M14.5126 37.2414C14.4142 37.2414 14.3622 37.1893 14.3622 37.091V35.7092C14.3622 35.6224 14.4085 35.5762 14.5126 35.5762H16.1553C16.2536 35.5762 16.3057 35.6224 16.3057 35.7092V37.091C16.3057 37.1893 16.2536 37.2414 16.1553 37.2414H14.5126Z" fill="white"/>
<path d="M16.1611 37.2414C16.0628 37.2414 16.0107 37.1893 16.0107 37.091V35.7092C16.0107 35.6224 16.057 35.5762 16.1611 35.5762H17.8039C17.9022 35.5762 17.9542 35.6224 17.9542 35.7092V37.091C17.9542 37.1893 17.9022 37.2414 17.8039 37.2414H16.1611Z" fill="white"/>
<path d="M17.8038 37.2414C17.7055 37.2414 17.6534 37.1893 17.6534 37.091V35.7092C17.6534 35.6224 17.6997 35.5762 17.8038 35.5762H19.4466C19.5449 35.5762 19.5969 35.6224 19.5969 35.7092V37.091C19.5969 37.1893 19.5449 37.2414 19.4466 37.2414H17.8038Z" fill="white"/>
<path d="M19.4524 37.2414C19.3541 37.2414 19.302 37.1893 19.302 37.091V35.7092C19.302 35.6224 19.3483 35.5762 19.4524 35.5762H21.0951C21.1934 35.5762 21.2455 35.6224 21.2455 35.7092V37.091C21.2455 37.1893 21.1934 37.2414 21.0951 37.2414H19.4524Z" fill="white"/>
<path d="M21.0951 37.2414C20.9968 37.2414 20.9447 37.1893 20.9447 37.091V35.7092C20.9447 35.6224 20.991 35.5762 21.0951 35.5762H22.7378C22.8361 35.5762 22.8882 35.6224 22.8882 35.7092V37.091C22.8882 37.1893 22.8361 37.2414 22.7378 37.2414H21.0951Z" fill="white"/>
<path d="M22.7435 37.2414C22.6452 37.2414 22.5931 37.1893 22.5931 37.091V35.7092C22.5931 35.6224 22.6394 35.5762 22.7435 35.5762H24.3862C24.4846 35.5762 24.5366 35.6224 24.5366 35.7092V37.091C24.5366 37.1893 24.4846 37.2414 24.3862 37.2414H22.7435Z" fill="white"/>
<path d="M24.3862 37.2414C24.2879 37.2414 24.2358 37.1893 24.2358 37.091V35.7092C24.2358 35.6224 24.2821 35.5762 24.3862 35.5762H26.0289C26.1273 35.5762 26.1793 35.6224 26.1793 35.7092V37.091C26.1793 37.1893 26.1273 37.2414 26.0289 37.2414H24.3862Z" fill="white"/>
<path d="M26.0348 37.2414C25.9365 37.2414 25.8844 37.1894 25.8844 37.0911V35.7092C25.8844 35.6225 25.9307 35.5762 26.0348 35.5762H27.6775C27.7758 35.5762 27.8279 35.6225 27.8279 35.7092V37.0911C27.8279 37.1894 27.7758 37.2414 27.6775 37.2414H26.0348ZM32.3049 35.53L31.4315 34.8708C30.5118 34.2001 29.8061 33.7491 29.326 33.5121C28.8459 33.275 28.3658 33.1594 27.8915 33.1594C27.4982 33.1594 27.0586 33.2403 26.5727 33.408V32.0781C26.8677 31.9163 27.1743 31.789 27.4924 31.7023C27.8105 31.6156 28.094 31.5693 28.3485 31.5693C28.7129 31.5693 29.0773 31.6445 29.4417 31.789C29.8061 31.9336 30.2399 32.1764 30.7316 32.506C31.2232 32.8356 31.8769 33.3097 32.6924 33.9399L32.2991 35.5358L32.3049 35.53ZM27.6775 37.2414C27.5792 37.2414 27.5271 37.1894 27.5271 37.0911V35.7092C27.5271 35.6225 27.5792 35.5762 27.6775 35.5762C28.3138 35.5762 28.9327 35.4779 29.54 35.2814C30.1416 35.0848 30.7836 34.7725 31.4662 34.3447L32.3049 35.53C31.5703 35.9578 30.9745 36.2874 30.5118 36.5245C30.049 36.7615 29.5921 36.9408 29.1351 37.0564C28.6782 37.1778 28.1923 37.2357 27.6775 37.2357V37.2414Z" fill="white"/>
<path d="M36.7935 37.2416C35.8969 37.2416 35.2317 37.0045 34.8095 36.5246C34.3872 36.0505 34.1732 35.322 34.1732 34.3448V27.4701L35.6713 27.2041V34.3448C35.6713 34.8074 35.7639 35.1254 35.949 35.3046C36.1341 35.4839 36.4522 35.5764 36.9034 35.5764H37.0711C37.1694 35.5764 37.2215 35.6226 37.2215 35.7094V37.0913C37.2215 37.1896 37.1694 37.2416 37.0711 37.2416H36.7935Z" fill="white"/>
<path d="M37.0768 37.2414C36.9784 37.2414 36.9264 37.1893 36.9264 37.091V35.7092C36.9264 35.6224 36.9727 35.5762 37.0768 35.5762H38.7195C38.8178 35.5762 38.8699 35.6224 38.8699 35.7092V37.091C38.8699 37.1893 38.8178 37.2414 38.7195 37.2414H37.0768Z" fill="white"/>
<path d="M38.7195 37.2414C38.6212 37.2414 38.5691 37.1893 38.5691 37.091V35.7092C38.5691 35.6224 38.6154 35.5762 38.7195 35.5762H40.3622C40.4605 35.5762 40.5126 35.6224 40.5126 35.7092V37.091C40.5126 37.1893 40.4605 37.2414 40.3622 37.2414H38.7195Z" fill="white"/>
<path d="M40.368 37.2412C40.2697 37.2412 40.2177 37.1892 40.2177 37.0909V35.709C40.2177 35.6223 40.2639 35.576 40.368 35.576H40.5994C41.0506 35.576 41.3629 35.4835 41.548 35.3043C41.7273 35.125 41.8199 34.8012 41.8199 34.3445V32.2572L43.3353 31.9912V34.3445C43.3353 34.9689 43.2197 35.5009 42.9883 35.9403C42.7569 36.3797 42.4446 36.7035 42.0397 36.9175C41.6406 37.1314 41.1836 37.2355 40.663 37.2355H40.368V37.2412ZM42.5545 40.1669C42.3 40.1669 42.0917 40.086 41.9298 39.9299C41.762 39.768 41.6753 39.5714 41.6637 39.3285C41.6637 39.0741 41.7505 38.8718 41.9182 38.7099C42.086 38.548 42.3 38.4728 42.5545 38.4728C42.809 38.4728 43.0172 38.5537 43.1907 38.7099C43.3585 38.866 43.4452 39.0741 43.4452 39.3285C43.4452 39.5829 43.3585 39.768 43.1907 39.9299C43.023 40.086 42.809 40.1669 42.5545 40.1669ZM44.7293 37.2412C43.8501 37.2412 43.2139 37.01 42.809 36.5532C42.4099 36.0906 42.2074 35.3563 42.2074 34.3503H43.3238C43.3238 34.6798 43.3701 34.9342 43.4568 35.1077C43.5436 35.2812 43.6882 35.4084 43.8848 35.4777C44.0815 35.5471 44.3649 35.5876 44.7236 35.5876C44.8219 35.5876 44.8739 35.6338 44.8739 35.7206V37.1025C44.8739 37.2008 44.8219 37.2528 44.7236 37.2528L44.7293 37.2412Z" fill="white"/>
<path d="M44.7294 37.2414C44.631 37.2414 44.579 37.1893 44.579 37.091V35.7092C44.579 35.6224 44.6253 35.5762 44.7294 35.5762H46.3721C46.4704 35.5762 46.5225 35.6224 46.5225 35.7092V37.091C46.5225 37.1893 46.4704 37.2414 46.3721 37.2414H44.7294Z" fill="white"/>
<path d="M46.3721 37.2416C46.2737 37.2416 46.2217 37.1896 46.2217 37.0913V35.7094C46.2217 35.6226 46.268 35.5764 46.3721 35.5764H46.5687C47.0315 35.5764 47.3496 35.4839 47.5289 35.3046C47.7082 35.1254 47.8008 34.8016 47.8008 34.3448V27.4701L49.2989 27.2041V34.3448C49.2989 35.322 49.0791 36.0447 48.651 36.5246C48.2172 37.0045 47.5463 37.2416 46.6324 37.2416H46.3663H46.3721Z" fill="white"/>
<path d="M51.2424 37.2416V27.4527L52.7405 27.2041V37.2416H51.2424Z" fill="white"/>
<path d="M59.6526 36.8253C59.161 36.8253 58.7213 36.7328 58.3454 36.5477C57.9694 36.3627 57.6686 36.0967 57.4546 35.7556C57.2406 35.4145 57.1365 35.0155 57.1365 34.553C57.1365 33.8418 57.443 33.1942 58.0504 32.6102C58.6577 32.0262 59.5311 31.5001 60.6591 31.0317L60.9541 32.35C59.2766 32.986 58.4379 33.6741 58.4379 34.4084C58.4379 34.6802 58.5478 34.8941 58.7676 35.0444C58.9874 35.1948 59.2824 35.2641 59.6584 35.2641C59.9129 35.2641 60.1443 35.2468 60.3641 35.2063C60.5839 35.1658 60.8268 35.1023 61.0871 35.0155L61.5325 36.1314C61.2606 36.3512 60.9598 36.5188 60.6359 36.6403C60.312 36.7617 59.9881 36.8195 59.6584 36.8195L59.6526 36.8253ZM59.0453 28.9329C58.7792 28.9329 58.571 28.8577 58.4148 28.7016C58.2528 28.5455 58.1719 28.3431 58.1603 28.0945C58.1603 27.8517 58.2413 27.6493 58.409 27.4874C58.5767 27.3255 58.785 27.2388 59.051 27.2388C59.3171 27.2388 59.5138 27.3197 59.6873 27.4874C59.8608 27.6551 59.9418 27.8574 59.9418 28.0945C59.9418 28.3316 59.8551 28.5513 59.6873 28.7016C59.5196 28.8519 59.3056 28.9329 59.051 28.9329H59.0453ZM61.4168 28.9329C61.1507 28.9329 60.9425 28.8577 60.7805 28.7016C60.6186 28.5455 60.5376 28.3431 60.526 28.0945C60.5145 27.8517 60.5954 27.6493 60.7632 27.4874C60.9309 27.3255 61.1507 27.2388 61.411 27.2388C61.6713 27.2388 61.8737 27.3197 62.0415 27.4874C62.2092 27.6551 62.296 27.8574 62.296 28.0945C62.296 28.3316 62.2092 28.5513 62.0415 28.7016C61.8737 28.8519 61.6597 28.9329 61.411 28.9329H61.4168ZM63.1405 37.2416C62.2382 37.2416 61.5788 37.0045 61.1565 36.5246C60.7343 36.0505 60.5202 35.322 60.5202 34.3448V30.3321L62.0357 30.0835V34.3448C62.0357 34.8074 62.1283 35.1254 62.3076 35.3046C62.4869 35.4839 62.805 35.5764 63.2562 35.5764H63.4181C63.5165 35.5764 63.5685 35.6226 63.5685 35.7094V37.0912C63.5685 37.1895 63.5223 37.2416 63.4181 37.2416H63.1405Z" fill="white"/>
<path d="M63.424 37.2414C63.3256 37.2414 63.2736 37.1893 63.2736 37.091V35.7092C63.2736 35.6224 63.3198 35.5762 63.424 35.5762H65.0667C65.165 35.5762 65.2171 35.6224 65.2171 35.7092V37.091C65.2171 37.1893 65.165 37.2414 65.0667 37.2414H63.424Z" fill="white"/>
<path d="M65.0667 37.2414C64.9683 37.2414 64.9163 37.1893 64.9163 37.091V35.7092C64.9163 35.6224 64.9625 35.5762 65.0667 35.5762H66.7094C66.8077 35.5762 66.8598 35.6224 66.8598 35.7092V37.091C66.8598 37.1893 66.8077 37.2414 66.7094 37.2414H65.0667Z" fill="white"/>
<path d="M66.7152 37.2414C66.6169 37.2414 66.5648 37.1893 66.5648 37.091V35.7092C66.5648 35.6224 66.6111 35.5762 66.7152 35.5762H68.3579C68.4563 35.5762 68.5083 35.6224 68.5083 35.7092V37.091C68.5083 37.1893 68.4563 37.2414 68.3579 37.2414H66.7152Z" fill="white"/>
<path d="M68.3578 37.2414C68.2595 37.2414 68.2074 37.1893 68.2074 37.091V35.7092C68.2074 35.6224 68.2537 35.5762 68.3578 35.5762H70.0005C70.0988 35.5762 70.1509 35.6224 70.1509 35.7092V37.091C70.1509 37.1893 70.0988 37.2414 70.0005 37.2414H68.3578Z" fill="white"/>
<path d="M70.0063 37.2414C69.908 37.2414 69.856 37.1893 69.856 37.091V35.7092C69.856 35.6224 69.9022 35.5762 70.0063 35.5762H71.6491C71.7474 35.5762 71.7995 35.6224 71.7995 35.7092V37.091C71.7995 37.1893 71.7474 37.2414 71.6491 37.2414H70.0063Z" fill="white"/>
<path d="M71.6317 37.2414C71.5449 37.2414 71.4987 37.1894 71.4987 37.0911V35.7266C71.4987 35.6398 71.5449 35.5936 71.6317 35.5936C72.106 35.5936 72.6034 35.582 73.1356 35.5589C73.6677 35.5358 74.0495 35.5068 74.2809 35.4606L74.4949 35.6398C75.0212 35.4953 75.4319 35.2871 75.7211 35.0038C76.0103 34.7263 76.155 34.4083 76.155 34.0556C76.155 33.674 76.0335 33.3675 75.7905 33.1362C75.5476 32.905 75.2584 32.7893 74.9171 32.7893C74.5759 32.7893 74.2982 32.8992 74.0784 33.1247C73.8586 33.3502 73.7487 33.6508 73.7487 34.0209C73.7487 34.3505 73.8933 34.6511 74.1768 34.9229C74.4602 35.1946 74.8304 35.3796 75.2815 35.4664C75.831 35.5126 76.3458 35.5415 76.8375 35.5589C77.3234 35.5762 77.8092 35.582 78.2951 35.582C78.3819 35.582 78.4281 35.6283 78.4281 35.715V37.0795C78.4281 37.1778 78.3819 37.2299 78.2951 37.2299C77.4969 37.2299 76.7623 37.1605 76.1087 37.0217C75.4493 36.883 74.8709 36.6864 74.3618 36.4204C73.6909 36.0388 73.1992 35.6225 72.8811 35.1773C72.563 34.7321 72.401 34.2522 72.401 33.7376C72.401 33.2866 72.5225 32.8703 72.7654 32.4887C73.0083 32.107 73.3265 31.7948 73.7256 31.5693C74.1247 31.338 74.5643 31.2224 75.0328 31.2224C75.5013 31.2224 75.9294 31.338 76.3169 31.5693C76.6987 31.8006 76.9994 32.107 77.2077 32.5002C77.4159 32.8934 77.52 33.3097 77.52 33.7607C77.52 34.2637 77.387 34.7205 77.1151 35.1195C76.8433 35.5184 76.4326 35.9174 75.8715 36.3105H75.5765C75.1022 36.5939 74.5643 36.8194 73.9569 36.987C73.3496 37.1547 72.5745 37.2357 71.6259 37.2357L71.6317 37.2414ZM73.8702 30.199C73.6041 30.199 73.3959 30.1238 73.2339 29.9677C73.0777 29.8116 72.991 29.6092 72.9794 29.3606C72.9794 29.1178 73.0604 28.9154 73.2281 28.7535C73.3901 28.5916 73.6041 28.5049 73.8702 28.5049C74.1363 28.5049 74.3329 28.5858 74.5064 28.7535C74.6742 28.9154 74.761 29.1236 74.761 29.3606C74.761 29.5977 74.6742 29.8174 74.5064 29.9677C74.3387 30.1238 74.1247 30.199 73.8702 30.199ZM76.2417 30.199C75.9756 30.199 75.7674 30.1238 75.6112 29.9677C75.4493 29.8116 75.3683 29.6092 75.3567 29.3606C75.3452 29.1178 75.4261 28.9154 75.5939 28.7535C75.7616 28.5916 75.9814 28.5049 76.2417 28.5049C76.502 28.5049 76.7045 28.5858 76.878 28.7535C77.0457 28.9154 77.1325 29.1236 77.1325 29.3606C77.1325 29.5977 77.0457 29.8174 76.878 29.9677C76.7102 30.1238 76.4962 30.199 76.2417 30.199Z" fill="white"/>
<path d="M78.3182 37.2416C78.2199 37.2416 78.1678 37.1896 78.1678 37.0913V35.7267C78.1678 35.64 78.2141 35.5937 78.3182 35.5937H79.718V27.4527L81.2161 27.2041V37.2416H78.3182ZM80.175 37.2416L80.4237 35.5937H84.6867C85.2882 35.5937 85.751 35.4723 86.0749 35.2237C86.3988 34.9751 86.5608 34.6281 86.5608 34.1772C86.5608 33.7262 86.4161 33.4139 86.1327 33.1653C85.8493 32.9167 85.4849 32.7953 85.0453 32.7953C84.7387 32.7953 84.4379 32.83 84.1372 32.8936C83.8422 32.9572 83.4257 33.0901 82.8935 33.281C82.3614 33.4718 81.5805 33.784 80.5509 34.2118L80.2386 33.0612C81.1583 32.5813 81.9044 32.2113 82.4771 31.9511C83.0497 31.6909 83.5472 31.5059 83.9752 31.3902C84.4032 31.2746 84.8081 31.2168 85.1957 31.2168C85.6873 31.2168 86.1501 31.3266 86.5781 31.5464C87.0061 31.7661 87.3532 32.1014 87.6135 32.5582C87.8738 33.015 88.0068 33.5527 88.0068 34.1772C88.0068 34.8016 87.868 35.3162 87.5961 35.7788C87.3243 36.2471 86.9251 36.6056 86.4104 36.8542C85.8956 37.1086 85.294 37.23 84.5999 37.23H80.175V37.2416ZM89.3892 37.2416C88.8976 37.2416 88.4348 37.1838 88.0068 37.0624C87.5788 36.9409 87.1507 36.7501 86.7227 36.4842L87.0698 35.0849C87.5325 35.2699 87.9258 35.4029 88.2555 35.4723C88.5852 35.5417 88.9612 35.5822 89.3892 35.5822C89.4876 35.5822 89.5396 35.6284 89.5396 35.7152V37.0971C89.5396 37.1953 89.4876 37.2474 89.3892 37.2474V37.2416Z" fill="white"/>
<path d="M89.3893 37.2415C89.291 37.2415 89.2389 37.1894 89.2389 37.0911V35.7093C89.2389 35.6225 89.2852 35.5763 89.3893 35.5763H89.6207C90.0718 35.5763 90.3842 35.4838 90.5693 35.3045C90.7486 35.1253 90.8411 34.8015 90.8411 34.3447V32.2574L92.3566 31.9914V34.3447C92.3566 34.9692 92.2409 35.5011 92.0095 35.9405C91.7782 36.38 91.4658 36.7038 91.0609 36.9177C90.6618 37.1316 90.2049 37.2357 89.6843 37.2357H89.3893V37.2415ZM91.5815 30.8582C91.327 30.8582 91.1188 30.7772 90.9568 30.6211C90.7891 30.465 90.7023 30.2626 90.6907 30.0198C90.6907 29.7654 90.7775 29.563 90.9452 29.4011C91.113 29.245 91.327 29.1641 91.5815 29.1641C91.836 29.1641 92.0442 29.245 92.2178 29.4011C92.3855 29.563 92.4723 29.7654 92.4723 30.0198C92.4723 30.2742 92.3855 30.4592 92.2178 30.6211C92.05 30.783 91.836 30.8582 91.5815 30.8582ZM93.7506 37.2415C92.8714 37.2415 92.2351 37.0102 91.8302 36.5534C91.4311 36.0909 91.2287 35.3566 91.2287 34.3505H92.345C92.345 34.6801 92.3913 34.9345 92.4781 35.1079C92.5648 35.2814 92.7094 35.4086 92.9061 35.478C93.1027 35.5474 93.3862 35.5878 93.7448 35.5878C93.8431 35.5878 93.8952 35.6341 93.8952 35.7208V37.1027C93.8952 37.201 93.8431 37.253 93.7448 37.253L93.7506 37.2415Z" fill="white"/>
<path d="M93.7506 37.2414C93.6523 37.2414 93.6002 37.1893 93.6002 37.091V35.7092C93.6002 35.6224 93.6465 35.5762 93.7506 35.5762H95.3933C95.4917 35.5762 95.5437 35.6224 95.5437 35.7092V37.091C95.5437 37.1893 95.4917 37.2414 95.3933 37.2414H93.7506Z" fill="white"/>
<path d="M100.564 37.2414C99.182 37.2414 97.8574 37.0274 96.5964 36.5996L96.9724 35.1541C98.0888 35.4952 99.1588 35.6629 100.183 35.6629C100.246 35.2697 100.281 34.9344 100.281 34.6568C100.281 34.1827 100.177 33.8127 99.9686 33.5409C99.7604 33.2692 99.4828 33.1304 99.1299 33.1304C98.8234 33.1304 98.5746 33.2345 98.3895 33.4426C98.2044 33.6508 98.0598 33.9746 97.9615 34.414L97.7128 35.5299C97.5797 36.0908 97.3137 36.5128 96.9146 36.8077C96.5154 37.0968 96.0064 37.2414 95.3933 37.2414C95.295 37.2414 95.2429 37.1893 95.2429 37.091V35.7091C95.2429 35.6224 95.2892 35.5762 95.3933 35.5762C95.7346 35.5762 96.0007 35.5126 96.1915 35.3796C96.3824 35.2466 96.5039 35.0442 96.5617 34.7725L96.7931 33.8531C96.9782 33.0957 97.279 32.5291 97.6896 32.1417C98.1003 31.7601 98.6036 31.5635 99.1935 31.5635C99.905 31.5635 100.472 31.8352 100.888 32.3845C101.305 32.9338 101.536 33.6912 101.577 34.6568C101.577 35.0384 101.536 35.4721 101.461 35.9578L100.553 37.2414H100.564Z" fill="white"/>
<path d="M104.023 40.2653L103.775 38.6059H104.336C105.07 38.6059 105.608 38.444 105.95 38.1202C106.291 37.7964 106.459 37.2761 106.459 36.5475V31.8121L107.974 31.5635V36.5475C107.974 37.808 107.673 38.7447 107.077 39.3518C106.482 39.9589 105.556 40.2653 104.307 40.2653H104.029H104.023ZM107.511 37.2414C107.413 37.2414 107.361 37.1893 107.361 37.091V35.7091C107.361 35.6224 107.413 35.5762 107.511 35.5762H109.356C109.455 35.5762 109.507 35.6224 109.507 35.7091V37.091C109.507 37.1893 109.455 37.2414 109.356 37.2414H107.511Z" fill="white"/>
<path d="M109.356 37.2414C109.258 37.2414 109.206 37.1893 109.206 37.091V35.7092C109.206 35.6224 109.252 35.5762 109.356 35.5762H110.999C111.097 35.5762 111.149 35.6224 111.149 35.7092V37.091C111.149 37.1893 111.097 37.2414 110.999 37.2414H109.356Z" fill="white"/>
<path d="M110.999 37.2414C110.901 37.2414 110.849 37.1893 110.849 37.091V35.7092C110.849 35.6224 110.895 35.5762 110.999 35.5762H112.642C112.74 35.5762 112.792 35.6224 112.792 35.7092V37.091C112.792 37.1893 112.74 37.2414 112.642 37.2414H110.999Z" fill="white"/>
<path d="M112.648 37.2414C112.549 37.2414 112.497 37.1893 112.497 37.091V35.7092C112.497 35.6224 112.543 35.5762 112.648 35.5762H114.29C114.389 35.5762 114.441 35.6224 114.441 35.7092V37.091C114.441 37.1893 114.389 37.2414 114.29 37.2414H112.648Z" fill="white"/>
<path d="M114.29 37.2414C114.192 37.2414 114.14 37.1893 114.14 37.091V35.7092C114.14 35.6224 114.186 35.5762 114.29 35.5762H115.933C116.031 35.5762 116.084 35.6224 116.084 35.7092V37.091C116.084 37.1893 116.031 37.2414 115.933 37.2414H114.29Z" fill="white"/>
<path d="M115.939 37.2414C115.841 37.2414 115.788 37.1893 115.788 37.091V35.7092C115.788 35.6224 115.835 35.5762 115.939 35.5762H117.582C117.68 35.5762 117.732 35.6224 117.732 35.7092V37.091C117.732 37.1893 117.68 37.2414 117.582 37.2414H115.939Z" fill="white"/>
<path d="M117.582 37.2414C117.483 37.2414 117.431 37.1893 117.431 37.091V35.7092C117.431 35.6224 117.477 35.5762 117.582 35.5762H119.224C119.323 35.5762 119.375 35.6224 119.375 35.7092V37.091C119.375 37.1893 119.323 37.2414 119.224 37.2414H117.582Z" fill="white"/>
<path d="M119.23 37.2414C119.132 37.2414 119.08 37.1893 119.08 37.091V35.7092C119.08 35.6224 119.126 35.5762 119.23 35.5762H120.873C120.971 35.5762 121.023 35.6224 121.023 35.7092V37.091C121.023 37.1893 120.971 37.2414 120.873 37.2414H119.23Z" fill="white"/>
<path d="M120.873 37.2414C120.774 37.2414 120.722 37.1893 120.722 37.091V35.7092C120.722 35.6224 120.769 35.5762 120.873 35.5762H122.516C122.614 35.5762 122.666 35.6224 122.666 35.7092V37.091C122.666 37.1893 122.614 37.2414 122.516 37.2414H120.873Z" fill="white"/>
<path d="M122.521 37.2413C122.423 37.2413 122.371 37.1893 122.371 37.091V35.7091C122.371 35.6223 122.417 35.5761 122.521 35.5761H123.869C124.32 35.5761 124.632 35.4836 124.818 35.3043C124.997 35.1251 125.089 34.8013 125.089 34.3445V31.6964L126.605 31.4478V34.3445C126.605 35.3217 126.391 36.0444 125.974 36.5243C125.552 37.0042 124.893 37.2413 123.99 37.2413H122.527H122.521ZM123.591 40.167C123.325 40.167 123.117 40.086 122.955 39.9299C122.793 39.768 122.712 39.5714 122.701 39.3286C122.701 39.0742 122.782 38.8718 122.949 38.7099C123.117 38.548 123.331 38.4728 123.591 38.4728C123.852 38.4728 124.054 38.5538 124.222 38.7099C124.39 38.866 124.476 39.0742 124.476 39.3286C124.476 39.583 124.39 39.768 124.222 39.9299C124.054 40.086 123.84 40.167 123.591 40.167ZM125.957 40.167C125.691 40.167 125.483 40.086 125.321 39.9299C125.165 39.768 125.078 39.5714 125.066 39.3286C125.055 39.0742 125.136 38.8718 125.303 38.7099C125.471 38.548 125.691 38.4728 125.951 38.4728C126.212 38.4728 126.414 38.5538 126.588 38.7099C126.755 38.866 126.842 39.0742 126.842 39.3286C126.842 39.583 126.755 39.768 126.588 39.9299C126.42 40.086 126.206 40.167 125.951 40.167H125.957Z" fill="white"/>
<path d="M130.781 37.2414C129.873 37.2414 129.156 36.9928 128.635 36.5014C128.115 36.0099 127.854 35.3392 127.854 34.495C127.854 33.9573 127.97 33.4658 128.207 33.0148C128.444 32.5638 128.762 32.2111 129.167 31.9567C129.572 31.6965 130.012 31.5693 130.486 31.5693C131.319 31.5693 131.978 31.8584 132.458 32.4424C132.939 33.0264 133.182 33.807 133.182 34.7957V36.3395H131.735V34.7957C131.735 34.2926 131.62 33.8879 131.388 33.5872C131.157 33.2866 130.839 33.1362 130.434 33.1362C130.116 33.1362 129.838 33.2519 129.601 33.4889C129.364 33.726 129.248 34.0267 129.248 34.4025C129.248 34.8188 129.381 35.1368 129.653 35.3565C129.919 35.5762 130.318 35.6861 130.845 35.6861H132.915V37.2472H130.775L130.781 37.2414ZM128.803 40.2828L128.554 38.7216H129.329C130.197 38.7216 130.816 38.5944 131.186 38.3342C131.556 38.074 131.747 37.6867 131.747 37.1605V36.3395H133.193V36.8656C133.193 37.5652 133.048 38.1723 132.759 38.6812C132.47 39.19 132.054 39.5831 131.516 39.8665C130.978 40.144 130.341 40.2885 129.607 40.2885H128.803V40.2828ZM132.441 37.2414C132.343 37.2414 132.291 37.1894 132.291 37.0911V35.7266C132.291 35.6398 132.337 35.5936 132.441 35.5936H134.269C134.367 35.5936 134.419 35.6398 134.419 35.7266V37.0911C134.419 37.1894 134.373 37.2414 134.269 37.2414H132.441Z" fill="white"/>
<path d="M134.234 37.2416C134.136 37.2416 134.084 37.1896 134.084 37.0913V35.7267C134.084 35.64 134.13 35.5937 134.234 35.5937H135.634V27.4527L137.132 27.2041V37.2416H134.234ZM136.097 37.2416L136.345 35.5937H140.608C141.21 35.5937 141.673 35.4723 141.997 35.2237C142.321 34.9751 142.483 34.6281 142.483 34.1772C142.483 33.7262 142.338 33.4139 142.055 33.1653C141.771 32.9167 141.407 32.7953 140.967 32.7953C140.661 32.7953 140.36 32.83 140.059 32.8936C139.764 32.9572 139.347 33.0901 138.815 33.281C138.283 33.4718 137.502 33.784 136.473 34.2118L136.16 33.0612C137.08 32.5813 137.826 32.2113 138.399 31.9511C138.972 31.6909 139.469 31.5059 139.897 31.3902C140.325 31.2746 140.73 31.2168 141.117 31.2168C141.609 31.2168 142.072 31.3266 142.5 31.5464C142.928 31.7661 143.275 32.1014 143.535 32.5582C143.796 33.015 143.929 33.5527 143.929 34.1772C143.929 34.8016 143.79 35.3162 143.518 35.7788C143.246 36.2471 142.847 36.6056 142.332 36.8542C141.817 37.1086 141.216 37.23 140.522 37.23H136.097V37.2416ZM145.311 37.2416C144.819 37.2416 144.357 37.1838 143.929 37.0624C143.501 36.9409 143.073 36.7501 142.644 36.4842L142.992 35.0849C143.454 35.2699 143.848 35.4029 144.177 35.4723C144.507 35.5417 144.883 35.5822 145.311 35.5822C145.409 35.5822 145.461 35.6284 145.461 35.7152V37.0971C145.461 37.1953 145.409 37.2474 145.311 37.2474V37.2416Z" fill="white"/>
<path d="M145.311 37.2415C145.213 37.2415 145.161 37.1894 145.161 37.0911V35.7093C145.161 35.6225 145.207 35.5763 145.311 35.5763H145.803C146.283 35.5763 146.624 35.4895 146.821 35.3103C147.017 35.1368 147.116 34.813 147.116 34.3389V32.2516L148.631 31.9857V34.3389C148.631 35.2409 148.394 35.9463 147.914 36.4609C147.434 36.9755 146.734 37.2357 145.797 37.2357H145.305L145.311 37.2415ZM146.647 30.8582C146.381 30.8582 146.173 30.783 146.011 30.6269C145.849 30.4708 145.768 30.2684 145.756 30.0198C145.756 29.777 145.837 29.5746 146.005 29.4127C146.167 29.2508 146.381 29.1641 146.647 29.1641C146.913 29.1641 147.11 29.245 147.283 29.4127C147.451 29.5746 147.538 29.7827 147.538 30.0198C147.538 30.2569 147.451 30.4766 147.283 30.6269C147.116 30.783 146.902 30.8582 146.647 30.8582ZM150.019 37.2415C149.186 37.2415 148.579 37.0102 148.192 36.5534C147.81 36.0909 147.613 35.3566 147.613 34.3505H148.631C148.631 34.6801 148.677 34.9345 148.764 35.1079C148.851 35.2814 148.996 35.4086 149.192 35.478C149.389 35.5474 149.667 35.5878 150.014 35.5878H150.262C150.361 35.5878 150.413 35.6341 150.413 35.7208V37.1027C150.413 37.201 150.361 37.253 150.262 37.253H150.014L150.019 37.2415ZM149.013 30.8582C148.747 30.8582 148.539 30.783 148.382 30.6269C148.22 30.4708 148.14 30.2684 148.128 30.0198C148.116 29.777 148.197 29.5746 148.365 29.4127C148.533 29.2508 148.753 29.1641 149.013 29.1641C149.273 29.1641 149.476 29.245 149.649 29.4127C149.817 29.5746 149.904 29.7827 149.904 30.0198C149.904 30.2569 149.817 30.4766 149.649 30.6269C149.481 30.783 149.267 30.8582 149.013 30.8582Z" fill="white"/>
<path d="M150.268 37.2416C150.17 37.2416 150.118 37.1896 150.118 37.0913V35.7094C150.118 35.6226 150.164 35.5764 150.268 35.5764H150.465C150.928 35.5764 151.246 35.4839 151.425 35.3046C151.604 35.1254 151.697 34.8016 151.697 34.3448V27.4701L153.195 27.2041V34.3448C153.195 35.322 152.975 36.0447 152.547 36.5246C152.113 37.0045 151.442 37.2416 150.528 37.2416H150.262H150.268Z" fill="white"/>
<path d="M1.73509 53.3442C1.37647 53.3442 1.05834 53.3095 0.786485 53.2401C0.514627 53.1708 0.254337 53.0609 0.00561523 52.9048L0.19071 52.182C0.398942 52.3382 0.636094 52.4596 0.902168 52.5463C1.16824 52.633 1.45745 52.6793 1.77559 52.6793C2.13999 52.6793 2.41763 52.6099 2.60851 52.4711C2.79939 52.3324 2.89194 52.1416 2.89194 51.8987C2.89194 51.6906 2.82831 51.5113 2.70106 51.3726C2.57381 51.2338 2.35401 51.1008 2.03587 50.9678L1.46324 50.7423C0.994717 50.5631 0.653448 50.3549 0.439431 50.1179C0.225415 49.875 0.121299 49.5628 0.121299 49.1754C0.121299 48.7129 0.289042 48.3486 0.624526 48.0884C0.960011 47.8224 1.41696 47.6895 1.99538 47.6895C2.53332 47.6895 2.9787 47.7762 3.33732 47.9439V48.684C2.90929 48.4585 2.46391 48.3486 1.99538 48.3486C1.65412 48.3486 1.38804 48.4122 1.19138 48.5394C0.994716 48.6666 0.896384 48.8458 0.896384 49.0771C0.896384 49.2737 0.965795 49.4472 1.09883 49.5917C1.23187 49.7363 1.48637 49.8808 1.85078 50.0254L2.38871 50.2393C2.82831 50.407 3.15223 50.6151 3.34889 50.858C3.55134 51.1008 3.64967 51.413 3.64967 51.7947C3.64967 52.2688 3.48193 52.6446 3.14066 52.9164C2.79939 53.1939 2.33087 53.3269 1.72353 53.3269L1.73509 53.3442Z" fill="white"/>
<path d="M3.65552 50.0659V49.453H6.43194V50.0659H3.65552ZM5.46598 53.3443C5.09 53.3443 4.81236 53.2518 4.63305 53.0668C4.44795 52.8817 4.35541 52.5984 4.35541 52.211V48.499L5.14206 48.3892V52.1243C5.14206 52.3267 5.18833 52.477 5.28667 52.5695C5.37921 52.662 5.52382 52.7083 5.7147 52.7083C5.94607 52.7083 6.17743 52.6505 6.41459 52.5348L6.31047 53.1766C6.20057 53.2287 6.07332 53.2749 5.92293 53.3038C5.77254 53.3327 5.62215 53.3501 5.46598 53.3501V53.3443Z" fill="white"/>
<path d="M6.95825 53.2345V49.5109L7.65814 49.4069L7.7102 50.1816L7.75069 50.1932V53.2345H6.95825ZM7.75069 50.4129L7.6003 50.2799L8.02833 49.5398C8.13823 49.4878 8.27705 49.4416 8.45636 49.4069C8.62989 49.3722 8.79763 49.3548 8.94224 49.3433V50.0255C8.68195 50.0487 8.46215 50.0834 8.27127 50.1354C8.08039 50.1874 7.90686 50.2799 7.75069 50.4129Z" fill="white"/>
<path d="M10.504 53.3443C10.1165 53.3443 9.81569 53.2518 9.59589 53.061C9.37609 52.8702 9.27197 52.6042 9.27197 52.2689C9.27197 51.9509 9.38766 51.6849 9.62481 51.4652C9.85618 51.2455 10.2379 51.1414 10.7585 51.1414H11.7245V51.6675H10.7759C10.5098 51.6675 10.3189 51.7196 10.2032 51.8179C10.0875 51.9162 10.0297 52.0376 10.0297 52.1879C10.0297 52.3556 10.0875 52.4944 10.209 52.5926C10.3305 52.6909 10.5098 52.743 10.7527 52.743C11.1345 52.743 11.4526 52.6331 11.7071 52.4192L11.8286 52.5406L11.4121 53.1419C11.1287 53.2865 10.8221 53.3559 10.4982 53.3559L10.504 53.3443ZM12.3954 53.3038C12.1641 53.3038 11.9906 53.2402 11.8807 53.113C11.7708 52.9858 11.7129 52.8355 11.7129 52.6505V52.5175H11.6493V50.7598C11.6493 50.4822 11.5741 50.2799 11.4237 50.1527C11.2733 50.0255 11.0477 49.9619 10.7527 49.9619C10.5445 49.9619 10.3305 49.985 10.1223 50.037C9.91402 50.0891 9.72314 50.1527 9.54961 50.2336L9.65951 49.5918C9.8099 49.5224 9.995 49.4646 10.2206 49.4126C10.4462 49.3605 10.6833 49.3374 10.9436 49.3374C11.4295 49.3374 11.7997 49.4415 12.0484 49.6554C12.2971 49.8693 12.4186 50.1989 12.4186 50.6499V52.4018C12.4186 52.6216 12.5169 52.7256 12.7136 52.7256C12.7946 52.7256 12.864 52.7141 12.9276 52.6967L12.8466 53.2287C12.7194 53.2749 12.5632 53.2981 12.3897 53.2981L12.3954 53.3038Z" fill="white"/>
<path d="M12.916 50.0659V49.453H15.6924V50.0659H12.916ZM14.7265 53.3443C14.3505 53.3443 14.0729 53.2518 13.8935 53.0668C13.7085 52.8817 13.6159 52.5984 13.6159 52.211V48.499L14.4026 48.3892V52.1243C14.4026 52.3267 14.4488 52.477 14.5472 52.5695C14.6397 52.662 14.7843 52.7083 14.9752 52.7083C15.2066 52.7083 15.4379 52.6505 15.6751 52.5348L15.571 53.1766C15.4611 53.2287 15.3338 53.2749 15.1834 53.3038C15.033 53.3327 14.8826 53.3501 14.7265 53.3501V53.3443Z" fill="white"/>
<path d="M17.9193 53.3445C17.2888 53.3445 16.8088 53.1768 16.4733 52.8472C16.1436 52.5176 15.9758 52.0493 15.9758 51.4538C15.9758 51.049 16.051 50.6848 16.2072 50.3667C16.3576 50.0487 16.5774 49.8001 16.8666 49.6209C17.1558 49.4416 17.4913 49.3491 17.8673 49.3491C18.3358 49.3491 18.706 49.4879 18.9836 49.7712C19.2613 50.0545 19.3943 50.4303 19.3943 50.8929C19.3943 51.1184 19.3827 51.3092 19.3538 51.4711H16.6757V50.9449H18.7927L18.6481 51.1704C18.6597 51.0895 18.6713 51.0085 18.6713 50.9392C18.6713 50.6212 18.5961 50.3783 18.4399 50.2049C18.2895 50.0372 18.0697 49.9504 17.7921 49.9504C17.4739 49.9504 17.2194 50.0776 17.0401 50.3263C16.855 50.5749 16.7625 50.9218 16.7625 51.3555C16.7625 51.7891 16.8666 52.1245 17.0806 52.3615C17.2946 52.5986 17.6243 52.72 18.0755 52.72C18.3069 52.72 18.5209 52.6969 18.7233 52.6448C18.9258 52.5928 19.0935 52.5292 19.2381 52.4483L19.134 53.0785C19.0068 53.1537 18.8332 53.2173 18.6192 53.2693C18.4052 53.3213 18.168 53.3502 17.9135 53.3502L17.9193 53.3445Z" fill="white"/>
<path d="M21.5287 55.2698C20.9503 55.2698 20.5049 55.1715 20.1926 54.9691C19.8744 54.7667 19.7183 54.495 19.7183 54.1481C19.7183 53.8995 19.8224 53.6913 20.0364 53.5294C20.2504 53.3675 20.5512 53.2461 20.9503 53.1709L21.0602 53.3444C20.7074 53.5294 20.5281 53.7491 20.5281 54.0035C20.5281 54.1886 20.6264 54.3389 20.8173 54.4661C21.0081 54.5933 21.2858 54.6569 21.6444 54.6569C22.0319 54.6569 22.3327 54.5933 22.5583 54.4661C22.7781 54.3389 22.888 54.1654 22.888 53.9457C22.888 53.778 22.8186 53.645 22.6856 53.5583C22.5525 53.4716 22.3617 53.4253 22.1129 53.4253H21.147C20.8635 53.4253 20.6322 53.3559 20.4586 53.2172C20.2851 53.0784 20.1984 52.8934 20.1984 52.6621C20.1984 52.4771 20.2562 52.3094 20.3719 52.1591C20.4876 52.0087 20.6437 51.87 20.8404 51.7543L21.0949 51.8642C20.9098 52.0492 20.8173 52.2111 20.8173 52.3615C20.8173 52.4887 20.8578 52.5812 20.9445 52.639C21.0313 52.6968 21.1643 52.7257 21.3552 52.7257H22.3212C22.7665 52.7257 23.102 52.8182 23.316 53.009C23.5358 53.1998 23.64 53.46 23.64 53.7954C23.64 54.2579 23.4549 54.6164 23.0789 54.8766C22.7029 55.1368 22.1823 55.264 21.5114 55.264L21.5287 55.2698ZM21.5981 52.0724C21.118 52.0724 20.7305 51.9567 20.4471 51.7197C20.1636 51.4884 20.019 51.1704 20.019 50.7772C20.019 50.4939 20.0885 50.2395 20.2215 50.0255C20.3545 49.8058 20.5454 49.6381 20.7883 49.5225C21.0313 49.4011 21.2974 49.3433 21.5981 49.3433C21.8295 49.3433 22.0377 49.3722 22.2286 49.43C22.4195 49.4878 22.5757 49.5688 22.7087 49.6786L22.7723 49.8289C22.8938 49.9215 22.9921 50.0429 23.0558 50.1874C23.1252 50.332 23.1599 50.4939 23.1599 50.6731C23.1599 50.9449 23.0962 51.1877 22.9632 51.4016C22.8302 51.6156 22.6451 51.7775 22.4137 51.8931C22.1823 52.0087 21.9105 52.0666 21.6039 52.0666L21.5981 52.0724ZM21.5981 51.4826C21.8411 51.4826 22.0377 51.4132 22.1881 51.2687C22.3385 51.1241 22.4137 50.9391 22.4137 50.6962C22.4137 50.465 22.3385 50.2799 22.1881 50.1412C22.0377 50.0024 21.8411 49.933 21.5981 49.933C21.3552 49.933 21.1643 50.0082 21.0081 50.1527C20.852 50.2973 20.7768 50.4881 20.7768 50.7194C20.7768 50.9506 20.852 51.1357 21.0081 51.2744C21.1585 51.4132 21.361 51.4826 21.6039 51.4826H21.5981ZM22.2113 50.0544V49.4936L23.6284 49.3433V49.9157L22.2113 50.0602V50.0544Z" fill="white"/>
<path d="M24.5596 48.6318C24.415 48.6318 24.2993 48.5856 24.2068 48.4989C24.1142 48.4121 24.068 48.2965 24.0564 48.1519C24.0564 48.0189 24.1027 47.9033 24.201 47.8166C24.2993 47.7299 24.415 47.6836 24.5596 47.6836C24.7042 47.6836 24.8199 47.7299 24.9182 47.8166C25.0108 47.9033 25.0628 48.0189 25.0628 48.1519C25.0628 48.2965 25.0166 48.4121 24.9182 48.4989C24.8257 48.5856 24.7042 48.6318 24.5596 48.6318ZM24.1605 53.2343V49.5107L24.9529 49.4008V53.2343H24.1605Z" fill="white"/>
<path d="M27.4344 53.3444C26.8502 53.3444 26.3991 53.1767 26.0694 52.8356C25.7455 52.4944 25.5835 52.0377 25.5835 51.4595C25.5835 51.0374 25.6645 50.6673 25.8322 50.3493C26 50.0313 26.2313 49.7827 26.5321 49.6092C26.8329 49.43 27.1799 49.3433 27.579 49.3433C27.9782 49.3433 28.2905 49.4184 28.5566 49.5688V50.2684C28.2789 50.0718 27.9608 49.9735 27.608 49.9735C27.232 49.9735 26.937 50.1007 26.723 50.3609C26.5032 50.6211 26.3991 50.9564 26.3991 51.3785C26.3991 51.7833 26.509 52.107 26.7288 52.3383C26.9486 52.5696 27.2551 52.691 27.6485 52.691C27.822 52.691 28.0013 52.6679 28.1748 52.6216C28.3483 52.5754 28.4987 52.5176 28.626 52.4482L28.5161 53.09C28.4004 53.1594 28.25 53.2172 28.0591 53.2692C27.8683 53.3213 27.66 53.3444 27.4402 53.3444H27.4344Z" fill="white"/>
<path d="M33.6524 53.3443C33.1145 53.3443 32.646 53.2344 32.2469 53.0147C31.8477 52.795 31.5412 52.477 31.3272 52.0607C31.1132 51.6444 31.009 51.1529 31.009 50.5921C31.009 50.0197 31.1189 49.5166 31.3387 49.083C31.5585 48.6436 31.8709 48.3024 32.2816 48.0596C32.6865 47.8167 33.1608 47.6953 33.6987 47.6953C34.2424 47.6953 34.7109 47.8052 35.11 48.0191C35.5092 48.2388 35.8099 48.551 36.0239 48.9673C36.238 49.3836 36.3421 49.8751 36.3421 50.4417C36.3421 51.0142 36.2322 51.5172 36.0124 51.9566C35.7926 52.3961 35.4802 52.743 35.0696 52.9858C34.6647 53.2287 34.1904 53.3501 33.6524 53.3501V53.3443ZM33.6698 52.6852C34.0342 52.6852 34.3581 52.5926 34.6357 52.4076C34.9134 52.2226 35.1274 51.9682 35.2836 51.6444C35.434 51.3206 35.5149 50.939 35.5149 50.5054C35.5149 49.8404 35.353 49.3143 35.0233 48.9269C34.6936 48.5395 34.2424 48.3487 33.6756 48.3487C33.3112 48.3487 32.9872 48.4412 32.7096 48.6204C32.432 48.7997 32.2179 49.0541 32.0618 49.3836C31.9114 49.7132 31.8304 50.089 31.8304 50.5169C31.8304 51.1818 31.9924 51.708 32.3163 52.1012C32.6402 52.4886 33.0914 52.6852 33.6698 52.6852Z" fill="white"/>
<path d="M36.7644 50.0659V49.4531H40.1655V50.0659H36.7644ZM37.4469 48.7766C37.4469 48.2909 37.5858 47.9035 37.8576 47.6144C38.1353 47.3311 38.5055 47.1865 38.9798 47.1865C39.188 47.1865 39.3673 47.2154 39.5177 47.279V47.9497C39.3384 47.8688 39.1591 47.8283 38.9798 47.8283C38.7542 47.8283 38.5749 47.9093 38.436 48.0654C38.2972 48.2273 38.2278 48.4586 38.2278 48.7708V53.2287H37.4412V48.7708L37.4469 48.7766ZM39.107 50.0659V49.4531H42.699V50.0659H39.107ZM39.7895 48.7766C39.7895 48.2909 39.9226 47.9035 40.1944 47.6144C40.4663 47.3311 40.8307 47.1865 41.2934 47.1865C41.4959 47.1865 41.6694 47.2154 41.814 47.279V47.9497C41.6463 47.8688 41.4728 47.8283 41.305 47.8283C41.0794 47.8283 40.9001 47.9035 40.7729 48.0538C40.6398 48.2042 40.5762 48.4296 40.5762 48.7361V53.2345H39.7953V48.7766H39.7895ZM42.5197 48.632C42.3751 48.632 42.2594 48.5858 42.1669 48.499C42.0743 48.4123 42.028 48.2967 42.0165 48.1521C42.0165 48.0191 42.0627 47.9035 42.1611 47.8168C42.2536 47.73 42.3751 47.6838 42.5197 47.6838C42.6643 47.6838 42.78 47.73 42.8783 47.8168C42.9767 47.9035 43.0229 48.0191 43.0229 48.1521C43.0229 48.2967 42.9767 48.4123 42.8783 48.499C42.7858 48.5858 42.6643 48.632 42.5197 48.632ZM42.1206 53.2345V49.5109L42.913 49.401V53.2345H42.1206Z" fill="white"/>
<path d="M45.4117 53.3444C44.8275 53.3444 44.3764 53.1767 44.0467 52.8356C43.7227 52.4944 43.5608 52.0377 43.5608 51.4595C43.5608 51.0374 43.6418 50.6673 43.8095 50.3493C43.9773 50.0313 44.2086 49.7827 44.5094 49.6092C44.8102 49.43 45.1572 49.3433 45.5563 49.3433C45.9439 49.3433 46.2678 49.4184 46.5339 49.5688V50.2684C46.2562 50.0718 45.9381 49.9735 45.5853 49.9735C45.2093 49.9735 44.9143 50.1007 44.7003 50.3609C44.4805 50.6211 44.3764 50.9564 44.3764 51.3785C44.3764 51.7833 44.4863 52.107 44.7061 52.3383C44.9259 52.5696 45.2324 52.691 45.6258 52.691C45.7993 52.691 45.9786 52.6679 46.1521 52.6216C46.3256 52.5754 46.476 52.5176 46.6033 52.4482L46.4934 53.09C46.3777 53.1594 46.2273 53.2172 46.0364 53.2692C45.8456 53.3213 45.6373 53.3444 45.4175 53.3444H45.4117Z" fill="white"/>
<path d="M48.9113 53.3445C48.2808 53.3445 47.8007 53.1768 47.4652 52.8472C47.1355 52.5176 46.9678 52.0493 46.9678 51.4538C46.9678 51.049 47.043 50.6848 47.1991 50.3667C47.3495 50.0487 47.5693 49.8001 47.8585 49.6209C48.1478 49.4416 48.4832 49.3491 48.8592 49.3491C49.3277 49.3491 49.6979 49.4879 49.9756 49.7712C50.2532 50.0545 50.3862 50.4303 50.3862 50.8929C50.3862 51.1184 50.3747 51.3092 50.3458 51.4711H47.6677V50.9449H49.7847L49.6401 51.1704C49.6516 51.0895 49.6632 51.0085 49.6632 50.9392C49.6632 50.6212 49.588 50.3783 49.4318 50.2049C49.2815 50.0372 49.0617 49.9504 48.784 49.9504C48.4659 49.9504 48.2114 50.0776 48.0321 50.3263C47.847 50.5749 47.7544 50.9218 47.7544 51.3555C47.7544 51.7891 47.8585 52.1245 48.0726 52.3615C48.2866 52.5986 48.6163 52.72 49.0674 52.72C49.2988 52.72 49.5128 52.6969 49.7153 52.6448C49.9177 52.5928 50.0855 52.5292 50.2301 52.4483L50.126 53.0785C49.9987 53.1537 49.8252 53.2173 49.6112 53.2693C49.3971 53.3213 49.16 53.3502 48.9055 53.3502L48.9113 53.3445Z" fill="white"/>
<path d="M52.7461 50.0659V49.4531H55.3027V50.0659H52.7461ZM53.4286 48.7766C53.4286 48.2909 53.5675 47.9035 53.8451 47.6144C54.1227 47.3311 54.5045 47.1865 54.9962 47.1865C55.2391 47.1865 55.4415 47.2212 55.5977 47.2906V47.9729C55.401 47.8804 55.1986 47.8283 54.9846 47.8283C54.7474 47.8283 54.5566 47.9093 54.4177 48.0712C54.2789 48.2331 54.2095 48.4701 54.2095 48.7708V53.2287H53.4228V48.7708L53.4286 48.7766Z" fill="white"/>
<path d="M57.385 53.3444C56.8008 53.3444 56.3381 53.1709 55.991 52.824C55.644 52.4771 55.4705 52.0087 55.4705 51.4074C55.4705 50.9911 55.5514 50.6326 55.7076 50.3204C55.8696 50.0082 56.0894 49.7653 56.3786 49.5977C56.6678 49.43 57.0033 49.3433 57.3792 49.3433C57.9635 49.3433 58.4262 49.5167 58.7675 49.8579C59.1087 50.199 59.2823 50.6673 59.2823 51.2687C59.2823 51.685 59.2071 52.0492 59.0509 52.3615C58.8947 52.6795 58.6749 52.9223 58.3857 53.09C58.0965 53.2577 57.761 53.3444 57.385 53.3444ZM57.385 52.7142C57.7263 52.7142 57.9924 52.5927 58.189 52.3441C58.3857 52.0955 58.484 51.7601 58.484 51.3438C58.484 50.9275 58.3857 50.5979 58.189 50.3493C57.9924 50.1007 57.7263 49.9793 57.385 49.9793C57.0438 49.9793 56.7777 50.1007 56.5752 50.3493C56.3728 50.5979 56.2745 50.9275 56.2745 51.3438C56.2745 51.7659 56.3728 52.1013 56.5752 52.3441C56.7777 52.5927 57.0438 52.7142 57.385 52.7142Z" fill="white"/>
<path d="M59.988 53.2345V49.5109L60.6879 49.4069L60.74 50.1816L60.7805 50.1932V53.2345H59.988ZM60.7805 50.4129L60.6301 50.2799L61.0581 49.5398C61.168 49.4878 61.3068 49.4416 61.4861 49.4069C61.6597 49.3722 61.8274 49.3548 61.972 49.3433V50.0255C61.7117 50.0487 61.4919 50.0834 61.301 50.1354C61.1102 50.1874 60.9366 50.2799 60.7805 50.4129Z" fill="white"/>
<path d="M66.4837 47.8804C67.3455 47.8804 68.0107 48.1116 68.485 48.5684C68.9593 49.0252 69.1907 49.6728 69.1907 50.5054C69.1907 51.0662 69.075 51.5635 68.8494 51.9914C68.6238 52.4192 68.2999 52.7488 67.8892 52.9801C67.4728 53.2113 66.9927 53.327 66.4432 53.327H64.6443V47.8804H66.4895H66.4837ZM66.4432 52.6621C67.0274 52.6621 67.4901 52.4713 67.8372 52.0954C68.1842 51.7196 68.3578 51.2108 68.3578 50.5748C68.3578 49.9387 68.19 49.4415 67.8603 49.0772C67.5306 48.7188 67.0679 48.5395 66.4837 48.5395H65.4483V52.6621H66.4432Z" fill="white"/>
<path d="M71.6605 53.4367C71.0301 53.4367 70.55 53.2691 70.2145 52.9395C69.8848 52.6099 69.717 52.1416 69.717 51.546C69.717 51.1413 69.7922 50.777 69.9484 50.459C70.0988 50.141 70.3186 49.8924 70.6078 49.7132C70.897 49.5339 71.2325 49.4414 71.6085 49.4414C72.077 49.4414 72.4472 49.5802 72.7248 49.8635C73.0025 50.1468 73.1355 50.5226 73.1355 50.9852C73.1355 51.2107 73.1239 51.4015 73.095 51.5634H70.4169V51.0314H72.534L72.3894 51.2569C72.4009 51.176 72.4125 51.095 72.4125 51.0257C72.4125 50.7077 72.3373 50.4648 72.1811 50.2914C72.0307 50.1237 71.8109 50.0369 71.5333 50.0369C71.2152 50.0369 70.9606 50.1642 70.7813 50.4128C70.5962 50.6614 70.5037 51.0083 70.5037 51.442C70.5037 51.8756 70.6078 52.211 70.8218 52.448C71.0358 52.6851 71.3655 52.8065 71.8167 52.8065C72.0481 52.8065 72.2621 52.7834 72.4645 52.7313C72.667 52.6793 72.8347 52.6157 72.9793 52.5348L72.8752 53.165C72.748 53.2402 72.5744 53.3038 72.3604 53.3558C72.1464 53.4078 71.9093 53.4367 71.6548 53.4367H71.6605Z" fill="white"/>
<path d="M77.196 49.5515L75.7731 53.3271H74.8592L73.4536 49.6151L74.246 49.4937L75.5301 52.986H75.212L76.4151 49.5572H77.2018L77.196 49.5515Z" fill="white"/>
<path d="M79.3246 53.4367C78.6941 53.4367 78.214 53.2691 77.8785 52.9395C77.5488 52.6099 77.3811 52.1416 77.3811 51.546C77.3811 51.1413 77.4563 50.777 77.6125 50.459C77.7629 50.141 77.9827 49.8924 78.2719 49.7132C78.5611 49.5339 78.8966 49.4414 79.2725 49.4414C79.7411 49.4414 80.1113 49.5802 80.3889 49.8635C80.6665 50.1468 80.7996 50.5226 80.7996 50.9852C80.7996 51.2107 80.788 51.4015 80.7591 51.5634H78.081V51.0314H80.198L80.0534 51.2569C80.065 51.176 80.0766 51.095 80.0766 51.0257C80.0766 50.7077 80.0014 50.4648 79.8452 50.2914C79.6948 50.1237 79.475 50.0369 79.1973 50.0369C78.8792 50.0369 78.6247 50.1642 78.4454 50.4128C78.2603 50.6614 78.1678 51.0083 78.1678 51.442C78.1678 51.8756 78.2719 52.211 78.4859 52.448C78.6999 52.6851 79.0296 52.8065 79.4808 52.8065C79.7121 52.8065 79.9262 52.7834 80.1286 52.7313C80.3311 52.6793 80.4988 52.6157 80.6434 52.5348L80.5393 53.165C80.412 53.2402 80.2385 53.3038 80.0245 53.3558C79.8105 53.4078 79.5733 53.4367 79.3188 53.4367H79.3246Z" fill="white"/>
<path d="M81.5168 53.3212V47.4409L82.3093 47.3311V53.327H81.5168V53.3212Z" fill="white"/>
<path d="M84.9468 53.4367C84.3626 53.4367 83.8999 53.2632 83.5528 52.9163C83.2057 52.5694 83.0322 52.101 83.0322 51.4997C83.0322 51.0834 83.1132 50.7249 83.2694 50.4127C83.4313 50.1005 83.6511 49.8576 83.9403 49.69C84.2296 49.5223 84.565 49.4355 84.941 49.4355C85.5252 49.4355 85.988 49.609 86.3292 49.9501C86.6705 50.2913 86.844 50.7654 86.844 51.3609C86.844 51.7772 86.7688 52.1415 86.6127 52.4537C86.4565 52.7717 86.2367 53.0146 85.9475 53.1823C85.6583 53.3499 85.3228 53.4367 84.9468 53.4367ZM84.9468 52.8064C85.2881 52.8064 85.5541 52.685 85.7508 52.4364C85.9475 52.1878 86.0458 51.8524 86.0458 51.4361C86.0458 51.0198 85.9475 50.6902 85.7508 50.4416C85.5541 50.193 85.2881 50.0716 84.9468 50.0716C84.6055 50.0716 84.3395 50.193 84.137 50.4416C83.9346 50.6902 83.8362 51.0198 83.8362 51.4361C83.8362 51.8582 83.9346 52.1935 84.137 52.4364C84.3395 52.685 84.6055 52.8064 84.9468 52.8064Z" fill="white"/>
<path d="M87.5498 55.2581V49.6033L88.2497 49.4992L88.3018 50.2335L88.3422 50.2567V55.2638H87.5498V55.2581ZM89.1925 53.4367C88.8686 53.4367 88.5852 53.3731 88.348 53.2517V52.5926C88.5505 52.7313 88.7992 52.795 89.0884 52.795C89.4412 52.795 89.7189 52.6677 89.9271 52.4133C90.1353 52.1589 90.2395 51.812 90.2395 51.3784C90.2395 50.9794 90.1469 50.6614 89.956 50.4243C89.7652 50.1873 89.5107 50.0659 89.181 50.0659C88.8744 50.0659 88.5968 50.1699 88.348 50.3839L88.2555 50.1931L88.5794 49.6438C88.8397 49.5108 89.1173 49.4414 89.4239 49.4414C89.9329 49.4414 90.332 49.6091 90.6154 49.9502C90.8989 50.2914 91.0435 50.7481 91.0435 51.3321C91.0435 51.7484 90.9625 52.1127 90.8121 52.4249C90.6559 52.7429 90.4361 52.9858 90.1527 53.165C89.8693 53.3442 89.5511 53.4367 89.1925 53.4367Z" fill="white"/>
<path d="M92.0845 48.7246C91.9399 48.7246 91.8242 48.6784 91.7317 48.5916C91.6391 48.5049 91.5929 48.3893 91.5813 48.2447C91.5813 48.1117 91.6276 47.9961 91.7259 47.9093C91.8185 47.8226 91.9399 47.7764 92.0845 47.7764C92.2291 47.7764 92.3448 47.8226 92.4432 47.9093C92.5357 47.9961 92.5878 48.1117 92.5878 48.2447C92.5878 48.3893 92.5415 48.5049 92.4432 48.5916C92.3506 48.6784 92.2291 48.7246 92.0845 48.7246ZM91.6912 53.3213V49.5977L92.4836 49.4878V53.3213H91.6912Z" fill="white"/>
<path d="M93.334 53.3211V49.5975L94.0339 49.4934L94.0859 50.2278L94.1264 50.2509V53.3211H93.334ZM95.908 50.9621C95.908 50.673 95.8328 50.4475 95.6824 50.2971C95.532 50.1468 95.318 50.0659 95.0288 50.0659C94.6759 50.0659 94.3751 50.1699 94.1206 50.3839L94.0281 50.1931L94.352 49.6438C94.433 49.6033 94.5545 49.557 94.7222 49.5108C94.8899 49.4645 95.0924 49.4414 95.3295 49.4414C95.7576 49.4414 96.0873 49.5513 96.3244 49.7768C96.5616 50.0023 96.6831 50.3318 96.6831 50.7713V53.1245H95.9022V50.9678L95.908 50.9621ZM95.908 52.9568H96.6888V53.3211H95.908V52.9568Z" fill="white"/>
<path d="M98.9099 55.3563C98.3315 55.3563 97.8861 55.258 97.5738 55.0556C97.2557 54.8533 97.0995 54.5815 97.0995 54.2346C97.0995 53.986 97.2036 53.7778 97.4176 53.6159C97.6316 53.454 97.9324 53.3326 98.3315 53.2574L98.4414 53.4309C98.0886 53.6159 97.9093 53.8356 97.9093 54.09C97.9093 54.2751 98.0076 54.4254 98.1985 54.5526C98.3894 54.6798 98.667 54.7434 99.0256 54.7434C99.4132 54.7434 99.714 54.6798 99.9395 54.5526C100.159 54.4254 100.269 54.2519 100.269 54.0322C100.269 53.8645 100.2 53.7315 100.067 53.6448C99.9338 53.5581 99.7429 53.5118 99.4942 53.5118H98.5282C98.2448 53.5118 98.0134 53.4425 97.8399 53.3037C97.6663 53.1649 97.5796 52.9799 97.5796 52.7486C97.5796 52.5636 97.6374 52.3959 97.7531 52.2456C97.8688 52.0953 98.025 51.9565 98.2216 51.8408L98.4761 51.9507C98.291 52.1357 98.1985 52.2976 98.1985 52.448C98.1985 52.5752 98.239 52.6677 98.3257 52.7255C98.4125 52.7833 98.5455 52.8122 98.7364 52.8122H99.7024C100.148 52.8122 100.483 52.9047 100.697 53.0955C100.917 53.2863 101.021 53.5465 101.021 53.8761C101.021 54.3387 100.836 54.6971 100.46 54.9573C100.084 55.2175 99.5636 55.3447 98.8926 55.3447L98.9099 55.3563ZM98.9794 52.1646C98.4993 52.1646 98.1117 52.049 97.8283 51.8119C97.5449 51.5807 97.4003 51.2627 97.4003 50.8695C97.4003 50.5862 97.4697 50.3318 97.6027 50.1178C97.7358 49.8981 97.9266 49.7304 98.1696 49.6148C98.4125 49.4934 98.6786 49.4355 98.9794 49.4355C99.2107 49.4355 99.419 49.4645 99.6098 49.5223C99.8007 49.5801 99.9569 49.661 100.09 49.7709L100.154 49.9212C100.275 50.0137 100.373 50.1352 100.437 50.2797C100.506 50.4243 100.541 50.5862 100.541 50.7654C100.541 51.0372 100.477 51.28 100.344 51.4939C100.211 51.7079 100.026 51.8698 99.7949 51.9854C99.5636 52.101 99.2917 52.1589 98.9851 52.1589L98.9794 52.1646ZM98.9794 51.5749C99.2223 51.5749 99.419 51.5055 99.5694 51.3609C99.7197 51.2164 99.7949 51.0314 99.7949 50.7885C99.7949 50.5573 99.7197 50.3722 99.5694 50.2335C99.419 50.0947 99.2223 50.0253 98.9794 50.0253C98.7422 50.0253 98.5455 50.1005 98.3894 50.245C98.2332 50.3896 98.158 50.5804 98.158 50.8117C98.158 51.0429 98.2332 51.228 98.3894 51.3667C98.5398 51.5055 98.7422 51.5749 98.9851 51.5749H98.9794ZM99.5867 50.1467V49.5859L101.004 49.4355V50.008L99.5867 50.1525V50.1467Z" fill="white"/>
<path d="M103.069 53.3211L105.001 47.8745H105.99L107.916 53.3211H107.06L105.307 48.285H105.585L103.844 53.3211H103.069ZM104.058 51.8872V51.2685H106.927V51.8872H104.058Z" fill="white"/>
<path d="M108.419 53.3212V47.4409L109.212 47.3311V53.327H108.419V53.3212Z" fill="white"/>
<path d="M115.036 50.4417C115.412 50.5284 115.69 50.6845 115.881 50.9043C116.072 51.124 116.164 51.3957 116.164 51.7253C116.164 52.2283 115.973 52.6215 115.592 52.899C115.21 53.1824 114.678 53.3211 113.995 53.3211H112.324V47.8745H113.972C114.603 47.8745 115.077 47.9902 115.389 48.2214C115.702 48.4527 115.858 48.7765 115.858 49.1986C115.858 49.4819 115.788 49.7305 115.644 49.9445C115.499 50.1584 115.297 50.3203 115.031 50.4359L115.036 50.4417ZM113.978 48.5221H113.122V50.2393H113.937C114.267 50.2393 114.539 50.1584 114.736 49.9965C114.938 49.8346 115.036 49.6207 115.036 49.3547C115.036 49.0887 114.944 48.8864 114.759 48.7418C114.574 48.5973 114.313 48.5221 113.972 48.5221H113.978ZM114.001 52.6851C114.435 52.6851 114.77 52.6042 114.996 52.4423C115.227 52.2804 115.343 52.0549 115.343 51.76C115.343 51.1645 114.909 50.8638 114.042 50.8638H113.128V52.6851H114.001Z" fill="white"/>
<path d="M117.975 53.4371C117.587 53.4371 117.286 53.3446 117.067 53.1538C116.847 52.963 116.743 52.697 116.743 52.3616C116.743 52.0436 116.858 51.7777 117.096 51.5579C117.327 51.3382 117.709 51.2341 118.229 51.2341H119.195V51.7661H118.247C117.981 51.7661 117.79 51.8181 117.674 51.9164C117.558 52.0147 117.5 52.1361 117.5 52.2865C117.5 52.4541 117.558 52.5929 117.68 52.6912C117.801 52.7895 117.98 52.8415 118.223 52.8415C118.605 52.8415 118.923 52.7317 119.178 52.5177L119.299 52.6392L118.883 53.2405C118.599 53.385 118.293 53.4544 117.969 53.4544L117.975 53.4371ZM119.872 53.3966C119.641 53.3966 119.467 53.333 119.357 53.2058C119.247 53.0786 119.189 52.9283 119.189 52.7432V52.6103H119.126V50.8525C119.126 50.575 119.051 50.3726 118.9 50.2454C118.75 50.1182 118.524 50.0546 118.229 50.0546C118.021 50.0546 117.807 50.0778 117.599 50.1298C117.391 50.1818 117.2 50.2454 117.026 50.3264L117.136 49.6846C117.286 49.6152 117.471 49.5574 117.697 49.5053C117.923 49.4533 118.16 49.4302 118.42 49.4302C118.906 49.4302 119.276 49.5342 119.525 49.7482C119.774 49.9621 119.895 50.2917 119.895 50.7427V52.4946C119.895 52.7143 119.993 52.8184 120.19 52.8184C120.271 52.8184 120.34 52.8068 120.404 52.7895L120.323 53.3214C120.196 53.3677 120.04 53.3908 119.866 53.3908L119.872 53.3966Z" fill="white"/>
<path d="M120.965 53.3212V47.4409L121.758 47.3311V49.4877L121.729 50.1816H121.758V53.327H120.965V53.3212ZM123.545 50.9621C123.545 50.673 123.47 50.4475 123.325 50.2972C123.181 50.1469 122.967 50.0659 122.689 50.0659C122.336 50.0659 122.029 50.1758 121.763 50.3897L121.711 50.1642L122.035 49.6265C122.11 49.586 122.226 49.5455 122.388 49.4993C122.55 49.453 122.741 49.4357 122.972 49.4357C123.4 49.4357 123.73 49.5455 123.967 49.771C124.204 49.9965 124.326 50.3261 124.326 50.7655V53.1188H123.545V50.9621ZM123.545 53.3212V52.9569H124.326V53.3212H123.545Z" fill="white"/>
<path d="M126.211 53.4371C125.824 53.4371 125.523 53.3446 125.303 53.1538C125.083 52.963 124.979 52.697 124.979 52.3616C124.979 52.0436 125.095 51.7777 125.332 51.5579C125.564 51.3382 125.945 51.2341 126.466 51.2341H127.432V51.7661H126.483C126.217 51.7661 126.026 51.8181 125.911 51.9164C125.795 52.0147 125.737 52.1361 125.737 52.2865C125.737 52.4541 125.795 52.5929 125.916 52.6912C126.038 52.7895 126.217 52.8415 126.46 52.8415C126.842 52.8415 127.16 52.7317 127.415 52.5177L127.536 52.6392L127.12 53.2405C126.836 53.385 126.53 53.4544 126.206 53.4544L126.211 53.4371ZM128.103 53.3966C127.871 53.3966 127.698 53.333 127.588 53.2058C127.478 53.0786 127.42 52.9283 127.42 52.7432V52.6103H127.357V50.8525C127.357 50.575 127.281 50.3726 127.131 50.2454C126.981 50.1182 126.755 50.0546 126.46 50.0546C126.252 50.0546 126.038 50.0778 125.83 50.1298C125.621 50.1818 125.431 50.2454 125.257 50.3264L125.367 49.6846C125.517 49.6152 125.702 49.5574 125.928 49.5053C126.154 49.4533 126.391 49.4302 126.651 49.4302C127.137 49.4302 127.507 49.5342 127.756 49.7482C128.005 49.9621 128.126 50.2917 128.126 50.7427V52.4946C128.126 52.7143 128.224 52.8184 128.421 52.8184C128.502 52.8184 128.571 52.8068 128.635 52.7895L128.554 53.3214C128.427 53.3677 128.271 53.3908 128.097 53.3908L128.103 53.3966Z" fill="white"/>
<path d="M131.33 53.3211V47.8745H132.991C133.69 47.8745 134.217 48.0075 134.581 48.2792C134.94 48.5452 135.119 48.9384 135.119 49.453C135.119 49.8577 135.003 50.1989 134.772 50.4764C134.541 50.7539 134.217 50.9332 133.795 51.0315L135.333 53.3211H134.396L132.962 51.1934H132.146V53.3211H131.33ZM132.95 50.5573C133.378 50.5573 133.708 50.4706 133.939 50.2914C134.171 50.1121 134.286 49.8577 134.286 49.5282C134.286 49.2101 134.176 48.9673 133.956 48.7938C133.737 48.6262 133.413 48.5394 132.996 48.5394H132.152V50.5516H132.956L132.95 50.5573Z" fill="white"/>
<path d="M137.491 53.4367C136.86 53.4367 136.38 53.2691 136.045 52.9395C135.715 52.6099 135.547 52.1416 135.547 51.546C135.547 51.1413 135.622 50.777 135.779 50.459C135.929 50.141 136.149 49.8924 136.438 49.7132C136.727 49.5339 137.063 49.4414 137.439 49.4414C137.907 49.4414 138.277 49.5802 138.555 49.8635C138.833 50.1468 138.966 50.5226 138.966 50.9852C138.966 51.2107 138.954 51.4015 138.925 51.5634H136.247V51.0314H138.364L138.22 51.2569C138.231 51.176 138.243 51.095 138.243 51.0257C138.243 50.7077 138.167 50.4648 138.011 50.2914C137.861 50.1237 137.641 50.0369 137.363 50.0369C137.045 50.0369 136.791 50.1642 136.612 50.4128C136.426 50.6614 136.334 51.0083 136.334 51.442C136.334 51.8756 136.438 52.211 136.652 52.448C136.866 52.6851 137.196 52.8065 137.647 52.8065C137.878 52.8065 138.092 52.7834 138.295 52.7313C138.497 52.6793 138.665 52.6157 138.81 52.5348L138.705 53.165C138.578 53.2402 138.405 53.3038 138.191 53.3558C137.977 53.4078 137.739 53.4367 137.485 53.4367H137.491Z" fill="white"/>
<path d="M141.1 55.3563C140.522 55.3563 140.076 55.258 139.764 55.0556C139.446 54.8533 139.29 54.5815 139.29 54.2346C139.29 53.986 139.394 53.7778 139.608 53.6159C139.822 53.454 140.122 53.3326 140.522 53.2574L140.631 53.4309C140.279 53.6159 140.099 53.8356 140.099 54.09C140.099 54.2751 140.198 54.4254 140.389 54.5526C140.579 54.6798 140.857 54.7434 141.216 54.7434C141.603 54.7434 141.904 54.6798 142.13 54.5526C142.349 54.4254 142.459 54.2519 142.459 54.0322C142.459 53.8645 142.39 53.7315 142.257 53.6448C142.124 53.5581 141.933 53.5118 141.684 53.5118H140.718C140.435 53.5118 140.203 53.4425 140.03 53.3037C139.856 53.1649 139.77 52.9799 139.77 52.7486C139.77 52.5636 139.827 52.3959 139.943 52.2456C140.059 52.0953 140.215 51.9565 140.412 51.8408L140.666 51.9507C140.481 52.1357 140.389 52.2976 140.389 52.448C140.389 52.5752 140.429 52.6677 140.516 52.7255C140.603 52.7833 140.736 52.8122 140.926 52.8122H141.892C142.338 52.8122 142.673 52.9047 142.887 53.0955C143.107 53.2863 143.211 53.5465 143.211 53.8761C143.211 54.3387 143.026 54.6971 142.65 54.9573C142.274 55.2175 141.754 55.3447 141.083 55.3447L141.1 55.3563ZM141.169 52.1646C140.689 52.1646 140.302 52.049 140.018 51.8119C139.735 51.5807 139.59 51.2627 139.59 50.8695C139.59 50.5862 139.66 50.3318 139.793 50.1178C139.926 49.8981 140.117 49.7304 140.36 49.6148C140.603 49.4934 140.869 49.4355 141.169 49.4355C141.401 49.4355 141.609 49.4645 141.8 49.5223C141.991 49.5801 142.147 49.661 142.28 49.7709L142.344 49.9212C142.465 50.0137 142.563 50.1352 142.627 50.2797C142.696 50.4243 142.731 50.5862 142.731 50.7654C142.731 51.0372 142.668 51.28 142.534 51.4939C142.401 51.7079 142.216 51.8698 141.985 51.9854C141.754 52.101 141.482 52.1589 141.175 52.1589L141.169 52.1646ZM141.169 51.5749C141.412 51.5749 141.609 51.5055 141.759 51.3609C141.91 51.2164 141.985 51.0314 141.985 50.7885C141.985 50.5457 141.91 50.3722 141.759 50.2335C141.609 50.0947 141.412 50.0253 141.169 50.0253C140.926 50.0253 140.736 50.1005 140.579 50.245C140.423 50.3896 140.348 50.5804 140.348 50.8117C140.348 51.0429 140.423 51.228 140.579 51.3667C140.73 51.5055 140.932 51.5749 141.175 51.5749H141.169ZM141.783 50.1467V49.5859L143.2 49.4355V50.008L141.783 50.1525V50.1467Z" fill="white"/>
<path d="M144.131 48.7246C143.986 48.7246 143.871 48.6784 143.778 48.5916C143.686 48.5049 143.639 48.3893 143.628 48.2447C143.628 48.1117 143.674 47.9961 143.772 47.9093C143.865 47.8226 143.986 47.7764 144.131 47.7764C144.276 47.7764 144.391 47.8226 144.49 47.9093C144.582 47.9961 144.634 48.1117 144.634 48.2447C144.634 48.3893 144.588 48.5049 144.49 48.5916C144.397 48.6784 144.276 48.7246 144.131 48.7246ZM143.732 53.3213V49.5977L144.524 49.4878V53.3213H143.732Z" fill="white"/>
<path d="M147.145 53.4367C146.56 53.4367 146.098 53.2632 145.751 52.9163C145.404 52.5694 145.23 52.101 145.23 51.4997C145.23 51.0834 145.311 50.7249 145.467 50.4127C145.629 50.1005 145.849 49.8576 146.138 49.69C146.427 49.5223 146.763 49.4355 147.139 49.4355C147.723 49.4355 148.186 49.609 148.527 49.9501C148.868 50.2913 149.042 50.7654 149.042 51.3609C149.042 51.7772 148.967 52.1415 148.81 52.4537C148.654 52.7717 148.434 53.0146 148.145 53.1823C147.856 53.3499 147.521 53.4367 147.145 53.4367ZM147.145 52.8064C147.486 52.8064 147.752 52.685 147.949 52.4364C148.145 52.1878 148.244 51.8524 148.244 51.4361C148.244 51.0198 148.145 50.6902 147.949 50.4416C147.752 50.193 147.486 50.0716 147.145 50.0716C146.803 50.0716 146.537 50.193 146.335 50.4416C146.132 50.6902 146.034 51.0198 146.034 51.4361C146.034 51.8582 146.132 52.1935 146.335 52.4364C146.537 52.685 146.803 52.8064 147.145 52.8064Z" fill="white"/>
<path d="M149.747 53.3211V49.5975L150.447 49.4934L150.499 50.2278L150.54 50.2509V53.3211H149.747ZM152.327 50.9621C152.327 50.673 152.252 50.4475 152.102 50.2971C151.951 50.1468 151.737 50.0659 151.448 50.0659C151.095 50.0659 150.794 50.1699 150.54 50.3839L150.447 50.1931L150.771 49.6438C150.852 49.6033 150.974 49.557 151.141 49.5108C151.309 49.4645 151.512 49.4414 151.749 49.4414C152.177 49.4414 152.507 49.5513 152.744 49.7768C152.981 50.0023 153.102 50.3318 153.102 50.7713V53.1245H152.321V50.9678L152.327 50.9621ZM152.327 52.9568H153.108V53.3211H152.327V52.9568Z" fill="white"/>
</svg>
