<svg xmlns="http://www.w3.org/2000/svg" xmlns:xlink="http://www.w3.org/1999/xlink" width="451.036" height="680.002" viewBox="0 0 451.036 680.002">
  <defs>
    <radialGradient id="radial-gradient" cx="0.5" cy="0.5" r="0.5" gradientTransform="matrix(0.707, 0.707, -0.707, 0.707, 0.5, -0.207)" gradientUnits="objectBoundingBox">
      <stop offset="0.362" stop-color="#bababa"/>
      <stop offset="0.415" stop-color="#c6c6c6"/>
      <stop offset="0.547" stop-color="#dfdfdf"/>
      <stop offset="0.685" stop-color="#f0f0f0"/>
      <stop offset="0.831" stop-color="#fbfbfb"/>
      <stop offset="1" stop-color="#fff"/>
    </radialGradient>
  </defs>
  <g id="Group_267" data-name="Group 267" transform="translate(-1607.942 -5441.088)">
    <circle id="Ellipse_3" data-name="Ellipse 3" cx="159.465" cy="159.465" r="159.465" transform="translate(1607.942 5895.572) rotate(-45)" fill="url(#radial-gradient)" style="mix-blend-mode: multiply;isolation: isolate"/>
    <g id="Group_265" data-name="Group 265" transform="translate(-2866.436 4793.374)">
      <g id="Group_121" data-name="Group 121">
        <path id="Path_217" data-name="Path 217" d="M4700.064,1223.646a124.536,124.536,0,0,1-29.924-3.667,122.984,122.984,0,0,1-76.287-56.237c-35.248-58.4-16.385-134.652,42.05-169.975h.007c58.481-35.224,134.738-16.347,169.989,42.087a123.927,123.927,0,0,1-105.835,187.793ZM4639.5,999.712c-55.162,33.342-72.968,105.316-39.7,160.442a116.868,116.868,0,1,0,200.151-120.715c-33.264-55.151-105.244-72.981-160.461-39.726Z" fill="#002e54"/>
      </g>
      <path id="Path_218" data-name="Path 218" d="M4667.2,1100.85l28.584-449.393c.269-4.779,7.834-5.184,8.166-.037l32.7,449.113c1.465,49.046-70.38,49.589-69.445.317Z" fill="#002e54"/>
      <path id="Path_219" data-name="Path 219" d="M4656.022,1027.107a84.861,84.861,0,1,1-28.826,116.512A84.91,84.91,0,0,1,4656.022,1027.107Z" fill="#002e54"/>
    </g>
  </g>
</svg>
