<svg width="24" height="24" viewBox="0 0 24 24" fill="none" xmlns="http://www.w3.org/2000/svg">
<path d="M5.5 14.25C6.4665 14.25 7.25 15.0335 7.25 16V20C7.25 20.9665 6.4665 21.75 5.5 21.75H4.5C3.5335 21.75 2.75 20.9665 2.75 20V16C2.75 15.0335 3.5335 14.25 4.5 14.25H5.5ZM12.5 11.75C13.4665 11.75 14.25 12.5335 14.25 13.5V20C14.25 20.9665 13.4665 21.75 12.5 21.75H11.5C10.5335 21.75 9.75 20.9665 9.75 20V13.5C9.75 12.5335 10.5335 11.75 11.5 11.75H12.5ZM19.5 8.25C20.4665 8.25 21.25 9.0335 21.25 10V20C21.25 20.9665 20.4665 21.75 19.5 21.75H18.5C17.5335 21.75 16.75 20.9665 16.75 20V10C16.75 9.0335 17.5335 8.25 18.5 8.25H19.5ZM4.5 15.75C4.36193 15.75 4.25 15.8619 4.25 16V20C4.25 20.1381 4.36193 20.25 4.5 20.25H5.5C5.63807 20.25 5.75 20.1381 5.75 20V16C5.75 15.8619 5.63807 15.75 5.5 15.75H4.5ZM11.5 13.25C11.3619 13.25 11.25 13.3619 11.25 13.5V20C11.25 20.1381 11.3619 20.25 11.5 20.25H12.5C12.6381 20.25 12.75 20.1381 12.75 20V13.5C12.75 13.3619 12.6381 13.25 12.5 13.25H11.5ZM18.5 9.75C18.3619 9.75 18.25 9.86193 18.25 10V20C18.25 20.1381 18.3619 20.25 18.5 20.25H19.5C19.6381 20.25 19.75 20.1381 19.75 20V10C19.75 9.86193 19.6381 9.75 19.5 9.75H18.5ZM19.5 2.25C19.9142 2.25 20.25 2.58579 20.25 3V6C20.25 6.41421 19.9142 6.75 19.5 6.75C19.0858 6.75 18.75 6.41421 18.75 6V4.85645C18.7443 4.862 18.7392 4.86842 18.7334 4.87402C18.1704 5.42065 17.3156 6.17767 16.1299 7.04297C13.7571 8.77445 10.0632 10.9366 4.7373 12.7119C4.34446 12.8428 3.92011 12.6301 3.78906 12.2373C3.6581 11.8444 3.86985 11.4191 4.2627 11.2881C9.43646 9.5635 12.9929 7.47549 15.2451 5.83203C16.3716 5.01 17.1733 4.29805 17.6885 3.79785C17.7049 3.78191 17.7205 3.76551 17.7363 3.75H16.5C16.0858 3.75 15.75 3.41421 15.75 3C15.75 2.58579 16.0858 2.25 16.5 2.25H19.5Z" fill="#25935F"/>
</svg>
