<svg width="109" height="108" viewBox="0 0 109 108" fill="none" xmlns="http://www.w3.org/2000/svg">
<g clip-path="url(#clip0_317_17327)">
<path d="M104.96 101.672H101.585V39.2353C101.585 37.4879 100.168 36.0713 98.4205 36.0713H85.7645C84.0171 36.0713 82.6004 37.4879 82.6004 39.2353V101.672H76.2724V60.3288C76.2724 58.5814 74.8558 57.1648 73.1084 57.1648H60.4523C58.7049 57.1648 57.2883 58.5814 57.2883 60.3288V101.672H50.9602V71.9302C50.9602 70.1828 49.5436 68.7662 47.7962 68.7662H35.1401C33.3928 68.7662 31.9761 70.1828 31.9761 71.9302V101.672H25.6481V79.5238C25.6481 77.7764 24.2315 76.3598 22.4841 76.3598H9.82799C8.08061 76.3598 6.66397 77.7764 6.66397 79.5238V101.672H3.28902C1.54164 101.672 0.125 103.089 0.125 104.836C0.125 106.583 1.54164 108 3.28902 108H104.96C106.707 108 108.124 106.583 108.124 104.836C108.124 103.089 106.707 101.672 104.96 101.672Z" fill="#25935F"/>
<path d="M3.28902 67.9867C23.0363 67.9867 44.4508 60.8947 63.5881 48.0169C78.576 37.9311 91.0699 25.0465 98.8306 11.8532L101.903 23.3211C102.282 24.7348 104.111 25.9561 105.779 25.5583C107.478 25.1528 108.468 23.3711 108.016 21.6832L102.835 2.3468C102.382 0.659116 100.648 -0.342824 98.9595 0.109631L79.6231 5.29082C77.9352 5.74306 76.9337 7.478 77.3859 9.1659C77.8384 10.8538 79.5725 11.8557 81.261 11.4031L93.7177 8.06524C86.4774 20.6466 74.5115 33.0386 60.0551 42.7667C41.951 54.9495 21.7911 61.6587 3.28902 61.6587C1.54164 61.6587 0.125 63.0753 0.125 64.8227C0.125 66.5701 1.54164 67.9867 3.28902 67.9867Z" fill="#25935F"/>
</g>
<defs>
<clipPath id="clip0_317_17327">
<rect width="108" height="108" fill="white" transform="translate(0.125)"/>
</clipPath>
</defs>
</svg>
